<?xml version="1.0" encoding="UTF-8"?>
<!DOCTYPE svg PUBLIC "-//W3C//DTD SVG 1.1//EN" "http://www.w3.org/Graphics/SVG/1.1/DTD/svg11.dtd">
<!-- Creator: CorelDRAW X7 -->
<svg xmlns="http://www.w3.org/2000/svg" xml:space="preserve" width="3.75177in" height="0.54728in" version="1.1" style="shape-rendering:geometricPrecision; text-rendering:geometricPrecision; image-rendering:optimizeQuality; fill-rule:evenodd; clip-rule:evenodd"
viewBox="0 0 3767 549"
 xmlns:xlink="http://www.w3.org/1999/xlink">
 <defs>
  <style type="text/css">
   <![CDATA[
    .fil0 {fill:#FEFEFE;fill-rule:nonzero}
    .fil1 {fill:#FB4100;fill-rule:nonzero}
   ]]>
  </style>
 </defs>
 <g id="Capa_x0020_1">
  <metadata id="CorelCorpID_0Corel-Layer"/>
  <g id="_2542100269008">
   <g>
    <path class="fil0" d="M82 41l0 96c9,-15 22,-27 38,-37 15,-8 33,-12 54,-12 37,0 68,16 92,47 24,31 36,72 36,122 0,49 -12,90 -36,121 -12,16 -28,27 -49,33 -20,7 -40,11 -60,11 -39,0 -75,-10 -108,-30 -33,-20 -49,-59 -49,-116l0 -276 41 0c11,0 21,4 29,12 8,8 12,18 12,29zm137 212l0 0c0,-29 -6,-51 -18,-67 -12,-17 -28,-26 -49,-26 -23,0 -40,8 -52,24 -12,17 -18,40 -18,69 0,34 6,58 17,74 12,16 29,25 50,25 23,0 40,-9 52,-25 12,-17 18,-42 18,-74z"/>
   </g>
  </g>
  <g id="_2542100269872">
   <g>
    <path class="fil0" d="M317 416l0 -156c0,-31 5,-57 14,-79 9,-21 22,-38 38,-51 15,-12 33,-21 53,-26 21,-6 42,-9 64,-9 1,0 3,0 6,0 2,0 4,0 6,0l0 86 -28 0c-23,0 -41,5 -52,17 -11,11 -17,29 -17,53l0 165 -84 0z"/>
   </g>
  </g>
  <g id="_2542100269936">
   <g>
    <path class="fil0" d="M546 387c-17,-15 -29,-34 -36,-59 -8,-24 -11,-50 -11,-76 0,-22 3,-44 9,-65 6,-22 15,-40 28,-54 21,-25 48,-39 81,-43 33,-5 63,-2 89,8 31,12 53,33 68,62 13,27 20,58 20,93 0,26 -3,48 -8,66 -6,19 -13,34 -22,47 -19,27 -44,43 -74,50 -26,7 -53,8 -80,1 -27,-6 -48,-16 -64,-30zm58 -212l0 0c-17,18 -25,46 -23,82 1,37 8,62 20,77 5,6 14,12 26,16 12,4 24,5 36,1 13,-3 24,-12 33,-27 10,-14 15,-38 16,-70 0,-29 -5,-50 -14,-65 -9,-14 -20,-24 -32,-28 -12,-4 -24,-4 -36,0 -12,3 -21,8 -26,14z"/>
   </g>
  </g>
  <g id="_2542100270160">
   <g>
    <path class="fil0" d="M1019 0l41 0c12,0 21,4 29,13 8,8 12,18 12,28l0 235c0,57 -16,96 -49,116 -33,20 -69,30 -107,30 -21,0 -42,-4 -62,-11 -20,-6 -36,-17 -48,-33 -23,-29 -35,-70 -35,-121 0,-51 12,-92 35,-122 24,-31 55,-47 93,-47 20,0 38,4 53,12 16,10 29,22 38,37l0 -137zm-137 253l0 0c0,32 6,57 18,74 12,16 29,25 52,25 22,0 38,-9 50,-25 12,-17 17,-42 17,-74 0,-29 -6,-52 -18,-69 -13,-16 -30,-24 -52,-24 -20,0 -37,9 -49,26 -12,16 -18,38 -18,67z"/>
   </g>
  </g>
  <g id="_2542100272432">
   <g>
    <path class="fil0" d="M1339 317l60 0c-9,34 -26,59 -51,77 -25,18 -56,28 -94,28 -45,0 -81,-15 -107,-45 -26,-29 -38,-70 -38,-124 0,-51 12,-92 37,-120 26,-30 61,-45 107,-45 48,0 86,14 112,43 26,30 39,71 39,124 0,4 0,6 0,9 0,2 0,4 0,5 0,4 -1,7 -1,8l-209 0c1,25 7,44 18,56 11,12 26,19 47,19 14,0 25,-3 35,-9 2,0 5,-2 7,-4 2,-2 4,-4 6,-6 1,-3 4,-6 9,-10 6,-4 13,-6 23,-6zm-145 -94l0 0 123 0c-2,-22 -7,-38 -17,-48 -10,-12 -25,-17 -44,-17 -18,0 -33,5 -44,17 -11,11 -17,27 -18,48z"/>
   </g>
  </g>
  <g id="_2542100271824">
   <g>
    <path class="fil0" d="M1417 416l0 -156c0,-31 5,-57 14,-79 9,-21 22,-38 38,-51 15,-12 33,-21 53,-26 21,-6 42,-9 64,-9 1,0 3,0 6,0 2,0 4,0 6,0l0 86 -28 0c-23,0 -41,5 -52,17 -11,11 -17,29 -17,53l0 165 -84 0z"/>
   </g>
  </g>
  <g id="_2542100272080">
   <g>
    <path class="fil0" d="M1578 549l0 -69 16 0c7,0 12,-2 15,-6 3,-3 4,-8 4,-16l0 -42 0 -242 0 -79 44 0c11,0 21,4 29,12 8,8 12,18 12,29l0 280 0 55c0,27 -8,47 -24,60 -16,12 -43,18 -80,18l-16 0zm35 -548l0 0 44 0c11,0 21,4 29,12 8,8 12,18 12,29l0 25 -85 0 0 -66z"/>
   </g>
  </g>
  <g id="_2542100270832">
   <g>
    <path class="fil0" d="M1756 387c-17,-15 -29,-34 -37,-59 -7,-24 -10,-50 -10,-76 0,-22 3,-44 9,-65 6,-22 15,-40 28,-54 21,-25 48,-39 81,-43 33,-5 62,-2 89,8 30,12 53,33 67,62 14,27 21,58 21,93 0,26 -3,48 -9,66 -5,19 -13,34 -21,47 -20,27 -44,43 -74,50 -26,7 -53,8 -80,1 -27,-6 -48,-16 -64,-30zm57 -212l0 0c-16,18 -24,46 -23,82 2,37 9,62 21,77 5,6 13,12 25,16 12,4 25,5 37,1 12,-3 24,-12 33,-27 10,-14 15,-38 16,-70 0,-29 -5,-50 -14,-65 -9,-14 -20,-24 -32,-28 -12,-4 -24,-4 -36,0 -12,3 -21,8 -27,14z"/>
   </g>
  </g>
  <g id="_2542100270768">
   <g>
    <path class="fil0" d="M2099 41l0 96c9,-15 22,-27 39,-37 14,-8 32,-12 53,-12 37,0 68,16 92,47 24,31 36,72 36,122 0,49 -12,90 -36,121 -12,16 -28,27 -49,33 -20,7 -40,11 -60,11 -39,0 -75,-10 -108,-30 -33,-20 -49,-59 -49,-116l0 -276 41 0c11,0 21,4 29,12 8,8 12,18 12,29zm137 212l0 0c0,-29 -6,-51 -18,-67 -12,-17 -28,-26 -49,-26 -23,0 -40,8 -52,24 -12,17 -18,40 -18,69 0,34 6,58 17,74 12,16 29,25 50,25 23,0 40,-9 52,-25 12,-17 18,-42 18,-74z"/>
   </g>
  </g>
  <g id="_2542100273040">
   <g>
    <path class="fil0" d="M2327 310l82 0c0,16 6,28 18,36 12,8 28,12 48,12 14,0 27,-3 37,-9 10,-5 15,-13 15,-22 0,-15 -17,-26 -51,-33 -14,-2 -25,-5 -32,-7 -43,-11 -72,-23 -86,-38 -16,-14 -24,-33 -24,-57 0,-31 12,-56 35,-76 24,-19 55,-28 94,-28 42,0 75,9 100,28 23,20 36,46 37,78l-52 0c-15,0 -27,-7 -35,-20 -3,-4 -6,-7 -9,-10 -10,-7 -23,-11 -40,-11 -16,0 -28,2 -36,7 -7,5 -11,12 -11,22 0,13 21,24 63,32 5,2 9,3 12,4 4,1 7,1 11,1 41,11 69,23 85,36 15,15 23,34 23,58 0,36 -13,63 -39,82 -24,18 -60,27 -108,27 -46,0 -80,-10 -102,-28 -24,-18 -35,-45 -35,-81l0 -3z"/>
   </g>
  </g>
  <path class="fil1" d="M2650 349l41 0 0 67 -67 0 0 -41c0,-17 9,-26 26,-26z"/>
  <path class="fil0" d="M2916 317l60 0c-9,34 -26,59 -50,77 -25,18 -57,28 -94,28 -46,0 -82,-15 -108,-45 -25,-29 -38,-70 -38,-124 0,-51 12,-92 37,-120 26,-30 62,-45 107,-45 49,0 86,14 112,43 15,18 25,38 32,62l-85 0c-4,-8 -8,-14 -12,-18 -10,-12 -25,-17 -44,-17 -18,0 -32,5 -44,17 -14,16 -21,42 -21,79 0,37 7,63 21,79 11,12 26,19 47,19 14,0 26,-3 35,-9 3,0 5,-2 7,-4 2,-2 4,-4 7,-6 1,-3 4,-6 9,-10 5,-4 12,-6 22,-6z"/>
  <path class="fil0" d="M3029 387c-17,-15 -29,-34 -36,-59 -7,-24 -11,-50 -11,-76 0,-22 3,-44 9,-65 6,-22 16,-40 28,-54 21,-25 48,-39 81,-43 33,-5 63,-2 89,8 31,12 53,33 68,62 14,27 20,58 20,93 0,26 -2,48 -8,66 -6,19 -13,34 -22,47 -19,27 -44,43 -73,50 -27,7 -53,8 -80,1 -27,-6 -49,-16 -65,-30zm58 -212l0 0c-17,18 -25,46 -23,82 2,37 9,62 21,77 4,6 13,12 25,16 12,4 24,5 37,1 12,-3 23,-12 33,-27 9,-14 15,-38 15,-70 0,-29 -4,-50 -13,-65 -10,-14 -20,-24 -32,-28 -12,-4 -24,-4 -37,0 -12,3 -20,8 -26,14z"/>
  <path class="fil0" d="M3570 416l-83 0 0 -188 0 -17c0,-19 -6,-33 -17,-42 -12,-9 -25,-14 -40,-14 -14,0 -27,5 -38,14 -11,9 -17,23 -17,42l0 205 -84 0 0 -188c0,-55 14,-91 42,-110 29,-18 60,-28 95,-30 18,0 37,2 54,6 18,4 34,12 48,24 12,-10 27,-18 43,-22 17,-5 34,-7 51,-8 36,0 68,9 98,28 30,18 45,56 45,112l0 188 -43 0c-12,0 -22,-4 -29,-12 -8,-7 -12,-17 -12,-29l0 -164c0,-19 -5,-33 -17,-42 -12,-9 -25,-14 -39,-14 -15,0 -28,5 -39,14 -12,9 -18,23 -18,42l0 17 0 188z"/>
 </g>
</svg>
