<?xml version="1.0" encoding="UTF-8"?>
<!DOCTYPE svg PUBLIC "-//W3C//DTD SVG 1.1//EN" "http://www.w3.org/Graphics/SVG/1.1/DTD/svg11.dtd">
<!-- Creator: CorelDRAW X7 -->
<svg xmlns="http://www.w3.org/2000/svg" xml:space="preserve" width="2.63602in" height="0.402528in" version="1.1" style="shape-rendering:geometricPrecision; text-rendering:geometricPrecision; image-rendering:optimizeQuality; fill-rule:evenodd; clip-rule:evenodd"
viewBox="0 0 2659 406"
 xmlns:xlink="http://www.w3.org/1999/xlink">
 <defs>
  <style type="text/css">
   <![CDATA[
    .fil1 {fill:black;fill-rule:nonzero}
    .fil0 {fill:#FB4100;fill-rule:nonzero}
   ]]>
  </style>
 </defs>
 <g id="Capa_x0020_1">
  <metadata id="CorelCorpID_0Corel-Layer"/>
  <path class="fil0" d="M61 30l-2 68c7,-11 16,-19 28,-26 10,-6 23,-8 38,-8 26,0 48,12 65,34 16,23 24,51 24,87 -1,35 -10,63 -27,85 -9,11 -20,18 -35,23 -15,4 -29,7 -43,6 -27,0 -52,-8 -75,-22 -23,-15 -35,-42 -34,-82l3 -195 29 0c8,1 15,4 20,9 6,6 9,13 9,21zm94 151l0 0c0,-20 -4,-36 -12,-48 -8,-12 -20,-18 -35,-18 -15,0 -28,5 -36,16 -9,12 -14,28 -14,49 0,23 3,41 11,52 8,12 20,18 36,18 15,0 28,-5 36,-17 9,-12 14,-29 14,-52z"/>
  <path class="fil0" d="M222 297l2 -110c0,-22 4,-40 11,-55 6,-15 15,-27 27,-36 11,-8 24,-14 38,-18 15,-4 29,-6 45,-5 1,0 2,0 4,0 2,0 3,0 4,0l-1 60 -19 0c-17,0 -29,3 -37,11 -8,8 -12,20 -13,37l-1 117 -60 -1z"/>
  <path class="fil0" d="M384 279c-12,-10 -20,-24 -25,-41 -5,-18 -7,-36 -7,-55 1,-15 3,-30 7,-45 5,-16 12,-28 21,-38 15,-17 34,-27 58,-30 23,-2 44,0 62,7 22,9 37,24 47,45 10,19 14,41 14,66 -1,18 -3,33 -7,46 -4,13 -9,24 -16,33 -14,19 -31,30 -52,34 -19,5 -38,5 -57,1 -19,-5 -34,-12 -45,-23zm43 -149l0 0c-12,13 -18,32 -17,58 1,26 5,44 14,54 3,5 9,9 17,12 9,3 17,4 26,1 9,-2 17,-8 24,-18 7,-10 11,-27 12,-49 0,-21 -3,-36 -9,-46 -7,-11 -14,-17 -22,-20 -9,-3 -17,-4 -26,-1 -8,2 -15,5 -19,9z"/>
  <path class="fil0" d="M723 12l29 0c7,0 14,3 20,9 5,6 8,13 8,21l-3 165c0,41 -12,68 -36,81 -23,14 -49,21 -76,20 -15,0 -29,-2 -43,-8 -14,-5 -25,-13 -34,-23 -16,-22 -24,-50 -23,-87 0,-35 9,-64 26,-85 17,-22 39,-33 66,-32 14,0 27,3 37,9 11,7 20,16 27,27l2 -97zm-100 177l0 0c-1,22 3,40 12,52 8,12 20,18 36,18 15,0 27,-5 36,-17 8,-12 12,-29 13,-52 0,-20 -4,-36 -12,-48 -9,-12 -21,-18 -37,-18 -14,0 -26,5 -35,17 -8,11 -13,27 -13,48z"/>
  <path class="fil0" d="M944 239l43 1c-7,23 -19,41 -37,53 -18,13 -40,19 -66,19 -33,-1 -58,-11 -76,-33 -17,-20 -26,-50 -25,-88 0,-36 9,-64 27,-84 19,-21 44,-31 77,-31 34,1 60,12 78,32 18,22 27,51 26,88 0,3 0,5 0,6 0,2 0,3 0,4 0,3 -1,4 -1,6l-147 -3c0,18 4,31 12,40 7,9 18,13 33,14 9,0 18,-2 25,-6 1,0 3,-1 4,-3 2,-1 3,-3 5,-4 1,-2 3,-4 7,-7 3,-3 9,-4 15,-4zm-101 -68l0 0 87 1c-1,-15 -5,-26 -11,-34 -7,-8 -18,-12 -32,-12 -12,0 -22,3 -30,11 -8,8 -13,19 -14,34z"/>
  <path class="fil0" d="M998 310l2 -110c1,-22 4,-41 11,-56 7,-15 16,-26 27,-35 11,-9 24,-15 38,-18 15,-4 30,-6 45,-6 1,0 3,0 4,0 2,0 4,0 5,0l-1 61 -20 -1c-16,0 -29,4 -37,12 -8,8 -12,20 -12,37l-2 117 -60 -1z"/>
  <path class="fil0" d="M1111 406l1 -49 11 0c5,0 8,-2 10,-4 2,-2 4,-6 4,-11l0 -30 3 -171 1 -55 30 0c8,0 15,3 21,9 5,6 8,13 8,20l-3 198 -1 39c0,19 -6,33 -18,42 -11,8 -30,12 -56,12l-11 0zm31 -387l0 0 30 1c8,0 15,3 21,9 5,5 8,12 8,20l0 18 -60 -1 1 -47z"/>
  <path class="fil0" d="M1238 293c-12,-10 -20,-24 -25,-42 -5,-17 -7,-35 -7,-54 0,-15 3,-30 7,-46 5,-15 12,-27 21,-38 15,-16 34,-26 57,-29 24,-3 45,0 63,7 22,9 37,24 47,45 9,19 14,41 14,65 -1,19 -3,34 -7,47 -4,13 -10,24 -16,33 -14,19 -31,30 -52,34 -19,5 -38,5 -57,0 -19,-4 -34,-12 -45,-22zm43 -149l0 0c-12,13 -18,32 -17,58 1,26 5,44 14,54 3,5 9,9 17,12 9,3 17,4 26,1 9,-2 17,-8 24,-18 7,-11 11,-27 12,-50 0,-20 -3,-35 -9,-46 -7,-10 -14,-17 -23,-20 -8,-3 -17,-3 -25,0 -9,2 -15,5 -19,9z"/>
  <path class="fil0" d="M1484 53l-1 68c6,-11 16,-19 28,-26 10,-5 22,-8 37,-8 27,1 48,12 65,34 17,23 25,51 24,87 0,35 -9,63 -27,85 -8,11 -20,18 -34,23 -15,5 -29,7 -44,6 -27,0 -52,-7 -75,-22 -23,-15 -34,-42 -33,-82l3 -195 29 1c8,0 14,3 20,8 6,6 8,13 8,21zm95 151l0 0c0,-20 -4,-36 -12,-48 -9,-12 -20,-18 -35,-18 -16,0 -28,5 -37,16 -8,12 -13,28 -13,49 -1,23 3,41 11,52 8,12 20,18 35,18 16,0 28,-5 37,-17 9,-12 13,-29 14,-52z"/>
  <path class="fil0" d="M1642 245l58 1c0,11 4,20 12,26 8,6 20,9 34,9 10,0 19,-2 26,-6 7,-4 11,-9 11,-16 0,-10 -12,-18 -36,-23 -10,-2 -17,-4 -22,-6 -30,-8 -50,-17 -60,-27 -12,-10 -17,-24 -17,-41 1,-22 9,-39 26,-53 17,-13 39,-19 66,-19 30,1 53,8 71,21 16,14 24,33 25,56l-36 -1c-11,0 -19,-5 -25,-15 -2,-2 -4,-4 -7,-7 -6,-5 -16,-8 -28,-8 -11,0 -19,2 -25,5 -5,3 -8,8 -8,15 0,9 14,17 44,24 3,1 6,2 9,2 2,1 5,1 7,1 29,8 49,17 60,27 11,10 16,24 15,41 0,25 -9,44 -28,57 -17,13 -43,18 -77,18 -32,-1 -56,-8 -72,-21 -16,-13 -24,-32 -23,-57l0 -3z"/>
  <path class="fil1" d="M1869 277l29 0 -1 47 -46 -1 0 -29c0,-11 6,-17 18,-17z"/>
  <path class="fil1" d="M2058 257l42 1c-7,23 -19,41 -37,54 -17,12 -40,18 -66,18 -33,-1 -58,-11 -75,-33 -18,-20 -27,-50 -26,-88 0,-36 10,-64 28,-84 18,-21 43,-31 76,-31 34,1 60,12 78,32 10,13 17,28 22,44l-60 -1c-3,-6 -5,-10 -8,-13 -7,-8 -18,-12 -31,-12 -13,0 -23,3 -31,11 -11,11 -16,30 -16,56 -1,26 4,45 14,56 7,9 18,13 33,14 10,0 18,-2 25,-6 1,0 3,-1 4,-3 2,-1 4,-3 5,-4 1,-2 4,-4 7,-7 4,-3 9,-4 16,-4z"/>
  <path class="fil1" d="M2137 308c-12,-11 -20,-25 -25,-42 -5,-17 -7,-35 -7,-54 0,-15 3,-31 7,-46 5,-15 12,-28 21,-38 15,-17 34,-26 57,-29 24,-3 44,-1 63,6 21,9 37,24 47,45 9,19 14,41 13,66 0,18 -2,34 -6,47 -5,13 -10,24 -16,33 -14,18 -32,29 -53,34 -18,4 -37,5 -56,0 -19,-5 -34,-12 -45,-22zm43 -149l0 0c-12,12 -18,32 -17,58 1,25 5,43 13,54 4,4 10,8 18,12 9,3 17,3 26,1 9,-3 17,-9 24,-19 7,-10 11,-26 12,-49 0,-20 -3,-36 -10,-46 -6,-10 -13,-17 -22,-20 -8,-3 -17,-3 -25,-1 -9,3 -15,6 -19,10z"/>
  <path class="fil1" d="M2518 334l-59 -1 3 -132 0 -12c0,-14 -4,-24 -12,-30 -8,-7 -17,-10 -28,-10 -10,0 -19,3 -27,9 -8,6 -12,16 -12,29l-3 145 -59 -1 2 -133c1,-38 11,-64 31,-77 21,-12 43,-19 68,-20 13,0 25,2 38,5 12,3 23,9 33,18 9,-8 19,-13 31,-16 12,-2 24,-4 36,-4 25,0 48,7 69,20 20,14 31,40 30,80l-2 132 -30 0c-8,0 -15,-3 -21,-8 -5,-6 -8,-13 -7,-21l1 -116c1,-14 -3,-24 -11,-30 -9,-6 -18,-10 -28,-10 -10,0 -19,3 -28,9 -8,6 -12,16 -13,30l0 12 -2 132z"/>
 </g>
</svg>
