<?xml version="1.0" standalone="no"?>
<!DOCTYPE svg PUBLIC "-//W3C//DTD SVG 1.1//EN" "http://www.w3.org/Graphics/SVG/1.1/DTD/svg11.dtd" >
<svg xmlns="http://www.w3.org/2000/svg" xmlns:xlink="http://www.w3.org/1999/xlink" version="1.1">
<metadata>
Created by FontForge 20141024 at Thu Sep 24 03:43:56 2015
 By Jimmy Warting
Font data copyright Google 2013
</metadata>
<defs>
<font id="RobotoCondensed-Regular" horiz-adv-x="957" >
  <font-face 
    font-family="Roboto Condensed"
    font-weight="400"
    font-stretch="normal"
    units-per-em="2048"
    panose-1="0 0 0 0 0 0 0 0 0 0"
    ascent="1536"
    descent="-512"
    x-height="1082"
    cap-height="1456"
    bbox="-1185 -555 1999 2146"
    underline-thickness="100"
    underline-position="-100"
    unicode-range="U+0002-FFFD"
  />
<missing-glyph horiz-adv-x="433" 
 />
    <glyph glyph-name="fi" unicode="fi" horiz-adv-x="989" 
d="M164 0v937h-132v145h132v111q0 189 91.5 288.5t263.5 99.5q61 0 118.5 -15t130.5 -45l-31 -158q-47 22 -96 35.5t-108 13.5q-88 0 -128.5 -54t-40.5 -165v-111h172v-145h-172v-937h-200zM862 0h-200v1082h200v-1082z" />
    <glyph glyph-name=".notdef" horiz-adv-x="433" 
 />
    <glyph glyph-name="NULL" horiz-adv-x="0" 
 />
    <glyph glyph-name="NULL" horiz-adv-x="0" 
 />
    <glyph glyph-name="nonmarkingreturn" unicode="&#xd;" horiz-adv-x="433" 
 />
    <glyph glyph-name="space" unicode=" " horiz-adv-x="433" 
 />
    <glyph glyph-name="quotedbl" unicode="&#x22;" horiz-adv-x="575" 
d="M227 1416l-45 -369h-101v513h146v-144zM489 1416l-45 -369h-100v513h145v-144z" />
    <glyph glyph-name="numbersign" unicode="#" horiz-adv-x="1025" 
d="M557 410h-176l-61 -410h-136l61 410h-186v130h205l55 368h-199v132h218l62 416h136l-62 -416h177l62 416h136l-62 -416h169v-132h-188l-55 -368h182v-130h-201l-61 -410h-137zM400 540h176l55 368h-176z" />
    <glyph glyph-name="dollar" unicode="$" horiz-adv-x="961" 
d="M668 370q0 97 -42.5 158t-148.5 117q-174 71 -257 166.5t-83 270.5q0 166 80.5 268.5t223.5 122.5v212h127v-214q141 -25 218.5 -141t77.5 -316h-201q0 139 -44 221t-121 82q-82 0 -121.5 -63.5t-39.5 -169.5q0 -99 40.5 -158t152.5 -117q174 -75 256 -169t82 -268
q0 -171 -84 -270.5t-233 -118.5v-193h-126v193q-147 18 -240 125t-93 324h200q0 -161 54.5 -227.5t138.5 -66.5q88 0 135.5 63t47.5 169z" />
    <glyph glyph-name="percent" unicode="%" horiz-adv-x="1289" 
d="M96 1176q0 130 68.5 215.5t189.5 85.5q123 0 191 -85t68 -216v-77q0 -131 -68 -215t-189 -84q-123 0 -191.5 84.5t-68.5 214.5v77zM237 1099q0 -76 30 -127.5t89 -51.5q57 0 87 51t30 128v77q0 76 -30.5 128.5t-88.5 52.5t-87.5 -52.5t-29.5 -128.5v-77zM685 357
q0 130 68.5 215t190.5 85t190.5 -85t68.5 -215v-78q0 -131 -68 -215.5t-189 -84.5q-123 0 -192 84.5t-69 215.5v78zM827 279q0 -75 31 -127.5t88 -52.5q60 0 88 50.5t28 129.5v78q0 77 -30 128.5t-88 51.5t-87.5 -51.5t-29.5 -128.5v-78zM396 113l-102 63l572 1138l102 -63z
" />
    <glyph glyph-name="ampersand" unicode="&#x26;" horiz-adv-x="1125" 
d="M67 383q0 124 58 213.5t178 187.5q-67 101 -98 178.5t-31 162.5q0 169 84 260.5t234 91.5q135 0 216 -88t81 -220q0 -98 -41 -168.5t-120 -136.5l-97 -84l279 -395q29 64 45 135.5t16 154.5h162q0 -133 -29.5 -239.5t-92.5 -193.5l171 -242h-234l-70 100
q-72 -61 -149 -91t-166 -30q-186 0 -291 109.5t-105 294.5zM470 133q60 0 115.5 22.5t106.5 68.5l-302 433l-20 -18q-62 -73 -81.5 -134t-19.5 -117q0 -112 52.5 -183.5t148.5 -71.5zM362 1127q0 -51 20.5 -104.5t63.5 -118.5l94 79q48 41 64.5 83.5t16.5 97.5
q0 66 -34.5 111.5t-94.5 45.5q-64 0 -97 -55t-33 -139z" />
    <glyph glyph-name="quotesingle" unicode="'" horiz-adv-x="312" 
d="M234 1427l-53 -372h-101l1 359v146h153v-133z" />
    <glyph glyph-name="parenleft" unicode="(" horiz-adv-x="585" 
d="M115 590q0 385 124 662.5t276 378.5l39 -116q-107 -105 -183.5 -342.5t-76.5 -580.5v-20q0 -343 76 -580t184 -347l-39 -110q-153 101 -276.5 375t-123.5 664v16z" />
    <glyph glyph-name="parenright" unicode=")" horiz-adv-x="588" 
d="M475 574q0 -386 -126.5 -662t-280.5 -377l-41 110q106 104 183 343.5t77 583.5v20q0 340 -79 581t-181 348l41 110q153 -100 280 -379.5t127 -661.5v-16z" />
    <glyph glyph-name="asterisk" unicode="*" horiz-adv-x="776" 
d="M288 984l-253 96l43 140l252 -119l-11 355h143l-13 -361l247 121l43 -141l-257 -100l166 -278l-115 -87l-151 295l-149 -289l-117 84z" />
    <glyph glyph-name="plus" unicode="+" horiz-adv-x="979" 
d="M585 774h320v-174h-320v-454h-196v454h-322v174h322v432h196v-432z" />
    <glyph glyph-name="comma" unicode="," horiz-adv-x="393" 
d="M302 51q0 -97 -42 -196.5t-110 -169.5l-104 67q35 71 52.5 140t17.5 153v169h187z" />
    <glyph glyph-name="hyphen" unicode="-" horiz-adv-x="581" 
d="M501 552h-427v154h427v-154z" />
    <glyph glyph-name="period" unicode="." horiz-adv-x="487" 
d="M334 0h-200v200h200v-200z" />
    <glyph glyph-name="slash" unicode="/" horiz-adv-x="669" 
d="M168 -125h-156l456 1581h156z" />
    <glyph glyph-name="zero" unicode="0" horiz-adv-x="961" 
d="M866 563q0 -288 -102 -436t-283 -148t-283.5 148t-102.5 436v329q0 287 101.5 436t282.5 149q182 0 284.5 -149t102.5 -436v-329zM665 921q0 202 -47 301t-139 99q-91 0 -137.5 -99.5t-46.5 -300.5v-386q0 -202 47.5 -302t138.5 -100t137.5 99.5t46.5 302.5v386z" />
    <glyph glyph-name="one" unicode="1" horiz-adv-x="961" 
d="M606 0h-199v1245l-234 -19v127l433 104v-1457z" />
    <glyph glyph-name="two" unicode="2" horiz-adv-x="961" 
d="M879 0h-780v135l380 526q93 139 128 226.5t35 173.5q0 117 -44 188.5t-124 71.5q-101 0 -149.5 -78.5t-48.5 -219.5h-200q0 197 105 325.5t293 128.5q174 0 271.5 -110.5t97.5 -299.5q0 -128 -59 -247.5t-177 -270.5l-257 -395h529v-154z" />
    <glyph glyph-name="three" unicode="3" horiz-adv-x="961" 
d="M326 818h135q95 0 136 66t41 184q0 121 -43.5 187t-131.5 66q-79 0 -128.5 -66.5t-49.5 -178.5h-199q0 177 104 289t270 112q176 0 277.5 -105.5t101.5 -305.5q0 -99 -47.5 -185.5t-138.5 -133.5q107 -43 155.5 -132.5t48.5 -212.5q0 -202 -110 -312.5t-286 -110.5
q-166 0 -276.5 106.5t-110.5 306.5h200q0 -118 51.5 -188.5t138.5 -70.5q91 0 141.5 68t50.5 199q0 140 -47 202.5t-148 62.5h-135v153z" />
    <glyph glyph-name="four" unicode="4" horiz-adv-x="961" 
d="M762 497h146v-155h-146v-342h-201v342h-498l-6 114l499 1000h206v-959zM254 497h307v662l-3 1l-18 -39z" />
    <glyph glyph-name="five" unicode="5" horiz-adv-x="961" 
d="M136 654l67 802h623v-167h-457l-35 -427l3 -1q32 36 77 59.5t103 25.5q168 3 259.5 -125t91.5 -356q0 -221 -96.5 -353.5t-287.5 -132.5q-160 0 -265.5 102.5t-105.5 305.5l195 4q0 -126 48 -192t128 -66q93 0 138.5 86t45.5 244q0 149 -47 236t-139 87q-82 0 -119 -36.5
t-54 -112.5z" />
    <glyph glyph-name="six" unicode="6" horiz-adv-x="961" 
d="M559 1477q65 0 121 -16.5t105 -46.5l-38 -149q-43 27 -85.5 41t-101.5 14q-118 0 -187.5 -115.5t-69.5 -316.5v-36q49 55 112 85t140 30q160 0 249 -133.5t89 -351.5q0 -224 -103.5 -363.5t-276.5 -139.5q-183 0 -296 150.5t-113 428.5v316q0 276 127.5 439.5
t327.5 163.5zM505 818q-74 0 -124 -35.5t-78 -99.5v-137q0 -200 58 -307t152 -107q85 0 132.5 100t47.5 250q0 151 -49.5 243.5t-138.5 92.5z" />
    <glyph glyph-name="seven" unicode="7" horiz-adv-x="961" 
d="M878 1300q-204 -282 -272.5 -527t-100.5 -634l-12 -139h-200l11 139q31 359 122.5 635t257.5 526h-618v156h812v-156z" />
    <glyph glyph-name="eight" unicode="8" horiz-adv-x="961" 
d="M842 1076q0 -117 -51 -201.5t-143 -128.5q104 -46 163.5 -137.5t59.5 -216.5q0 -204 -106.5 -308.5t-283.5 -104.5q-179 0 -285 104.5t-106 308.5q0 126 58.5 217t163.5 137q-92 44 -142.5 128.5t-50.5 201.5q0 195 97.5 298t263.5 103q164 0 263 -103t99 -298zM671 399
q0 122 -53.5 196.5t-137.5 74.5q-87 0 -138.5 -74t-51.5 -197q0 -127 51 -196.5t140 -69.5q86 0 138 69.5t52 196.5zM642 1071q0 112 -44.5 181t-117.5 69q-76 0 -118 -66.5t-42 -183.5q0 -115 43 -181t118 -66q74 0 117.5 66t43.5 181z" />
    <glyph glyph-name="nine" unicode="9" horiz-adv-x="961" 
d="M426 133q105 0 168 100.5t63 297.5v61l-3 1q-38 -66 -93.5 -100.5t-122.5 -34.5q-170 0 -265 132.5t-95 366.5q0 228 107.5 374t272.5 146q185 0 292.5 -141.5t107.5 -417.5v-380q0 -271 -119 -415t-313 -144q-61 0 -124.5 15t-118.5 45l26 148q51 -29 101 -41.5
t116 -12.5zM459 610q73 0 122 43t76 113v172q0 192 -51 287.5t-146 95.5q-79 0 -130.5 -104t-51.5 -260q0 -157 47 -252t134 -95z" />
    <glyph glyph-name="colon" unicode=":" horiz-adv-x="470" 
d="M334 0h-200v200h200v-200zM334 881h-200v200h200v-200z" />
    <glyph glyph-name="semicolon" unicode=";" horiz-adv-x="464" 
d="M331 881h-200v200h200v-200zM334 51q0 -97 -42 -196.5t-110 -169.5l-104 67q35 71 52.5 140t17.5 153v169h187z" />
    <glyph glyph-name="less" unicode="&#x3c;" horiz-adv-x="862" 
d="M270 657l-48 -15v-3l48 -15l468 -240v-192l-677 375v152l677 374v-192z" />
    <glyph glyph-name="equal" unicode="=" horiz-adv-x="964" 
d="M825 801h-697v160h697v-160zM825 382h-697v161h697v-161z" />
    <glyph glyph-name="greater" unicode="&#x3e;" horiz-adv-x="880" 
d="M114 906v188l695 -375v-151l-695 -375v189l487 247l48 15v3l-48 16z" />
    <glyph glyph-name="question" unicode="?" horiz-adv-x="828" 
d="M283 408q1 135 26.5 190.5t117.5 151.5q68 93 102.5 163t34.5 170q0 113 -41.5 173t-120.5 60q-66 0 -112 -55.5t-46 -157.5h-201q2 181 100 277.5t259 96.5q173 0 267.5 -103t94.5 -288q0 -132 -56 -236t-153 -209q-48 -52 -59.5 -97.5t-11.5 -135.5h-201zM487 0h-204
v198h204v-198z" />
    <glyph glyph-name="at" unicode="@" horiz-adv-x="1558" 
d="M1466 509q-8 -220 -102 -375t-290 -155q-66 0 -112 43.5t-64 123.5h-3q-40 -84 -96 -125t-133 -41q-115 0 -174.5 118t-43.5 318q20 261 116.5 412.5t240.5 151.5q94 0 148 -25.5t123 -81.5l-3 -3h5l-43 -577q-7 -118 14.5 -159t59.5 -41q102 0 161.5 115.5t66.5 300.5
q14 384 -114.5 590t-410.5 206q-263 0 -416 -223t-166 -604q-16 -377 122 -594t404 -217q75 0 149.5 20.5t128.5 55.5l32 -107q-58 -43 -143.5 -66t-169.5 -23q-333 0 -507 245t-159 686q16 433 209 688.5t519 255.5q329 0 497 -241t154 -672zM614 416q-11 -145 15 -223
t87 -78q52 0 93.5 29.5t76.5 109.5v21.5t1 17.5l39 538q-22 10 -44.5 16t-46.5 6q-102 0 -154 -106t-67 -331z" />
    <glyph glyph-name="A" unicode="A" horiz-adv-x="1103" 
d="M769 374h-435l-99 -374h-204l426 1456h194l420 -1456h-203zM376 529h352l-174 657h-4z" />
    <glyph glyph-name="B" unicode="B" horiz-adv-x="1079" 
d="M137 0v1456h394q199 0 305.5 -96t106.5 -296q0 -106 -48.5 -184t-136.5 -114v-3q113 -25 171.5 -121t58.5 -230q0 -206 -104.5 -309t-299.5 -103h-447zM338 679v-525h246q100 0 152 66t52 191q0 126 -45 197t-141 71h-264zM338 825h220q89 3 137 62.5t48 172.5
q0 123 -52.5 181.5t-159.5 58.5h-193v-475z" />
    <glyph glyph-name="C" unicode="C" horiz-adv-x="1053" 
d="M986 435q-4 -224 -116 -340t-318 -116q-209 0 -325 140.5t-116 405.5v404q0 264 117 406t324 142q210 0 319 -114.5t116 -346.5h-201q-2 160 -56.5 232.5t-177.5 72.5q-119 0 -180 -98t-61 -291v-407q0 -196 59.5 -294t181.5 -98q121 0 176 69.5t58 232.5h200z" />
    <glyph glyph-name="D" unicode="D" horiz-adv-x="1130" 
d="M137 0v1456h347q260 0 395 -148t135 -451v-260q0 -305 -136 -451t-403 -146h-338zM338 1300v-1146h130q190 0 268 105.5t78 337.5v262q0 233 -77 337t-259 104h-140z" />
    <glyph glyph-name="E" unicode="E" horiz-adv-x="977" 
d="M846 676h-508v-522h590v-154h-791v1456h786v-156h-585v-469h508v-155z" />
    <glyph glyph-name="F" unicode="F" horiz-adv-x="975" 
d="M845 647h-507v-647h-201v1456h789v-156h-588v-498h507v-155z" />
    <glyph glyph-name="G" unicode="G" horiz-adv-x="1125" 
d="M1004 203q-50 -89 -152.5 -156.5t-272.5 -67.5q-222 0 -351 136.5t-129 398.5v432q0 259 123 395t336 136q216 0 324 -110.5t121 -323.5h-197q-5 139 -63 208.5t-182 69.5q-126 0 -194 -93.5t-68 -279.5v-434q0 -191 73 -286t207 -95q98 0 147.5 34.5t76.5 91.5v331h-225
v147h426v-534z" />
    <glyph glyph-name="H" unicode="H" horiz-adv-x="1194" 
d="M1056 0h-201v642h-517v-642h-201v1456h201v-659h517v659h201v-1456z" />
    <glyph glyph-name="I" unicode="I" horiz-adv-x="499" 
d="M350 0h-201v1456h201v-1456z" />
    <glyph glyph-name="J" unicode="J" horiz-adv-x="950" 
d="M619 1456h200v-1039q0 -205 -104 -321.5t-271 -116.5q-181 0 -283 106.5t-102 322.5h200q0 -142 46.5 -208.5t138.5 -66.5q81 0 128 74.5t47 209.5v1039z" />
    <glyph glyph-name="K" unicode="K" horiz-adv-x="1086" 
d="M466 653h-128v-653h-201v1456h201v-640h111l359 640h239l-430 -693l462 -763h-245z" />
    <glyph glyph-name="L" unicode="L" horiz-adv-x="928" 
d="M338 154h535v-154h-736v1456h201v-1302z" />
    <glyph glyph-name="M" unicode="M" horiz-adv-x="1421" 
d="M390 1456l318 -1192h3l318 1192h259v-1456h-199v559l19 555l-3 1l-329 -1115h-133l-328 1115l-3 -1l19 -555v-559h-199v1456h258z" />
    <glyph glyph-name="N" unicode="N" horiz-adv-x="1195" 
d="M1056 0h-200l-515 1074l-3 -1v-1073h-201v1456h201l515 -1072l3 1v1071h200v-1456z" />
    <glyph glyph-name="O" unicode="O" horiz-adv-x="1164" 
d="M1048 527q0 -264 -126 -406t-345 -142q-216 0 -338.5 142t-122.5 406v400q0 263 122.5 406.5t337.5 143.5q219 0 345.5 -143.5t126.5 -406.5v-400zM847 930q0 193 -69 290t-202 97q-128 0 -193.5 -97t-65.5 -290v-403q0 -196 65.5 -293t194.5 -97q133 0 201.5 97
t68.5 293v403z" />
    <glyph glyph-name="P" unicode="P" horiz-adv-x="1089" 
d="M338 574v-574h-201v1456h459q198 0 307 -119.5t109 -321.5q0 -203 -108.5 -322t-307.5 -119h-258zM338 730h258q109 0 162 79t53 204q0 126 -53 206.5t-162 80.5h-258v-570z" />
    <glyph glyph-name="Q" unicode="Q" horiz-adv-x="1168" 
d="M1048 527q0 -152 -43.5 -263t-126.5 -182l197 -214l-131 -114l-221 245q-35 -10 -71 -15t-75 -5q-216 0 -338.5 142t-122.5 406v400q0 263 122.5 406.5t337.5 143.5q219 0 345.5 -143.5t126.5 -406.5v-400zM847 930q0 193 -69 290t-202 97q-128 0 -193.5 -97t-65.5 -290
v-403q0 -196 65.5 -293t194.5 -97q133 0 201.5 97t68.5 293v403z" />
    <glyph glyph-name="R" unicode="R" horiz-adv-x="1107" 
d="M338 627v-627h-201v1455h443q200 0 302 -104t102 -309q0 -118 -53 -201.5t-153 -131.5q106 -38 150.5 -124t44.5 -220v-127q0 -68 12.5 -123.5t43.5 -89.5v-25h-206q-33 34 -42 99.5t-9 140.5v123q0 125 -48.5 194.5t-139.5 69.5h-246zM338 782h223q116 0 169 65.5
t53 189.5q0 128 -50 195.5t-159 67.5h-236v-518z" />
    <glyph glyph-name="S" unicode="S" horiz-adv-x="1044" 
d="M766 366q0 105 -52.5 169.5t-189.5 115.5q-202 64 -306 163.5t-104 269.5q0 176 116 284.5t306 108.5q196 0 313 -126t117 -315h-201q0 130 -59 208t-172 78q-107 0 -163 -65.5t-56 -170.5q0 -95 60.5 -157t204.5 -115q194 -63 290 -167.5t96 -278.5q0 -183 -115 -286
t-310 -103q-190 0 -327 114.5t-137 332.5h201q0 -154 71 -224t192 -70q109 0 167 62t58 172z" />
    <glyph glyph-name="T" unicode="T" horiz-adv-x="1010" 
d="M958 1300h-354v-1300h-199v1300h-353v156h906v-156z" />
    <glyph glyph-name="U" unicode="U" horiz-adv-x="1113" 
d="M1002 1456v-1009q0 -231 -122 -349.5t-326 -118.5q-201 0 -320.5 118.5t-119.5 349.5v1009h198v-1009q0 -159 64.5 -236.5t177.5 -77.5q118 0 183 74.5t65 239.5v1009h200z" />
    <glyph glyph-name="V" unicode="V" horiz-adv-x="1086" 
d="M521 322l21 -88h3l20 87l276 1135h213l-415 -1456h-193l-415 1456h214z" />
    <glyph glyph-name="W" unicode="W" horiz-adv-x="1419" 
d="M1000 433h3l155 1023h194l-248 -1456h-180l-214 1021h-3l-214 -1021h-180l-248 1456h194l157 -1026h3l212 1026h155z" />
    <glyph glyph-name="X" unicode="X" horiz-adv-x="1069" 
d="M531 881l244 575h236l-359 -721l374 -735h-241l-251 588l-251 -588h-237l367 735l-358 721h235z" />
    <glyph glyph-name="Y" unicode="Y" horiz-adv-x="1026" 
d="M513 761l266 695h222l-392 -931v-525h-198v540l-386 916h222z" />
    <glyph glyph-name="Z" unicode="Z" horiz-adv-x="970" 
d="M290 154h608v-154h-819v125l587 1176h-583v155h796v-121z" />
    <glyph glyph-name="bracketleft" unicode="[" horiz-adv-x="492" 
d="M463 1519h-138v-1686h138v-152h-340v1991h340v-153z" />
    <glyph glyph-name="backslash" unicode="\" horiz-adv-x="713" 
d="M27 1456h195l489 -1581h-195z" />
    <glyph glyph-name="bracketright" unicode="]" horiz-adv-x="492" 
d="M21 1672h342v-1991h-342v152h139v1686h-139v153z" />
    <glyph glyph-name="asciicircum" unicode="^" horiz-adv-x="731" 
d="M222 729h-168l240 727h142l240 -727h-167l-134 444l-10 50h-3l-10 -50z" />
    <glyph glyph-name="underscore" unicode="_" horiz-adv-x="765" 
d="M750 -152h-736v152h736v-152z" />
    <glyph glyph-name="grave" unicode="`" horiz-adv-x="575" 
d="M463 1211h-165l-224 266h230z" />
    <glyph glyph-name="a" unicode="a" horiz-adv-x="918" 
d="M635 0q-10 37 -17 70.5t-10 65.5l-2 1q-42 -69 -104 -113t-139 -44q-134 0 -206.5 84.5t-72.5 232.5q0 158 98.5 245t283.5 87h139v111q0 101 -39.5 155.5t-114.5 54.5q-69 0 -108 -48.5t-39 -126.5l-201 1q0 133 99 229.5t262 96.5q155 0 248.5 -92.5t93.5 -271.5v-502
q0 -62 7.5 -119.5t23.5 -116.5h-202zM409 136q66 0 118 39.5t78 101.5v226h-142q-87 0 -133 -59t-46 -146q0 -74 32 -118t93 -44z" />
    <glyph glyph-name="b" unicode="b" 
d="M879 451q0 -219 -86.5 -345t-251.5 -126q-82 0 -140 35.5t-98 104.5l-3 -1l-13 -119h-174v1560h200v-583h3q38 61 93 93t130 32q167 0 253.5 -135t86.5 -369v-147zM679 598q0 159 -44.5 252.5t-146.5 93.5q-64 0 -106.5 -39t-68.5 -108v-524q25 -65 68 -100.5t109 -35.5
q103 0 146 82.5t43 231.5v147z" />
    <glyph glyph-name="c" unicode="c" horiz-adv-x="891" 
d="M471 133q72 0 123 58t47 159h188q4 -160 -102 -265t-253 -105q-197 0 -297 134.5t-100 350.5v149q0 216 100.5 352t295.5 136q163 0 261 -108.5t95 -293.5h-188q3 112 -43.5 179t-126.5 67q-110 0 -151.5 -91.5t-41.5 -240.5v-149q0 -152 41 -242t152 -90z" />
    <glyph glyph-name="d" unicode="d" 
d="M77 528q0 265 88 419.5t253 154.5q71 0 124.5 -31t93.5 -90l3 1v578h201v-1560h-175l-14 115l-3 1q-41 -67 -98 -101.5t-134 -34.5q-164 0 -251.5 141.5t-87.5 385.5v21zM277 507q0 -174 44.5 -272t144.5 -98q61 0 103 33.5t70 96.5v538q-28 66 -70 102.5t-101 36.5
q-100 0 -145.5 -113t-45.5 -303v-21z" />
    <glyph glyph-name="e" unicode="e" horiz-adv-x="894" 
d="M477 -20q-183 0 -290 131.5t-107 344.5v158q0 216 106 352t276 136q180 0 273 -123.5t93 -339.5v-140h-547v-43q0 -144 52 -233.5t157 -89.5q96 0 153.5 27t99.5 77l57 -130q-49 -59 -130.5 -93t-192.5 -34zM462 946q-82 0 -129 -84t-52 -218h349v41q0 117 -41.5 189
t-126.5 72z" />
    <glyph glyph-name="f" unicode="f" horiz-adv-x="604" 
d="M181 0v937h-131v145h131v139q0 176 78 268t224 92q29 0 57.5 -5.5t64.5 -15.5l-20 -149q-16 5 -35 8t-43 3q-64 0 -94.5 -51t-30.5 -150v-139h176v-145h-176v-937h-201z" />
    <glyph glyph-name="g" unicode="g" horiz-adv-x="956" 
d="M78 584q0 238 88.5 378t254.5 140q78 0 135 -36.5t97 -104.5l3 1l14 120h173v-1077q0 -212 -103 -326.5t-294 -114.5q-69 0 -142.5 21.5t-137.5 60.5l42 141q54 -32 111 -51t118 -19q106 0 155.5 73.5t49.5 215.5v88l-3 1q-40 -57 -93.5 -86t-126.5 -29
q-164 0 -252.5 127t-88.5 344v133zM279 451q0 -146 45 -230t146 -84q62 0 103.5 32t68.5 94v546q-27 64 -69 99.5t-101 35.5q-101 0 -147 -98t-46 -262v-133z" />
    <glyph glyph-name="h" unicode="h" 
d="M311 954l3 -1q42 70 102.5 109.5t136.5 39.5q141 0 217 -105.5t76 -334.5v-662h-200v664q0 153 -39.5 216.5t-122.5 63.5q-56 0 -99.5 -33.5t-73.5 -93.5v-817h-201v1560h201v-606z" />
    <glyph glyph-name="i" unicode="i" horiz-adv-x="453" 
d="M326 0h-200v1082h200v-1082zM326 1366h-200v194h200v-194z" />
    <glyph glyph-name="j" unicode="j" horiz-adv-x="456" 
d="M334 1082v-1156q0 -177 -74 -270t-211 -93q-30 0 -52.5 4.5t-50.5 13.5l11 155q16 -6 35 -10t37 -4q49 0 77 49.5t28 154.5v1156h200zM329 1369h-200v191h200v-191z" />
    <glyph glyph-name="k" unicode="k" horiz-adv-x="889" 
d="M396 496h-82v-496h-200v1560h200v-909h81l215 431h234l-291 -488l328 -594h-233z" />
    <glyph glyph-name="l" unicode="l" horiz-adv-x="453" 
d="M326 0h-200v1560h200v-1560z" />
    <glyph glyph-name="m" unicode="m" horiz-adv-x="1455" 
d="M296 1082l11 -133l3 -1q41 74 103.5 114t149.5 40q84 0 143.5 -45.5t91.5 -141.5q41 89 106 138t156 49q133 0 207.5 -109t74.5 -340v-653h-201v654q0 164 -37 227t-112 63q-63 -1 -104.5 -48t-62.5 -125l2 -38t1 -39v-694h-201v659q0 156 -37 220.5t-113 64.5
q-58 0 -97.5 -33t-65.5 -93v-818h-201v1082h183z" />
    <glyph glyph-name="n" unicode="n" 
d="M295 1082l11 -146h3q41 79 104.5 122.5t145.5 43.5q138 0 212.5 -101.5t74.5 -324.5v-676h-201v674q0 151 -38.5 210.5t-122.5 59.5q-57 0 -100 -36t-72 -100v-808h-201v1082h184z" />
    <glyph glyph-name="o" unicode="o" 
d="M77 609q0 220 105 356.5t295 136.5q191 0 296 -136.5t105 -356.5v-138q0 -222 -104.5 -356.5t-294.5 -134.5q-192 0 -297 135t-105 356v138zM278 471q0 -152 48 -245t153 -93q102 0 150.5 93.5t48.5 244.5v138q0 150 -49 243.5t-152 93.5q-104 0 -151.5 -93.5
t-47.5 -243.5v-138z" />
    <glyph glyph-name="p" unicode="p" 
d="M878 451q0 -218 -87.5 -344.5t-250.5 -126.5q-75 0 -130 29.5t-94 86.5l-3 -1v-511h-200v1498h180l11 -115l2 -1q40 66 97 101t136 35q164 0 251.5 -139.5t87.5 -378.5v-133zM678 584q0 163 -47.5 261.5t-147.5 98.5q-62 0 -103 -36t-67 -101v-549q25 -61 66.5 -93
t105.5 -32q100 0 146.5 86t46.5 232v133z" />
    <glyph glyph-name="q" unicode="q" 
d="M77 584q0 238 88 378t253 140q75 0 130 -33.5t95 -96.5h3l14 110h174v-1498h-201v503l-3 1q-39 -54 -91.5 -81t-122.5 -27q-164 0 -251.5 126.5t-87.5 344.5v133zM277 451q0 -147 44.5 -232.5t144.5 -85.5q60 0 100 30t67 88v570q-27 60 -67 92.5t-98 32.5
q-100 0 -145.5 -99t-45.5 -263v-133z" />
    <glyph glyph-name="r" unicode="r" horiz-adv-x="613" 
d="M559 911l-93 5q-57 0 -94 -35.5t-58 -102.5v-778h-201v1082h184l13 -151h3q32 81 81.5 126t117.5 45q19 0 38.5 -3.5t32.5 -8.5z" />
    <glyph glyph-name="s" unicode="s" horiz-adv-x="859" 
d="M590 271q0 64 -37.5 106.5t-146.5 95.5q-162 66 -237.5 137.5t-75.5 191.5q0 127 93 213.5t249 86.5q162 0 256 -94t94 -242h-200q0 79 -39 133.5t-111 54.5q-71 0 -109 -42.5t-38 -101.5q0 -63 32.5 -98t146.5 -94q165 -62 242 -137.5t77 -199.5q0 -137 -95.5 -219
t-257.5 -82q-175 0 -272 100.5t-97 243.5h194q3 -107 52.5 -152.5t125.5 -45.5q74 0 114 40t40 105z" />
    <glyph glyph-name="t" unicode="t" horiz-adv-x="564" 
d="M352 1351v-269h156v-145h-156v-644q0 -86 20 -120t54 -34q20 0 37 3t34 8l21 -139q-27 -14 -64.5 -22.5t-77.5 -8.5q-109 0 -167 73.5t-58 239.5v644h-119v145h119v269h201z" />
    <glyph glyph-name="u" unicode="u" 
d="M654 138h-2q-41 -77 -103 -117.5t-144 -40.5q-142 0 -219 110.5t-77 352.5v639h200v-641q0 -170 35 -237t110 -67q70 0 116 33.5t74 97.5v814h200v-1082h-177z" />
    <glyph glyph-name="v" unicode="v" horiz-adv-x="860" 
d="M416 325l16 -86h3l17 86l169 757h207l-306 -1082h-178l-308 1082h208z" />
    <glyph glyph-name="w" unicode="w" horiz-adv-x="1252" 
d="M364 363l6 -52h3l7 51l172 720h143l172 -719l9 -69h3l10 73l125 715h192l-234 -1082h-166l-167 699l-14 79h-4l-14 -79l-165 -699h-166l-235 1082h191z" />
    <glyph glyph-name="x" unicode="x" horiz-adv-x="860" 
d="M427 680l158 402h229l-271 -534l281 -548h-228l-166 415l-165 -415h-228l280 548l-272 534h227z" />
    <glyph glyph-name="y" unicode="y" horiz-adv-x="860" 
d="M405 373l14 -65h3l193 774h220l-360 -1250q-34 -111 -95.5 -190t-181.5 -79q-26 0 -51.5 5t-55.5 13l22 150q11 -2 28.5 -4t27.5 -2q57 0 83 37.5t55 132.5l33 110l-316 1077h218z" />
    <glyph glyph-name="z" unicode="z" horiz-adv-x="835" 
d="M294 154h470v-154h-686v128l448 797h-440v157h660v-126z" />
    <glyph glyph-name="braceleft" unicode="{" horiz-adv-x="575" 
d="M498 -379q-159 56 -223.5 173.5t-64.5 290.5v212q0 114 -37.5 176t-116.5 62v146q80 0 117 60.5t37 175.5v215q0 174 64.5 291.5t223.5 173.5l40 -114q-79 -37 -110 -125.5t-31 -225.5v-215q0 -108 -37.5 -187t-116.5 -122q79 -45 116.5 -124.5t37.5 -186.5v-212
q0 -136 31.5 -224t110.5 -125z" />
    <glyph glyph-name="bar" unicode="|" horiz-adv-x="438" 
d="M287 -270h-136v1726h136v-1726z" />
    <glyph glyph-name="braceright" unicode="}" horiz-adv-x="575" 
d="M34 -264q79 37 110.5 125t31.5 224v212q0 110 39 189t123 121q-84 41 -123 120t-39 190v215q0 137 -31.5 225.5t-109.5 125.5l39 114q159 -56 224 -173t65 -292v-215q0 -115 36.5 -175.5t117.5 -60.5v-146q-80 0 -117 -62t-37 -176v-212q0 -173 -65 -290.5t-224 -173.5z
" />
    <glyph glyph-name="asciitilde" unicode="~" horiz-adv-x="1114" 
d="M1009 745q0 -144 -70 -243.5t-178 -99.5q-71 0 -127.5 33t-124.5 109q-45 51 -79 74.5t-72 23.5q-49 0 -81 -55t-32 -141l-140 20q0 144 68.5 240.5t178.5 96.5q69 0 128 -35t126 -106q43 -54 76 -76t72 -22q47 0 80.5 57.5t33.5 143.5z" />
    <glyph glyph-name="exclamdown" unicode="&#xa1;" horiz-adv-x="465" 
d="M328 -374h-201v970h201v-970zM328 869h-201v213h201v-213z" />
    <glyph glyph-name="cent" unicode="&#xa2;" horiz-adv-x="953" 
d="M490 133q72 0 123 58t47 159h188q3 -138 -77.5 -237t-203.5 -125v-233h-161v234q-155 30 -232.5 158.5t-77.5 317.5v149q0 189 78 318.5t232 160.5v225h161v-223q132 -26 208 -130t73 -265h-188q3 112 -43.5 179t-126.5 67q-110 0 -151.5 -91.5t-41.5 -240.5v-149
q0 -152 41 -242t152 -90z" />
    <glyph glyph-name="sterling" unicode="&#xa3;" horiz-adv-x="994" 
d="M410 618l5 -141q0 -95 -22.5 -178t-65.5 -145h597l-1 -154h-794v154h8q39 13 58 112t19 207l-5 145h-130v154h125l-8 264q0 210 92.5 325.5t253.5 115.5q171 0 262 -106t91 -289h-201q0 125 -42 182t-110 57q-69 0 -107 -73.5t-38 -211.5l8 -264h308v-154h-303z" />
    <glyph glyph-name="currency" unicode="&#xa4;" horiz-adv-x="1231" 
d="M924 110q-67 -64 -143.5 -97t-162.5 -33q-87 0 -163 32t-142 95l-109 -133l-115 118l122 148q-46 79 -69.5 171t-23.5 197q0 108 25 203t75 176l-129 157l115 120l120 -147q64 57 137.5 87t156.5 30t157 -30.5t138 -88.5l124 150l114 -121l-132 -160q48 -81 73 -175
t25 -201q0 -104 -23.5 -195t-67.5 -170l125 -151l-114 -119zM268 608q0 -202 101 -338.5t249 -136.5q147 0 248 136.5t101 338.5q0 200 -101 336t-248 136q-148 0 -249 -136t-101 -336z" />
    <glyph glyph-name="yen" unicode="&#xa5;" horiz-adv-x="1028" 
d="M511 828l256 628h223l-331 -730h232v-122h-282v-170h282v-120h-282v-314h-201v314h-286v120h286v170h-286v122h242l-331 730h223z" />
    <glyph glyph-name="brokenbar" unicode="&#xa6;" horiz-adv-x="433" 
d="M121 -270v784h187v-784h-187zM308 698h-187v758h187v-758z" />
    <glyph glyph-name="section" unicode="&#xa7;" horiz-adv-x="1049" 
d="M950 444q0 -95 -41 -162t-118 -108q67 -52 99 -120t32 -172q0 -175 -108.5 -270.5t-298.5 -95.5q-186 0 -308 100t-122 328l200 2q0 -147 66 -211t164 -64q99 0 153 57.5t54 151.5q0 91 -52 140.5t-203 108.5q-199 65 -289.5 153.5t-90.5 263.5q0 93 39.5 161t116.5 110
q-65 51 -96 120t-31 172q0 170 108.5 269t298.5 99q196 0 302.5 -110t106.5 -320h-199q0 120 -54.5 197t-155.5 77q-105 0 -156 -58t-51 -152q0 -99 48 -147.5t205 -106.5q202 -67 291.5 -153.5t89.5 -259.5zM495 697q-32 9 -60 19.5t-55 22.5q-48 -23 -70 -70t-22 -113
q0 -103 47.5 -153t204.5 -111q31 -11 57 -20.5t52 -19.5q49 22 75.5 69.5t26.5 112.5q0 94 -52.5 147t-203.5 116z" />
    <glyph glyph-name="dieresis" unicode="&#xa8;" horiz-adv-x="907" 
d="M757 1271h-202v185h202v-185zM349 1271h-201v185h201v-185z" />
    <glyph glyph-name="copyright" unicode="&#xa9;" horiz-adv-x="1374" 
d="M951 596q0 -158 -73 -236t-207 -78q-137 0 -214.5 104.5t-77.5 282.5v119q0 176 77.5 281.5t214.5 105.5q134 0 207.5 -79t73.5 -235h-127q0 104 -38 151t-116 47q-82 0 -124.5 -74t-42.5 -196v-120q0 -126 42.5 -199t124.5 -73q78 0 115.5 46t37.5 153h127zM186 729
q0 -276 142.5 -459.5t353.5 -183.5q210 0 353 183.5t143 459.5q0 274 -143 456t-353 182q-211 0 -353.5 -182t-142.5 -456zM87 729q0 321 170.5 534t424.5 213q252 0 424 -213t172 -534q0 -322 -172 -536t-424 -214q-253 0 -424 213.5t-171 536.5z" />
    <glyph glyph-name="ordfeminine" unicode="&#xaa;" horiz-adv-x="758" 
d="M501 706q-7 22 -11.5 46.5t-6.5 48.5h-2q-26 -48 -69.5 -78.5t-106.5 -30.5q-97 0 -148.5 60t-51.5 168q0 110 67 168t200 58h109v56q0 73 -23 111t-70 38q-55 0 -83.5 -30.5t-28.5 -89.5l-138 13q0 104 67.5 168.5t182.5 64.5q109 0 171.5 -70t62.5 -206v-314
q0 -53 4 -96t16 -85h-141zM340 814q41 0 83.5 32t57.5 73v124h-109q-62 0 -95 -34t-33 -85q0 -54 23 -82t73 -28z" />
    <glyph glyph-name="guillemotleft" unicode="&#xab;" horiz-adv-x="827" 
d="M247 517l198 -394h-137l-230 385v19l230 384h137zM542 517l198 -394h-137l-230 385v19l230 384h137z" />
    <glyph glyph-name="logicalnot" unicode="&#xac;" horiz-adv-x="934" 
d="M785 378h-160v271h-511v143h671v-414z" />
    <glyph glyph-name="registered" unicode="&#xae;" horiz-adv-x="1374" 
d="M86 729q0 321 171 534t425 213q252 0 424 -213t172 -534q0 -322 -172 -536t-424 -214q-253 0 -424.5 213.5t-171.5 536.5zM186 729q0 -276 142.5 -459.5t353.5 -183.5q209 0 352 183.5t143 459.5q0 273 -143 455.5t-352 182.5q-211 0 -353.5 -182t-142.5 -456zM560 660
v-344h-123v850h234q129 0 200.5 -64.5t71.5 -190.5q0 -64 -27.5 -110t-82.5 -77q56 -27 81 -80t25 -129v-56q0 -43 3 -74.5t12 -52.5v-16h-127q-8 22 -9.5 61.5t-1.5 82.5v54q0 78 -27.5 112t-93.5 34h-135zM560 776h121q60 0 99.5 34t39.5 98q0 79 -32.5 111t-116.5 32
h-111v-275z" />
    <glyph glyph-name="macron" unicode="&#xaf;" horiz-adv-x="851" 
d="M732 1324h-607v132h607v-132z" />
    <glyph glyph-name="macron" unicode="&#x2c9;" horiz-adv-x="851" 
d="M732 1324h-607v132h607v-132z" />
    <glyph glyph-name="degree" unicode="&#xb0;" horiz-adv-x="680" 
d="M119 1216q0 108 64.5 184.5t157.5 76.5q91 0 155 -76.5t64 -184.5q0 -110 -63.5 -183.5t-155.5 -73.5q-94 0 -158 73.5t-64 183.5zM234 1216q0 -60 31 -99t76 -39t75 38.5t30 99.5t-30 101t-75 40t-76 -40t-31 -101z" />
    <glyph glyph-name="plusminus" unicode="&#xb1;" horiz-adv-x="946" 
d="M570 873h289v-157h-289v-414h-179v414h-301v157h301v407h179v-407zM789 21h-672v155h672v-155z" />
    <glyph glyph-name="twosuperior" unicode="&#xb2;" horiz-adv-x="720" 
d="M598 667h-489v121l246 267q52 61 67.5 99t15.5 84q0 54 -20.5 86t-64.5 32q-49 0 -74 -34.5t-25 -91.5h-155q0 107 69 178t187 71q115 0 176.5 -62t61.5 -180q0 -80 -41 -141t-136 -159l-116 -149h298v-121z" />
    <glyph glyph-name="threesuperior" unicode="&#xb3;" horiz-adv-x="721" 
d="M347 1130q53 0 77 29.5t24 85.5q0 49 -25 79.5t-75 30.5q-44 0 -68.5 -27t-24.5 -73h-155q0 103 69 163t177 60q122 0 190 -58t68 -170q0 -57 -28.5 -102.5t-80.5 -71.5q59 -24 89.5 -70.5t30.5 -117.5q0 -113 -71 -173t-194 -60q-113 0 -187 58.5t-74 177.5h155
q0 -53 27.5 -84t77.5 -31q52 0 81 30.5t29 85.5q0 65 -27.5 95t-84.5 30h-97v113h97z" />
    <glyph glyph-name="acute" unicode="&#xb4;" horiz-adv-x="600" 
d="M273 1478h230l-234 -266h-158z" />
    <glyph glyph-name="mu" unicode="&#xb5;" horiz-adv-x="1004" 
d="M329 1082v-626q0 -189 39 -255.5t117 -66.5q70 0 113.5 34.5t67.5 102.5v811h200v-1082h-184l-6 79l-3 1q-34 -50 -81 -75.5t-107 -25.5q-50 0 -88 14t-68 47v-456h-200v1498h200z" />
    <glyph glyph-name="paragraph" unicode="&#xb6;" horiz-adv-x="865" 
d="M525 0v520h-67q-191 0 -293.5 127.5t-102.5 340.5q0 211 102.5 339.5t293.5 128.5h267v-1456h-200z" />
    <glyph glyph-name="periodcentered" unicode="&#xb7;" horiz-adv-x="493" 
d="M341 606h-200v214h200v-214z" />
    <glyph glyph-name="cedilla" unicode="&#xb8;" horiz-adv-x="451" 
d="M271 2l-9 -58q52 -10 86.5 -50t34.5 -122q0 -100 -68 -157t-198 -57l-6 113q49 0 78.5 24.5t29.5 76.5q0 51 -26.5 70t-93.5 26l25 134h147z" />
    <glyph glyph-name="onesuperior" unicode="&#xb9;" horiz-adv-x="480" 
d="M351 665h-155v666l-103 -3v126l258 23v-812z" />
    <glyph glyph-name="ordmasculine" unicode="&#xba;" horiz-adv-x="777" 
d="M108 1142q0 151 74 243t203 92q130 0 204.5 -92t74.5 -243v-117q0 -152 -74 -243t-203 -91q-130 0 -204.5 91t-74.5 243v117zM247 1025q0 -96 35 -153.5t105 -57.5q67 0 102 57.5t35 153.5v117q0 94 -35 151.5t-104 57.5t-103.5 -57.5t-34.5 -151.5v-117z" />
    <glyph glyph-name="guillemotright" unicode="&#xbb;" horiz-adv-x="827" 
d="M221 946l230 -386v-19l-230 -386h-137l197 395l-197 396h137zM525 946l230 -386v-19l-230 -386h-137l197 395l-197 396h137z" />
    <glyph glyph-name="onequarter" unicode="&#xbc;" horiz-adv-x="1262" 
d="M390 664h-155v666l-103 -3v126l258 23v-812zM346 121l-102 63l572 1138l102 -63zM1106 277h90v-122h-90v-155h-155v155h-332l-9 95l340 551h156v-524zM772 277h179v323l-3 1l-12 -21z" />
    <glyph glyph-name="onehalf" unicode="&#xbd;" horiz-adv-x="1330" 
d="M350 121l-102 63l572 1138l102 -63zM383 664h-155v666l-103 -3v126l258 23v-812zM1211 0h-489v121l246 267q52 61 67.5 99t15.5 84q0 54 -20.5 86t-64.5 32q-49 0 -74 -34.5t-25 -91.5h-155q0 107 69 178t187 71q115 0 176.5 -62t61.5 -180q0 -80 -41 -141t-136 -159
l-116 -149h298v-121z" />
    <glyph glyph-name="threequarters" unicode="&#xbe;" horiz-adv-x="1424" 
d="M508 121l-102 63l572 1138l102 -63zM1257 277h90v-122h-90v-155h-155v155h-332l-9 95l340 551h156v-524zM923 277h179v323l-3 1l-12 -21zM349 1131q53 0 77 29.5t24 85.5q0 49 -25 79.5t-75 30.5q-44 0 -68.5 -27t-24.5 -73h-155q0 103 69 163t177 60q122 0 190 -58
t68 -170q0 -57 -28.5 -102.5t-80.5 -71.5q59 -24 89.5 -70.5t30.5 -117.5q0 -113 -71 -173t-194 -60q-113 0 -187 58.5t-74 177.5h155q0 -53 27.5 -84t77.5 -31q52 0 81 30.5t29 85.5q0 65 -27.5 95t-84.5 30h-97v113h97z" />
    <glyph glyph-name="questiondown" unicode="&#xbf;" horiz-adv-x="849" 
d="M567 673q-2 -136 -27.5 -191.5t-116.5 -150.5q-69 -93 -102.5 -163t-33.5 -168q0 -113 41 -173t121 -60q65 0 110.5 55.5t47.5 157.5h200q-3 -180 -101.5 -277t-256.5 -97q-175 0 -268.5 102.5t-93.5 288.5q0 130 55.5 233.5t152.5 209.5q47 51 59 96.5t12 136.5h201z
M363 1082h204v-199h-204v199z" />
    <glyph glyph-name="AE" unicode="&#xc6;" horiz-adv-x="1571" 
d="M1520 0h-720l-12 361h-389l-155 -361h-239l666 1456h800v-157h-516l16 -467h434v-155h-429l17 -522h527v-155zM472 531h310l-23 661l-3 1z" />
    <glyph glyph-name="multiply" unicode="&#xd7;" horiz-adv-x="939" 
d="M75 344l279 338l-277 337l123 119l264 -322l265 322l123 -119l-277 -337l278 -338l-122 -119l-266 323l-266 -323z" />
    <glyph glyph-name="Oslash" unicode="&#xd8;" horiz-adv-x="1152" 
d="M1040 527q0 -264 -126 -406t-345 -142q-71 0 -130.5 15.5t-112.5 48.5l-63 -133h-118l97 204q-67 72 -100.5 174.5t-33.5 238.5v400q0 263 122.5 406.5t337.5 143.5q83 0 152.5 -22t128.5 -66l58 123h118l-96 -202q55 -73 83 -167.5t28 -215.5v-400zM309 527
q0 -64 7 -116.5t22 -95.5l430 904q-36 49 -85.5 73.5t-114.5 24.5q-128 0 -193.5 -97t-65.5 -290v-403zM839 930q0 45 -4 83.5t-11 70.5h-3l-419 -881q32 -34 73 -50t94 -16q133 0 201.5 97t68.5 293v403z" />
    <glyph glyph-name="Thorn" unicode="&#xde;" horiz-adv-x="1012" 
d="M330 1456v-290h195q200 0 307.5 -117t107.5 -311q0 -196 -107.5 -312.5t-307.5 -116.5h-195v-309h-201v1456h201zM330 1011v-547h195q109 0 162 78t53 194t-53 195.5t-162 79.5h-195z" />
    <glyph glyph-name="germandbls" unicode="&#xdf;" horiz-adv-x="1038" 
d="M321 0h-200v1088q0 220 98 337.5t266 117.5q140 0 228 -85t88 -248q0 -114 -46.5 -216.5t-46.5 -172.5q0 -78 128.5 -217.5t128.5 -283.5q0 -173 -87 -256.5t-250 -83.5q-66 0 -132.5 20t-98.5 50l40 154q32 -28 80.5 -49.5t100.5 -21.5q75 0 111.5 48t36.5 132
q0 87 -129.5 225t-129.5 281q0 90 50 194.5t50 184.5q0 87 -38 139t-89 52q-73 0 -116 -78t-43 -225v-1086z" />
    <glyph glyph-name="ae" unicode="&#xe6;" horiz-adv-x="1415" 
d="M1019 -21q-109 0 -189.5 43.5t-135.5 128.5q-49 -76 -132 -124t-203 -48q-149 0 -227.5 85.5t-78.5 239.5q0 161 96.5 247.5t286.5 86.5h163v78q0 111 -36 170.5t-106 59.5q-75 0 -116.5 -53.5t-41.5 -135.5l-200 17q0 146 97 237t262 91q88 0 155.5 -31.5t113.5 -94.5
q52 62 117.5 94t147.5 32q175 0 268.5 -126t93.5 -353v-124h-551q1 -169 56 -267.5t174 -98.5q81 0 132.5 26t111.5 77l59 -132q-47 -49 -127.5 -87t-189.5 -38zM398 127q54 0 111 38t90 90v246h-162q-88 0 -135.5 -57.5t-47.5 -143.5q0 -81 35 -127t109 -46zM992 946
q-86 0 -132 -82.5t-55 -224.5h351v30q0 126 -39.5 201.5t-124.5 75.5z" />
    <glyph glyph-name="eth" unicode="&#xf0;" horiz-adv-x="997" 
d="M708 1292q95 -123 145 -285t50 -370v-87q0 -256 -120 -413.5t-306 -157.5q-188 0 -303 136.5t-115 346.5q0 235 107.5 370.5t291.5 135.5q65 0 121 -25.5t100 -70.5l3 1q-17 95 -49 171.5t-77 140.5l-205 -144l-62 94l190 134q-32 28 -65.5 50t-71.5 41l63 157
q63 -24 119 -59t107 -82l184 129l62 -94zM702 639q0 7 -0.5 21.5t-0.5 22.5q-29 58 -85.5 96t-137.5 38q-103 0 -161 -99.5t-58 -255.5q0 -135 59 -231.5t162 -96.5q102 0 162 115t60 301v89z" />
    <glyph glyph-name="divide" unicode="&#xf7;" horiz-adv-x="964" 
d="M881 608h-815v171h815v-171zM574 995h-201v195h201v-195zM574 188h-201v195h201v-195z" />
    <glyph glyph-name="oslash" unicode="&#xf8;" horiz-adv-x="958" 
d="M77 609q0 220 105 356.5t295 136.5q43 0 82 -8.5t76 -23.5l57 143h118l-81 -205q73 -67 111 -169t38 -230v-138q0 -222 -104.5 -356.5t-294.5 -134.5q-41 0 -76.5 6.5t-68.5 19.5l-57 -145h-118l79 201q-80 66 -120.5 170t-40.5 239v138zM278 471q0 -64 8.5 -118.5
t27.5 -97.5l260 660q-21 15 -45 23t-52 8q-104 0 -151.5 -93.5t-47.5 -243.5v-138zM678 609q0 56 -7.5 105t-21.5 91l-256 -649q18 -12 39 -17.5t47 -5.5q102 0 150.5 93.5t48.5 244.5v138z" />
    <glyph glyph-name="thorn" unicode="&#xfe;" horiz-adv-x="968" 
d="M883 451q0 -218 -87.5 -344.5t-250.5 -126.5q-75 0 -130 29.5t-94 86.5l-3 -1v-511h-200v1976h200v-580l3 -1q38 60 93 91.5t130 31.5q164 0 251.5 -139.5t87.5 -378.5v-133zM683 584q0 163 -47.5 261.5t-147.5 98.5q-62 0 -103 -36t-67 -101v-549q25 -61 66.5 -93
t105.5 -32q100 0 146.5 86t46.5 232v133z" />
    <glyph glyph-name="Hbar" unicode="&#x126;" horiz-adv-x="1185" 
d="M1055 1159h108v-133h-108v-1026h-201v642h-517v-642h-201v1026h-105v133h105v297h201v-297h517v297h201v-297zM337 797h517v229h-517v-229z" />
    <glyph glyph-name="dotlessi" unicode="&#x131;" horiz-adv-x="459" 
d="M326 0h-200v1082h200v-1082z" />
    <glyph glyph-name="kgreenlandic" unicode="&#x138;" horiz-adv-x="973" 
d="M407 457h-82v-457h-200v1082h200v-453h69l263 453h250l-343 -504l361 -578h-254z" />
    <glyph glyph-name="Lslash" unicode="&#x141;" horiz-adv-x="874" 
d="M327 854l206 77v-151l-206 -77v-549h535v-154h-736v628l-93 -35v151l93 35v677h201v-602z" />
    <glyph glyph-name="lslash" unicode="&#x142;" horiz-adv-x="489" 
d="M343 885l117 52v-151l-117 -52v-734h-200v647l-110 -48v151l110 48v762h200v-675z" />
    <glyph glyph-name="Eng" unicode="&#x14a;" horiz-adv-x="1173" 
d="M1047 1456v-1530q0 -177 -74.5 -270t-211.5 -93q-30 0 -53.5 4.5t-51.5 13.5l12 151q15 -5 37.5 -9t41.5 -4q48 0 74 53.5t26 153.5v74l-515 1060l-3 -1v-1059h-200v1456h200l515 -1061l3 1v1060h200z" />
    <glyph glyph-name="eng" unicode="&#x14b;" 
d="M295 1082l10 -147l3 -1q42 80 104.5 124t143.5 44q137 0 211.5 -104t74.5 -332v-740q0 -177 -74.5 -270t-211.5 -93q-30 0 -54 4.5t-51 13.5l11 157q15 -6 38.5 -10t41.5 -4q48 0 73.5 51.5t25.5 150.5v739q0 156 -37.5 217.5t-117.5 61.5q-61 0 -104 -32t-71 -91v-821
h-200v1082h184z" />
    <glyph glyph-name="OE" unicode="&#x152;" horiz-adv-x="1611" 
d="M1525 0h-729q-77 -10 -127 -15.5t-105 -5.5q-214 0 -342.5 163t-128.5 434v304q0 270 127.5 433.5t341.5 163.5q57 0 113 -6t121 -15h724v-156h-585v-469h508v-155h-508v-522h590v-154zM564 134q43 0 84.5 3t85.5 10v1161q-42 6 -84.5 10t-87.5 4q-128 0 -198 -113
t-70 -327v-306q0 -214 70.5 -328t199.5 -114z" />
    <glyph glyph-name="oe" unicode="&#x153;" horiz-adv-x="1512" 
d="M84 553q0 246 105 397.5t295 151.5q100 0 176 -44t130 -127q53 83 125.5 127t161.5 44q180 0 272.5 -127t92.5 -350v-126h-547q2 -165 56.5 -265.5t161.5 -100.5q82 0 136.5 26t107.5 78l63 -126q-50 -59 -130 -95.5t-190 -36.5q-101 0 -178.5 43t-131.5 126
q-54 -83 -130 -126t-175 -43q-191 0 -296 150t-105 397v27zM284 526q0 -176 48.5 -284.5t152.5 -108.5q103 0 151.5 108.5t48.5 284.5v27q0 174 -48.5 283.5t-152.5 109.5t-152 -109.5t-48 -283.5v-27zM1077 946q-76 0 -122 -82.5t-57 -219.5h345v28q0 123 -41 198.5
t-125 75.5z" />
    <glyph glyph-name="longs" unicode="&#x17f;" horiz-adv-x="446" 
d="M120 0v1221q0 175 78.5 267.5t223.5 92.5q29 0 58 -5.5t65 -15.5l-20 -146q-18 5 -35.5 8t-38.5 3q-64 0 -97 -52.5t-33 -151.5v-1221h-201z" />
    <glyph glyph-name="florin" unicode="&#x192;" horiz-adv-x="605" 
d="M534 937h-162l-1 -1011q0 -177 -74.5 -270t-211.5 -93q-30 0 -53.5 4.5t-48.5 13.5l12 151q13 -5 35.5 -9t41.5 -4q48 0 73.5 53.5t25.5 153.5v1011h-132v145h132v139q0 176 78 268t223 92q29 0 58 -5.5t66 -15.5l-20 -149q-17 5 -36 8t-42 3q-65 0 -95.5 -51t-30.5 -150
v-139h162v-145z" />
    <glyph glyph-name="Ohorn" unicode="&#x1a0;" horiz-adv-x="1167" 
d="M1038 527q0 -264 -126 -406t-345 -142q-216 0 -338.5 142t-122.5 406v400q0 263 122.5 406.5t337.5 143.5q119 0 210.5 -44t155.5 -130q55 20 78.5 86.5t23.5 185.5h151q0 -160 -47 -256.5t-144 -131.5q21 -58 32.5 -122t11.5 -138v-400zM837 930q0 193 -69 290t-202 97
q-128 0 -193.5 -97t-65.5 -290v-403q0 -196 65.5 -293t194.5 -97q133 0 201.5 97t68.5 293v403z" />
    <glyph glyph-name="ohorn" unicode="&#x1a1;" horiz-adv-x="976" 
d="M76 609q0 220 105 356.5t295 136.5q95 0 168.5 -36.5t127.5 -104.5q46 21 62.5 77t16.5 157h135q0 -135 -37 -217t-120 -115q23 -57 35.5 -120t12.5 -134v-138q0 -222 -104.5 -356.5t-294.5 -134.5q-192 0 -297 135t-105 356v138zM277 471q0 -152 48 -245t153 -93
q102 0 150.5 93.5t48.5 244.5v138q0 150 -49 243.5t-152 93.5q-104 0 -151.5 -93.5t-47.5 -243.5v-138z" />
    <glyph glyph-name="Uhorn" unicode="&#x1af;" horiz-adv-x="1188" 
d="M1002 1456v-211q95 12 126.5 84t31.5 222h151q0 -208 -71 -314.5t-238 -117.5v-672q0 -231 -122 -349.5t-326 -118.5q-201 0 -320.5 118.5t-119.5 349.5v1009h198v-1009q0 -159 64.5 -236.5t177.5 -77.5q118 0 183 74.5t65 239.5v1009h200z" />
    <glyph glyph-name="uhorn" unicode="&#x1b0;" horiz-adv-x="1040" 
d="M1076 1175q0 -161 -51 -240.5t-181 -93.5v-841h-177l-13 138h-2q-41 -77 -103 -117.5t-144 -40.5q-142 0 -219 110.5t-77 352.5v639h200v-641q0 -170 35 -237t110 -67q70 0 116 33.5t74 97.5v814h200v-136q67 14 86.5 65t19.5 164h126z" />
    <glyph glyph-name="uni0237" unicode="&#x237;" horiz-adv-x="469" 
d="M340 1082v-1156q0 -177 -74.5 -270t-211.5 -93q-30 0 -52.5 4.5t-49.5 13.5l11 151q15 -5 37 -9t40 -4q48 0 74 53.5t26 153.5v1156h200z" />
    <glyph glyph-name="schwa" unicode="&#x259;" horiz-adv-x="896" 
d="M424 1103q188 0 296.5 -147.5t108.5 -386.5v-47q0 -242 -107 -392t-276 -149q-181 0 -272.5 125.5t-91.5 349.5v125h548q-3 163 -58.5 265t-161.5 102q-82 0 -137 -26.5t-106 -77.5l-64 126q49 58 129.5 95.5t191.5 37.5zM446 134q75 0 121.5 82.5t58.5 220.5h-346v-27
q0 -125 40 -200.5t126 -75.5z" />
    <glyph glyph-name="circumflex" unicode="&#x2c6;" horiz-adv-x="829" 
d="M683 1274v-22h-154l-122 155l-120 -155h-153v23l214 232h118z" />
    <glyph glyph-name="caron" unicode="&#x2c7;" horiz-adv-x="785" 
d="M388 1355l111 154h172v-17l-217 -240h-131l-216 239v18h169z" />
    <glyph glyph-name="breve" unicode="&#x2d8;" horiz-adv-x="774" 
d="M655 1456q0 -125 -73 -198.5t-200 -73.5t-199.5 73.5t-72.5 198.5h151q0 -70 28.5 -112t92.5 -42q63 0 92 42.5t29 111.5h152z" />
    <glyph glyph-name="dotaccent" unicode="&#x2d9;" horiz-adv-x="503" 
d="M348 1259h-213v200h213v-200z" />
    <glyph glyph-name="ring" unicode="&#x2da;" horiz-adv-x="601" 
d="M124 1311q0 79 50 131.5t125 52.5q73 0 122 -52.5t49 -131.5q0 -81 -49 -131t-122 -50q-75 0 -125 50t-50 131zM215 1311q0 -42 24 -69t60 -27t58.5 26.5t22.5 69.5q0 44 -22.5 71.5t-58.5 27.5t-60 -28t-24 -71z" />
    <glyph glyph-name="ogonek" unicode="&#x2db;" horiz-adv-x="501" 
d="M331 0q-64 -52 -96 -102t-32 -111q0 -36 12.5 -56t43.5 -20q21 0 37.5 8t32.5 20l19 -117q-26 -19 -57.5 -31.5t-75.5 -12.5q-77 0 -124 48.5t-47 139.5q0 82 49 154.5t154 128.5z" />
    <glyph glyph-name="tilde" unicode="&#x2dc;" horiz-adv-x="814" 
d="M696 1484q0 -94 -47 -156t-122 -62q-58 0 -123.5 49t-107.5 49q-32 0 -53 -33t-21 -83l-108 28q0 93 46.5 156.5t121.5 63.5q46 0 117.5 -49.5t113.5 -49.5q32 0 53.5 33.5t21.5 84.5z" />
    <glyph glyph-name="hungarumlaut" unicode="&#x2dd;" horiz-adv-x="687" 
d="M557 1518h206l-239 -266h-165zM267 1518h198l-197 -266h-155z" />
    <glyph glyph-name="uni02F3" unicode="&#x2f3;" horiz-adv-x="561" 
d="M148 -228q0 64 39.5 106t98.5 42q57 0 95.5 -41.5t38.5 -106.5q0 -64 -38 -104t-96 -40q-60 0 -99 40t-39 104zM230 -228q0 -28 16 -46.5t40 -18.5q23 0 37.5 18.5t14.5 46.5q0 30 -15 49t-37 19q-24 0 -40 -19t-16 -49z" />
    <glyph glyph-name="gravecomb" unicode="&#x300;" horiz-adv-x="25" 
d="M-359 1207h-126l-147 325h170z" />
    <glyph glyph-name="acutecomb" unicode="&#x301;" horiz-adv-x="25" 
d="M-463 1535h168l-153 -325h-120z" />
    <glyph glyph-name="tildecomb" unicode="&#x303;" horiz-adv-x="25" 
d="M-134 1484q0 -94 -47 -156t-122 -62q-58 0 -123.5 49t-107.5 49q-32 0 -53 -33t-21 -83l-108 28q0 93 46.5 156.5t121.5 63.5q46 0 117.5 -49.5t113.5 -49.5q32 0 53.5 33.5t21.5 84.5z" />
    <glyph glyph-name="hook" unicode="&#x309;" horiz-adv-x="25" 
d="M-543 1245l-7 137q63 5 88 22t25 57q0 44 -31.5 63t-89.5 19l5 103q138 0 208.5 -48.5t70.5 -135.5q0 -70 -34.5 -107t-86.5 -45v-65h-148z" />
    <glyph glyph-name="uni030F" unicode="&#x30f;" horiz-adv-x="25" 
d="M-394 1252h-170l-240 266h213zM-147 1252h-161l-197 266h203z" />
    <glyph glyph-name="dotbelow" unicode="&#x323;" horiz-adv-x="25" 
d="M-356 -333h-224v200h224v-200z" />
    <glyph glyph-name="tonos" unicode="&#x384;" horiz-adv-x="522" 
d="M244 1633h197l-156 -356h-97z" />
    <glyph glyph-name="dieresistonos" unicode="&#x385;" horiz-adv-x="900" 
d="M748 1274h-177v182h177v-182zM315 1274h-177v182h177v-182zM412 1684h203l-123 -278h-117z" />
    <glyph glyph-name="anoteleia" unicode="&#x387;" horiz-adv-x="494" 
d="M341 606h-200v214h200v-214z" />
    <glyph glyph-name="Gamma" unicode="&#x393;" horiz-adv-x="941" 
d="M880 1300h-542v-1300h-201v1456h743v-156z" />
    <glyph glyph-name="Delta" unicode="&#x394;" horiz-adv-x="1208" 
d="M514 1456h193l461 -1456h-1135zM289 154h625l-304 1000h-3z" />
    <glyph glyph-name="Delta" unicode="&#x2206;" horiz-adv-x="1208" 
d="M514 1456h193l461 -1456h-1135zM289 154h625l-304 1000h-3z" />
    <glyph glyph-name="Theta" unicode="&#x398;" horiz-adv-x="1154" 
d="M758 652h-353v154h353v-154zM1037 527q0 -264 -126 -406t-345 -142q-216 0 -338.5 142t-122.5 406v400q0 263 122.5 406.5t337.5 143.5q219 0 345.5 -143.5t126.5 -406.5v-400zM836 930q0 193 -69 290t-202 97q-128 0 -193.5 -97t-65.5 -290v-403q0 -196 65.5 -293
t194.5 -97q133 0 201.5 97t68.5 293v403z" />
    <glyph glyph-name="Lambda" unicode="&#x39b;" horiz-adv-x="1098" 
d="M549 1183h-4l-299 -1183h-207l411 1456h194l411 -1456h-207z" />
    <glyph glyph-name="Xi" unicode="&#x39e;" horiz-adv-x="964" 
d="M100 154h772v-154h-772v154zM179 817h610v-152h-610v152zM110 1456h740v-155h-740v155z" />
    <glyph glyph-name="Pi" unicode="&#x3a0;" horiz-adv-x="1195" 
d="M1056 0h-199v1300h-519v-1300h-201v1456h919v-1456z" />
    <glyph glyph-name="Sigma" unicode="&#x3a3;" horiz-adv-x="964" 
d="M650 729l-347 -575h594v-154h-828v126l369 615l-369 588v127h799v-155h-561l343 -545v-27z" />
    <glyph glyph-name="Phi" unicode="&#x3a6;" horiz-adv-x="1249" 
d="M727 1273q200 -4 326.5 -155t126.5 -392q0 -242 -126.5 -393t-326.5 -154v-179h-200v179q-202 2 -328 152t-126 393q0 242 126 393.5t328 155.5v183h200v-183zM270 724q0 -180 66.5 -282t190.5 -104v776q-124 -4 -190.5 -107.5t-66.5 -282.5zM982 726q0 177 -67.5 280
t-187.5 107v-775q120 3 187.5 106.5t67.5 281.5z" />
    <glyph glyph-name="Psi" unicode="&#x3a8;" horiz-adv-x="1192" 
d="M689 538q108 25 165.5 128t57.5 279v511h201v-511q0 -251 -113.5 -396t-310.5 -170v-379h-200v379q-197 22 -309.5 167.5t-112.5 398.5v511h201v-511q0 -172 57.5 -275.5t163.5 -130.5v917h200v-918z" />
    <glyph glyph-name="Omega" unicode="&#x3a9;" horiz-adv-x="1127" 
d="M603 164q94 36 144.5 175t50.5 398v111q0 227 -64 349.5t-180 122.5q-115 0 -178.5 -122.5t-63.5 -349.5v-111q0 -260 51.5 -399t149.5 -174v-164h-403v155h215q-105 94 -165.5 245.5t-60.5 336.5v109q0 286 124 458.5t331 172.5t332.5 -172.5t125.5 -458.5v-109
q0 -184 -60.5 -335.5t-163.5 -246.5h218v-155h-403v164z" />
    <glyph glyph-name="Omega" unicode="&#x2126;" horiz-adv-x="1127" 
d="M603 164q94 36 144.5 175t50.5 398v111q0 227 -64 349.5t-180 122.5q-115 0 -178.5 -122.5t-63.5 -349.5v-111q0 -260 51.5 -399t149.5 -174v-164h-403v155h215q-105 94 -165.5 245.5t-60.5 336.5v109q0 286 124 458.5t331 172.5t332.5 -172.5t125.5 -458.5v-109
q0 -184 -60.5 -335.5t-163.5 -246.5h218v-155h-403v164z" />
    <glyph glyph-name="alpha" unicode="&#x3b1;" horiz-adv-x="954" 
d="M834 1081v-779q0 -91 15 -125.5t44 -34.5q6 0 11 1.5t10 4.5l19 -142q-25 -15 -48 -21t-53 -6q-69 0 -113 35.5t-66 114.5q-41 -75 -98 -112.5t-136 -37.5q-164 0 -251.5 142t-87.5 386v21q0 265 87.5 419.5t253.5 154.5q75 0 129.5 -35.5t93.5 -103.5l3 1l14 117h173z
M280 507q0 -175 44 -274.5t145 -99.5q59 0 98.5 36t65.5 105v28v492q-27 72 -66.5 112t-95.5 40q-100 0 -145.5 -114t-45.5 -304v-21z" />
    <glyph glyph-name="beta" unicode="&#x3b2;" horiz-adv-x="1008" 
d="M509 1476q168 0 265.5 -105t97.5 -285q0 -99 -42 -178.5t-119 -126.5q103 -44 158 -139.5t55 -228.5q0 -209 -97 -321t-265 -112q-63 0 -122 19t-108 59v-453h-201v1452q0 182 109 300.5t269 118.5zM506 845q87 0 126.5 61t39.5 177q0 99 -42.5 168.5t-120.5 69.5
t-127.5 -73.5t-49.5 -190.5v-836q33 -43 81.5 -65.5t111.5 -22.5q94 0 146 75t52 203q0 125 -47 204.5t-134 79.5h-95v150h59z" />
    <glyph glyph-name="gamma" unicode="&#x3b3;" horiz-adv-x="860" 
d="M621 1082h207l-296 -1047v-451h-200v458l-296 1040h208l172 -757l16 -86h3l17 86z" />
    <glyph glyph-name="delta" unicode="&#x3b4;" 
d="M177 1271q0 138 85.5 216.5t240.5 78.5q63 0 123.5 -21t124.5 -62l-35 -131q-40 24 -96 42t-113 18q-65 0 -100 -36t-35 -101q0 -56 30.5 -101t118.5 -84q181 -72 271 -211.5t90 -342.5v-26q0 -239 -105.5 -384.5t-295.5 -145.5q-191 0 -297.5 144.5t-106.5 381.5v26
q0 181 71 304.5t182 154.5l3 11q-75 44 -115.5 113t-40.5 156zM278 514q0 -170 50 -275.5t153 -105.5q101 0 151.5 106t50.5 275v26q0 139 -55 245.5t-146 131.5q-102 0 -153 -107t-51 -270v-26z" />
    <glyph glyph-name="epsilon" unicode="&#x3b5;" horiz-adv-x="927" 
d="M90 302q0 95 43 158.5t127 95.5q-75 35 -115 96t-40 137q0 151 99 231t272 80q154 0 257 -86.5t103 -232.5h-200q0 75 -47 122t-120 47q-84 0 -124 -47t-40 -120q0 -77 39 -119t121 -42h158v-141h-158q-88 0 -131.5 -42t-43.5 -132q0 -79 46.5 -128.5t132.5 -49.5
q83 0 131.5 53t48.5 134h201q0 -166 -110 -250.5t-264 -84.5q-174 0 -280 84.5t-106 236.5z" />
    <glyph glyph-name="zeta" unicode="&#x3b6;" horiz-adv-x="864" 
d="M791 1456v-116l-283 -458q-96 -156 -136 -261t-40 -233q0 -98 28 -146.5t94 -73.5l84 -32q123 -42 173 -81t50 -141q-1 -81 -52.5 -166.5t-114.5 -133.5l-103 81q38 47 56 93t18 94q0 40 -23.5 65t-80.5 44l-65 21q-146 49 -205 129t-59 232q0 127 53.5 272t169.5 320
l222 336h-490v155h704z" />
    <glyph glyph-name="eta" unicode="&#x3b7;" 
d="M295 1082l11 -147h3q41 79 103.5 123t143.5 44q139 0 212.5 -101t73.5 -335v-1081h-201v1080q0 156 -37.5 218.5t-117.5 62.5q-60 0 -102.5 -31.5t-71.5 -90.5v-824h-201v1082h184z" />
    <glyph glyph-name="theta" unicode="&#x3b8;" horiz-adv-x="981" 
d="M876 563q0 -288 -102 -436t-283 -148t-283.5 148t-102.5 436v329q0 287 101.5 436t282.5 149q182 0 284.5 -149t102.5 -436v-329zM305 803h370v118q0 202 -47 301t-139 99q-91 0 -137.5 -99.5t-46.5 -300.5v-118zM675 651h-370v-116q0 -202 47.5 -302t138.5 -100
t137.5 99.5t46.5 302.5v116z" />
    <glyph glyph-name="iota" unicode="&#x3b9;" horiz-adv-x="568" 
d="M345 1081v-795q0 -86 19 -118t56 -32q22 0 37.5 4.5t38.5 15.5l30 -138q-38 -23 -72 -31t-79 -8q-115 0 -173 73.5t-58 240.5v788h201z" />
    <glyph glyph-name="lambda" unicode="&#x3bb;" horiz-adv-x="932" 
d="M245 0h-217l311 1043l-69 203q-17 61 -40.5 90.5t-57.5 29.5q-10 0 -21 -1l-22 -2l-3 144q21 6 56 10.5t62 4.5q79 0 124 -49t72 -137l345 -1067q17 -63 35 -94t46 -31q7 0 14.5 0.5t13.5 2.5l3 -151q-16 -5 -35.5 -8t-41.5 -3q-88 0 -137 51t-86 169l-168 552h-3
l-12 -55z" />
    <glyph glyph-name="xi" unicode="&#x3be;" horiz-adv-x="868" 
d="M738 1281q-62 20 -99.5 29t-81.5 9q-103 0 -153 -53t-50 -139q0 -100 51 -153.5t164 -53.5h118v-157h-115q-141 0 -210 -76t-69 -239q0 -128 55 -199.5t148 -104.5l85 -21q118 -33 171 -75.5t53 -144.5q-1 -78 -52.5 -160.5t-114.5 -131.5l-104 82q41 48 58 87.5t17 94.5
q0 43 -22.5 65.5t-82.5 39.5l-36 11q-193 52 -284 148.5t-91 308.5q0 151 66.5 249.5t194.5 144.5q-97 40 -148.5 112t-51.5 169q0 170 102 261t286 91q67 0 121.5 -11.5t105.5 -32.5z" />
    <glyph glyph-name="pi" unicode="&#x3c0;" horiz-adv-x="1054" 
d="M957 930h-111v-644q0 -86 19 -118t56 -32q22 0 37.5 4.5t38.5 15.5l30 -138q-38 -23 -72 -31t-79 -8q-115 0 -173 73.5t-58 240.5v637h-256v-930h-200v930h-113v152h881v-152z" />
    <glyph glyph-name="rho" unicode="&#x3c1;" 
d="M876 507q0 -245 -86.5 -386t-249.5 -141q-74 0 -129 26.5t-94 78.5l-3 -1v-500h-201v1001h2l-2 4q0 244 103 378.5t278 134.5q188 0 285 -153.5t97 -420.5v-21zM676 528q0 191 -44.5 304.5t-143.5 113.5q-88 0 -131 -109.5t-43 -259.5v-323q25 -59 66.5 -90t104.5 -31
q100 0 145.5 100t45.5 274v21z" />
    <glyph glyph-name="sigma1" unicode="&#x3c2;" horiz-adv-x="889" 
d="M469 1102q159 0 254 -104t95 -295h-189q0 114 -40 178.5t-120 64.5q-102 0 -147.5 -109.5t-45.5 -277.5v-38q0 -151 56.5 -239t180.5 -133q130 -43 182.5 -85t54.5 -148q-1 -74 -53 -159t-113 -131l-105 82q40 48 57.5 88t17.5 92q0 47 -23 69.5t-79 41.5
q-194 53 -285.5 177t-91.5 345v38q0 239 102.5 391t291.5 152z" />
    <glyph glyph-name="sigma" unicode="&#x3c3;" horiz-adv-x="964" 
d="M935 925h-225q75 -71 118 -174t43 -229v-26q0 -225 -104 -370.5t-289 -145.5q-192 0 -297 149.5t-105 396.5v27q0 237 105 383t295 146h459v-157zM277 526q0 -177 48 -285t153 -108q99 0 146 108.5t47 284.5v27q0 165 -47.5 268.5t-147.5 103.5q-103 0 -151 -104
t-48 -268v-27z" />
    <glyph glyph-name="tau" unicode="&#x3c4;" horiz-adv-x="884" 
d="M823 929h-292v-643q0 -86 19 -118t56 -32q22 0 37.5 4.5t38.5 15.5l30 -138q-38 -23 -72 -31t-79 -8q-115 0 -173 73.5t-58 240.5v636h-268v153h761v-153z" />
    <glyph glyph-name="upsilon" unicode="&#x3c5;" horiz-adv-x="924" 
d="M313 1082v-668q0 -149 33.5 -215t91.5 -66q95 0 149.5 125.5t54.5 295.5q-3 135 -26 263.5t-64 264.5h198q42 -111 67 -237.5t25 -289.5q0 -258 -98 -417t-298 -159q-162 0 -247.5 105t-85.5 332v666h200z" />
    <glyph glyph-name="phi" unicode="&#x3c6;" horiz-adv-x="1225" 
d="M505 -14q-234 30 -337 185.5t-103 396.5q0 172 49 303t143 215l127 -121q-59 -72 -87.5 -175.5t-30.5 -221.5q0 -160 55.5 -273.5t183.5 -148.5v702q0 109 63 173.5t166 64.5q193 0 306.5 -152.5t113.5 -385.5q0 -229 -106 -381.5t-342 -181.5v-463h-201v464zM706 144
q131 32 189 141.5t58 262.5q-2 164 -55 273t-149 109q-26 0 -34.5 -20.5t-8.5 -55.5v-710z" />
    <glyph glyph-name="psi" unicode="&#x3c8;" horiz-adv-x="1220" 
d="M701 1081v-935q130 35 188.5 152t58.5 281q-2 127 -26 250t-67 253h194q46 -106 72.5 -226.5t26.5 -276.5q0 -249 -104.5 -407.5t-342.5 -186.5v-447h-201v449q-207 30 -316 176t-109 429v490h200v-492q0 -198 58.5 -304t166.5 -139v934h201z" />
    <glyph glyph-name="omega" unicode="&#x3c9;" horiz-adv-x="1378" 
d="M404 1082q-52 -136 -81 -265.5t-31 -266.5q0 -187 33.5 -302t111.5 -115q69 0 108.5 81.5t39.5 264.5v311h208v-311q0 -183 39.5 -264.5t107.5 -81.5q77 0 111 114.5t34 302.5q-3 137 -31.5 267t-80.5 265h198q53 -113 84 -240t31 -292q0 -263 -78.5 -417t-258.5 -154
q-94 0 -159 52.5t-100 157.5h-3q-36 -105 -101 -157.5t-157 -52.5q-181 0 -259.5 154.5t-78.5 416.5q0 166 30.5 293t85.5 239h197z" />
    <glyph glyph-name="uni03D1" unicode="&#x3d1;" horiz-adv-x="1099" 
d="M563 139q121 0 187 109.5t66 314.5v9q-159 13 -256.5 134.5t-97.5 308.5v78q0 178 75 280.5t198 102.5q136 0 211.5 -101t75.5 -286v-526q0 -273 -124 -428t-335 -155q-208 0 -332 161.5t-124 421.5v689l207 2v-691q0 -193 66 -308.5t183 -115.5zM643 1013
q0 -118 44.5 -196t128.5 -92v373q0 108 -21.5 160.5t-65.5 52.5q-40 0 -63 -53t-23 -160v-85z" />
    <glyph glyph-name="uni03D2" unicode="&#x3d2;" horiz-adv-x="950" 
d="M621 1227q46 136 100.5 190t142.5 54q24 0 44.5 -5.5t40.5 -18.5l-19 -149q-4 3 -15.5 6.5t-21.5 3.5q-30 0 -51.5 -24.5t-34.5 -84.5l-235 -644v-555h-200v563l-233 636q-14 61 -35 85t-52 24q-10 0 -21.5 -3.5t-13.5 -6.5l-18 149q18 13 38 18.5t45 5.5q89 0 143 -52.5
t101 -189.5l131 -407l15 -71h3l16 71z" />
    <glyph glyph-name="uni03D6" unicode="&#x3d6;" horiz-adv-x="1356" 
d="M1322 934h-115q27 -88 42 -180.5t15 -203.5q0 -262 -74 -416.5t-244 -154.5q-96 0 -162.5 53t-102.5 161h-3q-37 -108 -103.5 -161t-161.5 -53q-170 0 -243.5 154.5t-73.5 416.5q0 111 14 204t42 180h-104v148h1274v-148zM1064 550q-3 98 -18.5 192.5t-43.5 191.5h-644
q-29 -97 -44.5 -191t-17.5 -193q0 -188 29 -302.5t97 -114.5q71 0 112.5 81.5t41.5 264.5v244h208v-244q0 -183 41 -264.5t113 -81.5q67 0 96.5 114.5t29.5 302.5z" />
    <glyph glyph-name="uni0402" unicode="&#x402;" horiz-adv-x="1258" 
d="M952 1300h-398v-456q62 21 114 33.5t98 12.5q203 0 314.5 -115.5t111.5 -343.5q0 -203 -103 -323.5t-320 -120.5v147q128 0 175.5 77t47.5 216q-1 151 -57.5 226.5t-168.5 75.5q-52 0 -104 -10.5t-108 -29.5v-689h-201v1300h-312v156h911v-156z" />
    <glyph glyph-name="uni0404" unicode="&#x404;" horiz-adv-x="1097" 
d="M983 436q-4 -224 -116 -340t-318 -116q-209 0 -325 140.5t-116 405.5v404q0 264 117 406t324 142q210 0 319 -114.5t116 -346.5h-201q-2 160 -56.5 232.5t-177.5 72.5q-119 0 -180 -98t-61 -291v-120h399v-155h-399v-132q0 -196 59.5 -294t181.5 -98q121 0 176 69.5
t58 232.5h200z" />
    <glyph glyph-name="uni0409" unicode="&#x409;" horiz-adv-x="1780" 
d="M1052 1456v-567h240q199 0 309 -122t110 -322q0 -202 -110.5 -323.5t-308.5 -121.5h-441v1300h-353l-1 -512q0 -422 -97 -605t-314 -183h-37v154h32q123 0 169.5 135t46.5 499v668h755zM1052 735v-581h240q109 0 164 83.5t55 209.5q0 122 -55 205t-164 83h-240z" />
    <glyph glyph-name="uni040A" unicode="&#x40a;" horiz-adv-x="1785" 
d="M338 814h519v642h200v-595h240q199 0 309 -116.5t110 -311.5q0 -196 -110 -314.5t-309 -118.5h-440v659h-519v-659h-201v1456h201v-642zM1057 706v-546h240q110 0 164.5 77t54.5 198q0 117 -54.5 194t-164.5 77h-240z" />
    <glyph glyph-name="uni040B" unicode="&#x40b;" horiz-adv-x="1330" 
d="M954 1300h-400v-436q52 14 108 22t116 8q209 0 317 -107t108 -349v-438h-201v438q0 169 -53 235t-171 66q-54 0 -111 -8.5t-113 -22.5v-708h-200v1300h-302v156h902v-156z" />
    <glyph glyph-name="uni040F" unicode="&#x40f;" horiz-adv-x="1189" 
d="M131 1456h201v-1302h519v1302h200v-1456h-351v-356h-201v356h-368v1456z" />
    <glyph glyph-name="uni0411" unicode="&#x411;" horiz-adv-x="1060" 
d="M872 1300h-542v-438h241q200 0 309.5 -114.5t109.5 -312.5q0 -200 -110 -317.5t-309 -117.5h-442v1456h743v-156zM330 707v-553h241q110 0 164.5 79t54.5 204q0 119 -54.5 194.5t-164.5 75.5h-241z" />
    <glyph glyph-name="uni0414" unicode="&#x414;" horiz-adv-x="1263" 
d="M1207 -355h-190v355h-775v-356h-194l-7 510h95q61 71 110.5 243t56.5 494l29 565h737v-1302h148zM504 891q-8 -258 -51.5 -439t-113.5 -298h529v1146h-343z" />
    <glyph glyph-name="uni0416" unicode="&#x416;" horiz-adv-x="1599" 
d="M1033 661h-127v-661h-199v661h-132l-295 -661h-249l386 785l-361 671h243l281 -632h127v632h199v-632h122l278 632h243l-359 -671l384 -785h-249z" />
    <glyph glyph-name="uni0417" unicode="&#x417;" horiz-adv-x="1021" 
d="M508 819q110 0 160 64.5t50 183.5q0 114 -55.5 184t-167.5 70q-91 0 -149 -69t-58 -181h-200q0 186 116 296t291 110q200 0 312 -105t112 -307q0 -105 -51 -188t-143 -131q104 -42 158 -128t54 -216q0 -203 -120.5 -313t-321.5 -110q-176 0 -300 106t-124 319h201
q0 -119 61 -195t162 -76q115 0 178 72t63 195q0 139 -56.5 202t-171.5 63h-137v154h137z" />
    <glyph glyph-name="uni0418" unicode="&#x418;" horiz-adv-x="1189" 
d="M851 1456h200v-1456h-200v1055l-3 1l-515 -1056h-200v1456h200v-1055l3 -1z" />
    <glyph glyph-name="uni041B" unicode="&#x41b;" horiz-adv-x="1190" 
d="M1052 1456v-1456h-201v1300h-359l-15 -512q-13 -430 -96.5 -609t-280.5 -179h-52v154h33q111 2 148.5 131t47.5 503l20 668h755z" />
    <glyph glyph-name="uni0423" unicode="&#x423;" horiz-adv-x="1061" 
d="M512 737l31 -99h3l247 818h220l-404 -1202q-54 -136 -114.5 -205.5t-186.5 -69.5q-21 0 -47 3t-37 6l2 150q8 -3 31 -4t38 -1q61 0 89 40.5t54 125.5l25 77l-403 1080h218z" />
    <glyph glyph-name="uni0424" unicode="&#x424;" horiz-adv-x="1341" 
d="M775 1314h11q215 0 350.5 -162.5t135.5 -424.5q0 -263 -135.5 -425t-350.5 -162h-11v-200h-200v200h-14q-215 0 -350.5 161.5t-135.5 423.5t135.5 425.5t350.5 163.5h14v202h200v-202zM561 1155q-137 0 -212.5 -115t-75.5 -315t75.5 -313t212.5 -113h14v856h-14z
M775 1155v-856h13q136 0 211.5 114t75.5 314q0 199 -75.5 313.5t-211.5 114.5h-13z" />
    <glyph glyph-name="uni0426" unicode="&#x426;" horiz-adv-x="1254" 
d="M131 1456h201v-1302h518v1302h201v-1300h141l-16 -507h-184v351h-861v1456z" />
    <glyph glyph-name="uni0427" unicode="&#x427;" horiz-adv-x="1164" 
d="M1026 1456v-1456h-201v611q-64 -23 -132 -34.5t-142 -11.5q-210 0 -317 106.5t-107 350.5v434h200v-434q0 -171 52.5 -236.5t171.5 -65.5q66 0 137 12t137 34v690h201z" />
    <glyph glyph-name="uni0428" unicode="&#x428;" horiz-adv-x="1591" 
d="M336 1456v-1302h360v1302h201v-1302h357v1302h200v-1456h-1319v1456h201z" />
    <glyph glyph-name="uni0429" unicode="&#x429;" horiz-adv-x="1672" 
d="M336 1456v-1302h360v1302h201v-1302h357v1302h200v-1302h146l-16 -505h-183v351h-1266v1456h201z" />
    <glyph glyph-name="uni042A" unicode="&#x42a;" horiz-adv-x="1283" 
d="M32 1456h522v-594h241q200 0 309.5 -114.5t109.5 -312.5q0 -200 -110 -317.5t-309 -117.5h-442v1301h-321v155zM554 707v-553h241q110 0 164.5 79t54.5 204q0 119 -54.5 194.5t-164.5 75.5h-241z" />
    <glyph glyph-name="uni042B" unicode="&#x42b;" horiz-adv-x="1459" 
d="M338 862h241q200 0 309.5 -114.5t109.5 -312.5q0 -200 -110 -317.5t-309 -117.5h-442v1456h201v-594zM1321 0h-201v1456h201v-1456zM338 707v-553h241q110 0 164.5 79t54.5 204q0 119 -54.5 194.5t-164.5 75.5h-241z" />
    <glyph glyph-name="uni042C" unicode="&#x42c;" horiz-adv-x="1058" 
d="M330 862h241q200 0 309.5 -114.5t109.5 -312.5q0 -200 -110 -317.5t-309 -117.5h-442v1456h201v-594zM330 707v-553h241q110 0 164.5 79t54.5 204q0 119 -54.5 194.5t-164.5 75.5h-241z" />
    <glyph glyph-name="uni042D" unicode="&#x42d;" horiz-adv-x="1095" 
d="M116 989q0 227 115.5 358t322.5 131q205 0 326 -171t121 -449v-260q0 -279 -121 -448.5t-326 -169.5q-209 0 -324 125.5t-115 360.5h201q0 -165 58.5 -248.5t179.5 -83.5q119 0 183 126.5t64 335.5v60h-417v155h417v47q0 209 -64 336.5t-183 127.5q-121 0 -179.5 -83.5
t-58.5 -249.5h-200z" />
    <glyph glyph-name="uni042E" unicode="&#x42e;" horiz-adv-x="1541" 
d="M1441 527q0 -264 -126 -406t-345 -142q-216 0 -338.5 142t-122.5 406v113h-162v-640h-201v1456h201v-662h162v133q0 263 122.5 406.5t337.5 143.5q219 0 345.5 -143.5t126.5 -406.5v-400zM1240 930q0 193 -69 290t-202 97q-128 0 -193.5 -97t-65.5 -290v-403
q0 -196 65.5 -293t194.5 -97q133 0 201.5 97t68.5 293v403z" />
    <glyph glyph-name="uni042F" unicode="&#x42f;" horiz-adv-x="1044" 
d="M256 0h-216l266 635q-105 56 -157 149.5t-52 230.5q0 215 110.5 328t312.5 113h393v-1456h-201v568h-223zM712 1300h-192q-113 0 -168 -75t-55 -214q0 -137 56 -214t167 -77h192v580z" />
    <glyph glyph-name="uni0431" unicode="&#x431;" horiz-adv-x="950" 
d="M516 1016q176 0 273 -135t97 -357v-27q0 -235 -105 -376.5t-295 -141.5q-191 0 -296 143t-105 380v26v15v71q0 345 105.5 542.5t286.5 238.5q93 23 135.5 56.5t42.5 102.5h162q0 -173 -76 -234t-237 -90q-93 -19 -156.5 -97.5t-88.5 -223.5l2 -2q54 51 118 80t137 29z
M484 861q-103 0 -151 -94t-48 -243v-27q0 -164 48 -264t153 -100q102 0 151 100.5t49 263.5v27q0 150 -49 243.5t-153 93.5z" />
    <glyph glyph-name="uni0432" unicode="&#x432;" horiz-adv-x="962" 
d="M125 0v1082h355q176 0 270 -73t94 -223q0 -80 -40 -139.5t-114 -88.5v-3q94 -23 143.5 -90t49.5 -160q0 -154 -89 -229.5t-259 -75.5h-410zM326 476v-324h209q76 0 112 41t36 122q0 78 -35.5 119.5t-112.5 41.5h-209zM326 619h158q82 0 121.5 37t39.5 115
q0 81 -40.5 118.5t-124.5 37.5h-154v-308z" />
    <glyph glyph-name="uni0433" unicode="&#x433;" horiz-adv-x="715" 
d="M691 925h-375v-925h-200v1082h575v-157z" />
    <glyph glyph-name="uni0434" unicode="&#x434;" horiz-adv-x="1048" 
d="M115 154q74 90 105 198t40 342l8 388h608v-928h122v-474h-200v320h-552v-320h-204l1 474h72zM460 694q-9 -191 -45 -321t-97 -219h358v761h-212z" />
    <glyph glyph-name="uni0436" unicode="&#x436;" horiz-adv-x="1367" 
d="M881 462h-98v-462h-200v462h-97l-200 -462h-256l301 590l-280 492h249l192 -447h91v447h200v-447h92l193 447h248l-280 -492l300 -590h-255z" />
    <glyph glyph-name="uni0437" unicode="&#x437;" horiz-adv-x="866" 
d="M440 624q72 0 102.5 40.5t30.5 118.5q0 74 -32 120.5t-105 46.5q-66 0 -108 -47t-42 -122h-199q0 146 97 232.5t245 86.5q164 0 254.5 -79.5t90.5 -231.5q0 -76 -37 -137t-104 -96q78 -32 117.5 -95t39.5 -159q0 -153 -98 -237t-263 -84q-148 0 -252 84t-104 251h200
q0 -81 43.5 -134t119.5 -53q77 0 115.5 48.5t38.5 129.5q0 91 -36 131.5t-114 40.5h-137v145h137z" />
    <glyph glyph-name="uni0438" unicode="&#x438;" horiz-adv-x="968" 
d="M650 1082h201v-1082h-201v725l-3 1l-330 -726h-200v1082h200v-726l3 -1z" />
    <glyph glyph-name="uni043A" unicode="&#x43a;" horiz-adv-x="938" 
d="M417 457h-91v-457h-201v1082h201v-453h86l232 453h250l-319 -506l345 -576h-261z" />
    <glyph glyph-name="uni043B" unicode="&#x43b;" horiz-adv-x="969" 
d="M852 1082v-1082h-201v925h-236l-11 -312q-12 -333 -79.5 -473t-247.5 -140h-41v162l29 1q82 0 105.5 88t33.5 362l15 469h633z" />
    <glyph glyph-name="uni043C" unicode="&#x43c;" horiz-adv-x="1263" 
d="M628 244h3l251 838h251v-1082h-201v701h-3l-232 -701h-136l-232 703h-3v-703h-201v1082h253z" />
    <glyph glyph-name="uni043D" unicode="&#x43d;" horiz-adv-x="968" 
d="M849 0h-201v462h-331v-462h-200v1082h200v-466h331v466h201v-1082z" />
    <glyph glyph-name="uni043F" unicode="&#x43f;" horiz-adv-x="968" 
d="M851 0h-201v925h-333v-925h-200v1082h734v-1082z" />
    <glyph glyph-name="uni0442" unicode="&#x442;" horiz-adv-x="843" 
d="M801 927h-282v-927h-201v927h-278v155h761v-155z" />
    <glyph glyph-name="uni0444" unicode="&#x444;" horiz-adv-x="1224" 
d="M78 528q0 266 81 420t237 154q31 0 58 -6t53 -16v480h200v-483q26 12 55 18.5t64 6.5q156 0 238 -154t82 -420v-21q0 -245 -82 -386.5t-236 -141.5q-35 0 -65 6.5t-56 17.5v-419h-200v416q-27 -10 -54 -15.5t-58 -5.5q-155 0 -236 141.5t-81 386.5v21zM945 528
q0 190 -41.5 304t-132.5 114q-19 0 -34.5 -3t-29.5 -8v-794q14 -4 30 -6t35 -2q91 0 132 99.5t41 274.5v21zM277 507q0 -176 38.5 -275t130.5 -99q18 0 32.5 1.5t28.5 6.5v796q-16 4 -30 6.5t-30 2.5q-91 0 -130.5 -113t-39.5 -305v-21z" />
    <glyph glyph-name="uni0446" unicode="&#x446;" horiz-adv-x="1019" 
d="M117 1082h200v-928h333v928h201v-928h120l-16 -475h-184v321h-654v1082z" />
    <glyph glyph-name="uni0447" unicode="&#x447;" horiz-adv-x="930" 
d="M813 0h-200v390q-39 -12 -77.5 -18t-76.5 -6q-182 0 -276.5 97t-94.5 313v306h200v-306q0 -143 39.5 -199t131.5 -56q40 0 76.5 7t77.5 21v533h200v-1082z" />
    <glyph glyph-name="uni0448" unicode="&#x448;" horiz-adv-x="1375" 
d="M317 1082v-928h268v928h201v-928h267v928h200v-1082h-1136v1082h200z" />
    <glyph glyph-name="uni0449" unicode="&#x449;" horiz-adv-x="1458" 
d="M311 1082v-928h268v928h201v-928h267v928h200v-928h154l-16 -475h-183v321h-1091v1082h200z" />
    <glyph glyph-name="uni044A" unicode="&#x44a;" horiz-adv-x="1078" 
d="M38 1082h450v-365h187q169 0 261 -97.5t92 -259.5t-92 -261t-261 -99h-388v927h-249v155zM488 561v-407h187q80 0 116.5 56.5t36.5 145.5q0 87 -37 146t-116 59h-187z" />
    <glyph glyph-name="uni044B" unicode="&#x44b;" horiz-adv-x="1354" 
d="M326 717h187q169 0 261 -97.5t92 -259.5t-92 -261t-261 -99h-388v1082h201v-365zM1211 0h-200v1082h200v-1082zM326 561v-407h187q80 0 116.5 56.5t36.5 145.5q0 87 -37 146t-116 59h-187z" />
    <glyph glyph-name="uni044C" unicode="&#x44c;" horiz-adv-x="933" 
d="M326 717h187q169 0 261 -97.5t92 -259.5t-92 -261t-261 -99h-388v1082h201v-365zM326 561v-407h187q80 0 116.5 56.5t36.5 145.5q0 87 -37 146t-116 59h-187z" />
    <glyph glyph-name="uni044D" unicode="&#x44d;" horiz-adv-x="894" 
d="M423 946q-70 0 -114.5 -57.5t-44.5 -156.5h-189q0 159 101 264.5t247 105.5q189 0 291.5 -152t102.5 -391v-38q0 -239 -102.5 -390.5t-289.5 -151.5q-159 0 -254.5 108t-95.5 290h189q0 -112 43 -178t118 -66q92 0 138 95.5t52 249.5h-269v139h268q-8 148 -53 238.5
t-138 90.5z" />
    <glyph glyph-name="uni044E" unicode="&#x44e;" horiz-adv-x="1365" 
d="M327 622h157q3 215 108 347.5t292 132.5q191 0 296 -136.5t105 -356.5v-138q0 -222 -104.5 -356.5t-294.5 -134.5q-191 0 -296.5 134t-105.5 354h-157v-468h-200v1082h200v-460zM685 471q0 -152 48 -245t153 -93q102 0 150.5 93.5t48.5 244.5v138q0 150 -49 243.5
t-152 93.5q-104 0 -151.5 -93.5t-47.5 -243.5v-138z" />
    <glyph glyph-name="uni044F" unicode="&#x44f;" horiz-adv-x="938" 
d="M811 1082v-1082h-200v413h-161l-199 -413h-207l214 447q-87 40 -132.5 117t-45.5 181q0 150 94 243.5t261 93.5h376zM281 741q0 -76 36.5 -129t108.5 -53h185v368h-176q-77 0 -115.5 -54t-38.5 -132z" />
    <glyph glyph-name="uni0452" unicode="&#x452;" horiz-adv-x="958" 
d="M514 1213h-203v-259l3 -1q42 70 102.5 109.5t136.5 39.5q141 0 217 -105.5t76 -334.5v-211h1v-525q0 -178 -74 -270.5t-212 -92.5q-30 0 -54 4.5t-51 13.5l11 151q15 -5 38.5 -9.5t41.5 -4.5q48 0 73.5 53.5t25.5 154.5v738q0 153 -39.5 216.5t-122.5 63.5
q-56 0 -99.5 -33.5t-73.5 -93.5v-817h-201v1213h-125v141h125v206h201v-206h203v-141z" />
    <glyph glyph-name="uni0454" unicode="&#x454;" horiz-adv-x="895" 
d="M474 133q72 0 123 58t47 159h188q4 -160 -102 -265t-253 -105q-197 0 -297 134.5t-100 350.5v149q0 216 100.5 352t295.5 136q163 0 261 -108.5t95 -293.5h-188q3 112 -43.5 179t-126.5 67q-110 0 -151.5 -91.5t-41.5 -240.5v-7h273v-139h-273v-3q0 -152 41 -242t152 -90
z" />
    <glyph glyph-name="uni0459" unicode="&#x459;" horiz-adv-x="1430" 
d="M833 1082v-401h187q168 0 261 -92.5t93 -245.5q0 -155 -93 -249t-261 -94h-388v925h-217v-312q0 -323 -77 -468t-261 -145h-42v156l30 1q80 0 115 103.5t35 352.5v469h618zM833 526v-374h187q79 0 116.5 55t37.5 138q0 78 -37.5 129.5t-116.5 51.5h-187z" />
    <glyph glyph-name="uni045A" unicode="&#x45a;" horiz-adv-x="1443" 
d="M317 662h331v420h201v-401h187q168 0 261 -92.5t93 -245.5q0 -155 -93 -249t-261 -94h-388v508h-331v-508h-200v1082h200v-420zM849 526v-374h187q79 0 116.5 55t37.5 138q0 78 -37.5 129.5t-116.5 51.5h-187z" />
    <glyph glyph-name="uni045B" unicode="&#x45b;" horiz-adv-x="958" 
d="M529 1222h-218v-268l3 -1q42 70 102.5 109.5t136.5 39.5q141 0 217 -105.5t76 -334.5v-662h-200v664q0 153 -39.5 216.5t-122.5 63.5q-56 0 -99.5 -33.5t-73.5 -93.5v-817h-201v1222h-110v141h110v197h201v-197h218v-141z" />
    <glyph glyph-name="uni045F" unicode="&#x45f;" horiz-adv-x="968" 
d="M317 1082v-928h333v928h201v-1082h-266v-355h-201v355h-267v1082h200z" />
    <glyph glyph-name="uni0460" unicode="&#x460;" horiz-adv-x="1527" 
d="M1401 1456v-1039q0 -217 -100.5 -327.5t-268.5 -110.5q-90 0 -158.5 40t-112.5 121q-46 -81 -116.5 -121t-161.5 -40q-165 0 -262.5 110.5t-97.5 327.5v1039h201v-1039q0 -142 42 -213t117 -71q83 0 130 71t47 213v1039h204v-1039q0 -142 44.5 -213t123.5 -71
q78 0 123 71t45 213v1039h201z" />
    <glyph glyph-name="uni0461" unicode="&#x461;" horiz-adv-x="1333" 
d="M1243 1082v-692q0 -204 -90 -307.5t-242 -103.5q-80 0 -139.5 33.5t-99.5 103.5q-42 -70 -104 -103.5t-143 -33.5q-150 0 -237.5 103.5t-87.5 307.5v692h201v-692q0 -130 32 -193.5t92 -63.5q70 0 109 64t39 193v692h201v-692q0 -130 35 -193.5t102 -63.5q62 0 96.5 63.5
t34.5 193.5v692h201z" />
    <glyph glyph-name="uni0463" unicode="&#x463;" horiz-adv-x="932" 
d="M555 1081h-230v-338h188q169 0 261 -101t92 -268q0 -169 -92.5 -271.5t-260.5 -102.5h-389v1081h-136v141h136v338h201v-338h230v-141zM325 588v-434h188q79 0 115.5 60t36.5 156q0 92 -36.5 155t-115.5 63h-188z" />
    <glyph glyph-name="uni0464" unicode="&#x464;" horiz-adv-x="1498" 
d="M340 833h159v97q0 264 117 406t324 142q210 0 319 -114.5t116 -346.5h-201q-2 160 -56.5 232.5t-177.5 72.5q-119 0 -180 -98t-61 -291v-100h381v-155h-381v-152q0 -196 59.5 -294t181.5 -98q121 0 176 69.5t58 232.5h200q-4 -224 -116 -340t-318 -116q-209 0 -325 140.5
t-116 405.5v152h-159v-678h-201v1456h201v-623z" />
    <glyph glyph-name="uni0465" unicode="&#x465;" horiz-adv-x="1262" 
d="M318 615h126q0 215 100.5 351t295.5 136q163 0 261 -108.5t95 -293.5h-188q3 112 -43.5 179t-126.5 67q-110 0 -151.5 -91.5t-41.5 -239.5h298v-141h-298v-9q0 -152 41 -242t152 -90q72 0 123 58t47 159h188q4 -160 -102 -265t-253 -105q-197 0 -297 134.5t-100 350.5v9
h-126v-474h-200v1082h200v-467z" />
    <glyph glyph-name="uni0466" unicode="&#x466;" horiz-adv-x="1066" 
d="M730 447h-98v-447h-179v447h-88l-122 -447h-208l418 1456h194l411 -1456h-207zM406 600h282l-139 514h-3z" />
    <glyph glyph-name="uni0467" unicode="&#x467;" horiz-adv-x="928" 
d="M602 308h-68v-308h-156v308h-68l-86 -308h-204l340 1082h193l341 -1082h-204zM350 451h212l-86 303l-19 86h-4l-19 -86z" />
    <glyph glyph-name="uni0468" unicode="&#x468;" horiz-adv-x="1526" 
d="M356 600h284l246 856h194l411 -1456h-207l-121 447h-98v-447h-179v447h-88l-122 -447h-208l128 448h-240v-448h-201v1456h201v-856zM839 600h282l-139 514h-3z" />
    <glyph glyph-name="uni0469" unicode="&#x469;" horiz-adv-x="1309" 
d="M335 451h204l199 631h193l341 -1082h-204l-88 308h-68v-308h-156v308h-68l-86 -308h-204l97 309h-160v-309h-200v1082h200v-631zM728 451h212l-86 303l-19 86h-4l-19 -86z" />
    <glyph glyph-name="uni046A" unicode="&#x46a;" horiz-adv-x="1450" 
d="M116 0v366q0 232 102.5 331.5t310.5 99.5h27l-323 659h1004l-324 -659h8q206 0 309.5 -99.5t103.5 -331.5v-366h-201v366q0 157 -49.5 216t-162.5 59h-84l-5 -10v-631h-200v641h-103q-114 0 -163 -59t-49 -216v-366h-201zM735 838l209 461h-417z" />
    <glyph glyph-name="uni046B" unicode="&#x46b;" horiz-adv-x="1237" 
d="M114 0v180q0 216 84 313.5t253 107.5l-238 481h821l-237 -482q161 -13 243 -111t82 -309v-180h-200v180q0 154 -41 212.5t-133 58.5h-25l-1 -3v-448h-201v451h-32q-95 0 -134.5 -58.5t-39.5 -212.5v-180h-201zM624 637l128 301h-257z" />
    <glyph glyph-name="uni046C" unicode="&#x46c;" horiz-adv-x="1920" 
d="M585 0v366q0 89 15.5 156.5t47.5 119.5h-298v-642h-201v1456h201v-658h675l-323 658h1004l-324 -659h8q206 0 309.5 -99.5t103.5 -331.5v-366h-201v366q0 157 -49.5 216t-162.5 59h-84l-5 -10v-631h-200v641h-103q-114 0 -163 -59t-49 -216v-366h-201zM1204 838l209 461
h-417z" />
    <glyph glyph-name="uni046D" unicode="&#x46d;" horiz-adv-x="1668" 
d="M544 0v180q0 89 14 156t45 118h-277v-454h-200v1082h200v-479h554l-237 479h821l-237 -482q161 -13 243 -111t82 -309v-180h-200v180q0 154 -41 212.5t-133 58.5h-25l-1 -3v-448h-201v451h-32q-95 0 -134.5 -58.5t-39.5 -212.5v-180h-201zM1054 637l128 301h-257z" />
    <glyph glyph-name="uni046E" unicode="&#x46e;" horiz-adv-x="874" 
d="M333 825q108 0 157.5 62.5t49.5 178.5q0 106 -50.5 169.5t-152.5 63.5h-225v157h225q186 0 295 -99.5t109 -286.5q0 -112 -53 -194.5t-150 -126.5q114 -42 172 -128t58 -218q0 -201 -107 -310t-288 -109h-44q-55 0 -78.5 -29t-23.5 -84q0 -66 36 -108.5t85 -69.5
l-65 -124q-111 36 -176 118t-66 200q0 126 73.5 190t208.5 64h43q95 0 148.5 69.5t53.5 188.5q0 137 -59.5 202.5t-178.5 65.5h-115v158h118zM423 1746l111 154h172v-17l-217 -240h-131l-216 239v18h169z" />
    <glyph glyph-name="uni046F" unicode="&#x46f;" horiz-adv-x="839" 
d="M340 614q91 0 132 42.5t41 123.5q0 70 -44 111.5t-132 41.5h-225v149h225q174 0 275.5 -77t101.5 -221q0 -80 -42 -140t-119 -97q93 -33 141 -93.5t48 -149.5q0 -153 -98.5 -236.5t-264.5 -83.5h-40q-58 0 -83.5 -29t-25.5 -84q0 -66 34.5 -108.5t80.5 -69.5l-65 -120
q-99 39 -163.5 120t-65.5 194q0 122 70 183.5t198 61.5h40q86 0 134 46t48 126q0 87 -51 128t-154 41h-122v141h126zM389 1397l111 154h172v-17l-217 -240h-131l-216 239v18h169z" />
    <glyph glyph-name="uni0472" unicode="&#x472;" horiz-adv-x="1154" 
d="M1041 527q0 -264 -126 -406t-345 -142q-216 0 -338.5 142t-122.5 406v400q0 263 122.5 406.5t337.5 143.5q219 0 345.5 -143.5t126.5 -406.5v-400zM310 794h530v136q0 193 -69 290t-202 97q-128 0 -193.5 -97t-65.5 -290v-136zM840 654h-530v-127q0 -196 65.5 -293
t194.5 -97q133 0 201.5 97t68.5 293v127z" />
    <glyph glyph-name="uni0473" unicode="&#x473;" horiz-adv-x="958" 
d="M76 609q0 220 105 356.5t295 136.5q191 0 296 -136.5t105 -356.5v-138q0 -222 -104.5 -356.5t-294.5 -134.5q-192 0 -297 135t-105 356v138zM478 133q102 0 150.5 93.5t48.5 244.5v1h-400v-1q0 -152 48 -245t153 -93zM476 946q-103 0 -151 -92t-48 -241h400
q-1 148 -49.5 240.5t-151.5 92.5z" />
    <glyph glyph-name="uni0474" unicode="&#x474;" horiz-adv-x="1074" 
d="M500 334l21 -92h3l21 91l184 846q41 160 101 228t164 68l36 -1l-1 -163h-17q-40 0 -63 -32.5t-39 -121.5l-290 -1157h-194l-401 1456h214z" />
    <glyph glyph-name="uni0475" unicode="&#x475;" horiz-adv-x="860" 
d="M400 325l15 -79h3l15 79l94 523q36 132 96 192.5t148 60.5q25 0 45.5 -5t39.5 -17l-19 -149q-4 2 -15 5t-21 3q-31 0 -54 -26t-32 -80l-210 -832h-177l-292 1082h208z" />
    <glyph glyph-name="uni047A" unicode="&#x47a;" horiz-adv-x="1154" 
d="M656 1196h-158v391h158v-391zM657 -140h-158v399h158v-399zM1041 527q0 -264 -126 -406t-345 -142q-216 0 -338.5 142t-122.5 406v400q0 263 122.5 406.5t337.5 143.5q219 0 345.5 -143.5t126.5 -406.5v-400zM840 930q0 193 -69 290t-202 97q-128 0 -193.5 -97
t-65.5 -290v-403q0 -196 65.5 -293t194.5 -97q133 0 201.5 97t68.5 293v403z" />
    <glyph glyph-name="uni047B" unicode="&#x47b;" horiz-adv-x="958" 
d="M552 830h-145v377h145v-377zM550 -126h-145v382h145v-382zM77 609q0 220 105 356.5t295 136.5q191 0 296 -136.5t105 -356.5v-138q0 -222 -104.5 -356.5t-294.5 -134.5q-192 0 -297 135t-105 356v138zM278 471q0 -152 48 -245t153 -93q102 0 150.5 93.5t48.5 244.5v138
q0 150 -49 243.5t-152 93.5q-104 0 -151.5 -93.5t-47.5 -243.5v-138z" />
    <glyph glyph-name="uni047C" unicode="&#x47c;" horiz-adv-x="1524" 
d="M1030 1455q165 0 263 -117.5t98 -343.5v-555q0 -227 -98 -343.5t-263 -116.5q-90 0 -159 38t-114 116q-47 -78 -116 -116t-158 -38q-165 0 -262.5 116.5t-97.5 343.5v555q0 226 97.5 343.5t262.5 117.5v-155q-75 0 -117 -77t-42 -229v-555q0 -154 42 -230t117 -76
q83 0 130 71t47 213v428h194v-428q0 -142 46.5 -213t129.5 -71q74 0 117 76.5t43 229.5v555q0 152 -43 229t-117 77v155zM1116 1714v-112h-26q-107 0 -229.5 68.5t-156.5 68.5q-39 0 -61.5 -32.5t-22.5 -89.5v-18h-107v34q0 108 48.5 164t140.5 56q58 0 177 -69.5t211 -69.5
h26zM721 1314l-66 55l48 115l-1 142h148v-129z" />
    <glyph glyph-name="uni047D" unicode="&#x47d;" horiz-adv-x="1322" 
d="M882 1094q153 0 243.5 -109t90.5 -320v-257q0 -213 -87 -321t-234 -108q-78 0 -137 34.5t-98 105.5q-40 -71 -99.5 -105.5t-135.5 -34.5q-148 0 -234.5 108.5t-86.5 320.5v257q0 211 90.5 320t243.5 109v-154q-63 0 -98 -69t-35 -206v-257q0 -138 31.5 -206.5t88.5 -68.5
q64 0 101 64t37 193v218h194v-218q0 -129 36.5 -193t101.5 -64q56 0 88 68.5t32 206.5v257q0 137 -35.5 206t-97.5 69v154zM1036 1372v-112h-28q-106 0 -228 68t-156 68q-39 0 -62 -32t-23 -89v-18h-108v33q0 108 49 164.5t140 56.5q58 0 178 -69.5t212 -69.5h26zM769 1159
l-129 -183l-65 55l46 115l-1 138h149v-125z" />
    <glyph glyph-name="uni047E" unicode="&#x47e;" horiz-adv-x="1528" 
d="M411 1691v99h689l2 -99h-281v-121h-144v121h-266zM1200 1456v-1039q0 -142 -45 -213t-123 -71q-79 0 -123.5 71t-44.5 213v1039h-204v-1039q0 -142 -47 -213t-130 -71q-75 0 -117 71t-42 213v1039h-201v-1039q0 -217 97.5 -327.5t262.5 -110.5q91 0 161.5 40t116.5 121
q44 -81 112.5 -121t158.5 -40q168 0 268.5 110.5t100.5 327.5v1039h-201z" />
    <glyph glyph-name="uni047F" unicode="&#x47f;" horiz-adv-x="1333" 
d="M345 1358v99h662l4 -99h-270v-128h-144v128h-252zM1042 1082v-692q0 -130 -34.5 -193.5t-96.5 -63.5q-67 0 -102 63.5t-35 193.5v692h-201v-692q0 -129 -39 -193t-109 -64q-60 0 -92 63.5t-32 193.5v692h-201v-692q0 -204 87.5 -307.5t237.5 -103.5q81 0 143 33.5
t104 103.5q40 -70 99.5 -103.5t139.5 -33.5q152 0 242 103.5t90 307.5v692h-201z" />
    <glyph glyph-name="uni0480" unicode="&#x480;" horiz-adv-x="1072" 
d="M671 -370h-200v356q-175 32 -275 196t-100 415v260q0 277 122 448.5t328 171.5q208 0 322 -126t114 -361h-200q0 164 -58 247.5t-178 83.5t-185 -127t-65 -335v-262q0 -210 65 -337t185 -127h125v-503z" />
    <glyph glyph-name="uni0481" unicode="&#x481;" horiz-adv-x="906" 
d="M600 -370h-199v357q-154 32 -234.5 176.5t-80.5 357.5v38q0 239 101.5 391t290.5 152q157 0 253 -108.5t96 -290.5h-189q0 110 -43.5 176.5t-116.5 66.5q-102 0 -147.5 -109.5t-45.5 -277.5v-38q0 -171 45.5 -279.5t147.5 -108.5h122v-503z" />
    <glyph glyph-name="uni0482" unicode="&#x482;" horiz-adv-x="1052" 
d="M497 441l232 -172l-57 -113l-235 170l-146 -326h-140l181 398l-232 171l57 112l236 -171l162 376l-233 171l59 114l233 -171l149 342h138l-183 -413l235 -171l-60 -112l-232 170z" />
    <glyph glyph-name="uni0483" unicode="&#x483;" horiz-adv-x="25" 
d="M-584 1323v-125l-142 1l1 222h438l-1 108l142 -1v-205h-438z" />
    <glyph glyph-name="uni0484" unicode="&#x484;" horiz-adv-x="25" 
d="M-692 1418q94 0 215.5 69.5t180.5 69.5q92 0 141.5 -56.5t49.5 -164.5v-33h-109v18q0 57 -23 89t-63 32q-34 0 -158 -68t-232 -68h-27v112h25z" />
    <glyph glyph-name="uni0485" unicode="&#x485;" horiz-adv-x="25" 
d="M-502 1500v132h152l-1 -146l48 -115l-66 -59z" />
    <glyph glyph-name="uni0486" unicode="&#x486;" horiz-adv-x="25" 
d="M-406 1312l-66 59l48 115l-1 146h152v-132z" />
    <glyph glyph-name="uni0488" unicode="&#x488;" horiz-adv-x="25" 
d="M-583 1267q0 85 45.5 136.5t123.5 51.5q80 0 125 -51.5t45 -136.5h-90q0 44 -19 72.5t-61 28.5q-40 0 -59 -28.5t-19 -72.5h-91zM-107 990q0 85 45 136.5t122 51.5q79 0 124.5 -51.5t45.5 -136.5h-91q0 45 -18.5 73t-60.5 28q-41 0 -59 -28.5t-18 -72.5h-90zM41 487
q0 85 45 136.5t124 51.5t124.5 -51.5t45.5 -136.5h-91q0 44 -19 72.5t-60 28.5t-59.5 -28.5t-18.5 -72.5h-91zM-115 -32q0 85 45 136.5t122 51.5q79 0 124 -51.5t45 -136.5h-90q0 44 -19 72.5t-60 28.5t-59 -28.5t-18 -72.5h-90zM-579 -316q0 86 45 137t124 51q80 0 125 -51
t45 -137h-90q0 45 -19 73t-61 28q-40 0 -59 -28t-19 -73h-91zM-1043 990q0 85 45.5 136.5t123.5 51.5q80 0 125 -51.5t45 -136.5h-90q0 44 -19 72.5t-61 28.5q-40 0 -59 -28.5t-19 -72.5h-91zM-1185 487q0 85 45.5 136.5t123.5 51.5q80 0 124.5 -51.5t44.5 -136.5h-90
q0 45 -18 73t-61 28q-40 0 -59 -28.5t-19 -72.5h-91zM-1052 -32q0 85 46 136.5t124 51.5q80 0 125 -51.5t45 -136.5h-91q0 44 -18.5 72.5t-60.5 28.5q-40 0 -59 -28.5t-19 -72.5h-92z" />
    <glyph glyph-name="uni0489" unicode="&#x489;" horiz-adv-x="-238" 
d="M-324 -60l9 -14l-98 -339h-77l56 353h110zM-481 1126l-9 14l98 338h77l-56 -352h-110zM63 631l10 12l268 -124v-98l-278 71v139zM-871 433l-11 -12l-268 124v98l279 -71v-139zM-128 1002l1 16l256 153l55 -68q-29 -23 -235 -200zM-679 21l-1 -17l-257 -153l-56 69
l237 200zM-791 860l-14 2l-118 326l52 69l159 -299zM-18 161l13 -2l119 -325l-53 -71l-157 299z" />
    <glyph glyph-name="uni048D" unicode="&#x48d;" horiz-adv-x="932" 
d="M555 1314h-230v-571h188q169 0 261 -101t92 -268q0 -169 -92.5 -271.5t-260.5 -102.5h-389v1314h-136v142h136v177h201v-177h230v-142zM325 588v-434h188q79 0 115.5 60t36.5 156q0 92 -36.5 155t-115.5 63h-188z" />
    <glyph glyph-name="uni048E" unicode="&#x48e;" horiz-adv-x="1069" 
d="M1008 551l-86 -86l-329 418l86 86zM338 574v-574h-201v1456h459q198 0 307 -119.5t109 -321.5q0 -203 -108.5 -322t-307.5 -119h-258zM338 730h258q109 0 162 79t53 204q0 126 -53 206.5t-162 80.5h-258v-570z" />
    <glyph glyph-name="uni048F" unicode="&#x48f;" horiz-adv-x="956" 
d="M871 -3l-88 -86l-292 393l87 85zM878 451q0 -218 -87.5 -344.5t-250.5 -126.5q-75 0 -130 29.5t-94 86.5l-3 -1v-511h-200v1498h180l11 -115l2 -1q40 66 97 101t136 35q164 0 251.5 -139.5t87.5 -378.5v-133zM678 584q0 163 -47.5 261.5t-147.5 98.5q-62 0 -103 -36
t-67 -101v-549q25 -61 66.5 -93t105.5 -32q100 0 146.5 86t46.5 232v133z" />
    <glyph glyph-name="uni0490" unicode="&#x490;" horiz-adv-x="934" 
d="M880 1301h-8v-1h-542v-1300h-201v1456h551v353h200v-508z" />
    <glyph glyph-name="uni0491" unicode="&#x491;" horiz-adv-x="774" 
d="M707 927h-21v-2h-375v-925h-200v1082h396v327h200v-482z" />
    <glyph glyph-name="uni0494" unicode="&#x494;" horiz-adv-x="987" 
d="M880 1300h-542v-469h142q232 0 358 -145t126 -432q0 -250 -101.5 -402.5t-312.5 -152.5v148q123 0 168 107.5t45 295.5q0 214 -70 317t-213 103h-142v-670h-201v1456h743v-156z" />
    <glyph glyph-name="uni0495" unicode="&#x495;" horiz-adv-x="878" 
d="M686 925h-375v-282h64q200 0 317 -120t117 -352q0 -136 -76 -271t-228 -179l-73 139q90 38 133.5 119t43.5 192q0 156 -62 234t-172 78h-64v-483h-200v1082h575v-157z" />
    <glyph glyph-name="uni049C" unicode="&#x49c;" horiz-adv-x="1090" 
d="M1050 1456l-320 -670l352 -786h-253l-247 654h-49v-256h-131v256h-72v-654h-200v1456h200v-639h72v267h131v-267h45l229 639h243z" />
    <glyph glyph-name="uni049D" unicode="&#x49d;" horiz-adv-x="989" 
d="M959 1082l-258 -502l278 -580h-255l-173 457h-33v-204h-124v204h-69v-457h-200v1082h200v-453h69v218h124v-218h33l159 453h249z" />
    <glyph glyph-name="uni04A0" unicode="&#x4a0;" horiz-adv-x="1381" 
d="M765 653h-128v-653h-201v1301h-383v155h584v-640h111l359 640h239l-430 -693l462 -763h-245z" />
    <glyph glyph-name="uni04A1" unicode="&#x4a1;" horiz-adv-x="1188" 
d="M677 457h-91v-457h-201v927h-323v155h524v-453h86l232 453h250l-319 -506l345 -576h-261z" />
    <glyph glyph-name="uni04A4" unicode="&#x4a4;" horiz-adv-x="1637" 
d="M338 797h517v659h707v-155h-506v-1301h-201v642h-517v-642h-201v1456h201v-659z" />
    <glyph glyph-name="uni04A5" unicode="&#x4a5;" horiz-adv-x="1191" 
d="M311 616h331v466h483v-155h-282v-927h-201v462h-331v-462h-200v1082h200v-466z" />
    <glyph glyph-name="uni04A6" unicode="&#x4a6;" horiz-adv-x="1731" 
d="M1056 834h110q232 0 358 -145t126 -432q0 -250 -101.5 -402.5t-312.5 -152.5v148q123 0 168 107.5t45 295.5q0 214 -70 317t-213 103h-110v-673h-199v1300h-519v-1300h-201v1456h919v-622z" />
    <glyph glyph-name="uni04A7" unicode="&#x4a7;" horiz-adv-x="1455" 
d="M845 645h101q208 0 330 -120t122 -352q0 -136 -76.5 -271t-227.5 -179l-73 139q89 38 132.5 119t43.5 192q-1 156 -66.5 234t-184.5 78h-101v-485h-201v925h-333v-925h-200v1082h734v-437z" />
    <glyph glyph-name="uni04A8" unicode="&#x4a8;" horiz-adv-x="1297" 
d="M1213 -24q-92 0 -172 17.5t-153 52.5q-60 -34 -125.5 -50.5t-138.5 -16.5q-239 0 -383.5 194.5t-144.5 498.5v194q0 267 107 439t285 172l1 -162q-88 0 -137.5 -125.5t-49.5 -321.5v-196q0 -237 86 -385t236 -148q28 0 54 4t51 13q-106 99 -160.5 235.5t-54.5 305.5v232
q0 239 92.5 391t246.5 152q159 0 255 -153.5t96 -402.5v-236q0 -160 -45.5 -291.5t-130.5 -228.5q43 -15 88.5 -22.5t96.5 -7.5v-154zM709 695q0 -142 40.5 -253t122.5 -187q64 75 97.5 183t33.5 242v246q0 182 -39 284t-111 102q-68 0 -106 -104t-38 -278v-235z" />
    <glyph glyph-name="uni04A9" unicode="&#x4a9;" horiz-adv-x="1058" 
d="M1002 -16q-79 0 -145 13t-123 40q-50 -29 -102.5 -43.5t-112.5 -14.5q-195 0 -313 160t-118 411v77q0 209 87 342t231 133v-161q-52 -2 -81.5 -88t-29.5 -224v-79q0 -183 59.5 -297t164.5 -114q16 0 30.5 2t29.5 7q-73 77 -109 179t-36 228v119q0 192 71.5 310t195.5 118
q125 0 199.5 -128t74.5 -328v-116q0 -117 -31 -214t-90 -172q34 -11 70 -16.5t78 -5.5v-138zM774 534v120q0 127 -23 207.5t-64 80.5q-42 0 -64.5 -74t-22.5 -195v-123q0 -95 25 -171t76 -134q36 54 54.5 127t18.5 162v0z" />
    <glyph glyph-name="uni04B4" unicode="&#x4b4;" horiz-adv-x="1504" 
d="M332 1301h-284v155h770v-155h-285v-1147h518v1302h201v-1300h141l-16 -507h-184v351h-861v1301z" />
    <glyph glyph-name="uni04B5" unicode="&#x4b5;" horiz-adv-x="1146" 
d="M237 928h-193v155h569v-155h-176v-774h333v928h201v-928h120l-16 -475h-184v321h-654v928z" />
    <glyph glyph-name="uni04B8" unicode="&#x4b8;" horiz-adv-x="1147" 
d="M669 326h-131v714h131v-714zM1013 1456v-1456h-201v611q-64 -23 -132 -34.5t-142 -11.5q-210 0 -317 106.5t-107 350.5v434h200v-434q0 -171 52.5 -236.5t171.5 -65.5q66 0 137 12t137 34v690h201z" />
    <glyph glyph-name="uni04B9" unicode="&#x4b9;" horiz-adv-x="942" 
d="M538 218h-131v587h131v-587zM830 0h-200v390q-39 -12 -77.5 -18t-76.5 -6q-182 0 -276.5 97t-94.5 313v306h200v-306q0 -143 39.5 -199t131.5 -56q40 0 76.5 7t77.5 21v533h200v-1082z" />
    <glyph glyph-name="uni04BA" unicode="&#x4ba;" horiz-adv-x="1164" 
d="M100 0v1456h201v-611q63 22 131 34t143 12q209 0 316.5 -107t107.5 -350v-434h-200v434q0 170 -53 236t-171 66q-67 0 -139 -12.5t-135 -34.5v-689h-201z" />
    <glyph glyph-name="uni04BC" unicode="&#x4bc;" horiz-adv-x="1287" 
d="M807 -23q-252 0 -384.5 166.5t-132.5 451.5v109q-129 21 -193.5 117.5t-64.5 257.5h145q0 -92 27 -150.5t86 -80.5v9q0 274 129.5 446t328.5 172q220 0 333 -173t113 -486v-121h-703v-100q0 -211 74.5 -335t241.5 -124q92 0 160.5 26t120.5 67l39 -145
q-34 -39 -116.5 -73t-203.5 -34zM491 839h502v36q0 204 -57 321.5t-188 117.5q-124 0 -190.5 -128t-66.5 -329v-18z" />
    <glyph glyph-name="uni04BD" unicode="&#x4bd;" horiz-adv-x="1006" 
d="M583 -20q-183 0 -290 131.5t-107 344.5v68q-108 26 -161.5 112t-53.5 227h137q0 -73 19 -121.5t61 -72.5q14 195 117.5 314t262.5 119q180 0 273 -123.5t93 -339.5v-140h-547v-43q0 -144 52 -233.5t157 -89.5q96 0 153.5 27t99.5 77l57 -130q-49 -59 -130.5 -93
t-192.5 -34zM568 946q-82 0 -129 -84t-52 -218h349v41q0 117 -41.5 189t-126.5 72z" />
    <glyph glyph-name="uni04C3" unicode="&#x4c3;" horiz-adv-x="1080" 
d="M330 0h-200v1456h200v-628h91l352 628h243l-407 -641q200 -22 308 -165.5t108 -408.5q0 -249 -101 -402t-312 -153l-1 149q122 0 167.5 106.5t46.5 295.5q-1 215 -71 318t-212 103h-212v-658z" />
    <glyph glyph-name="uni04C4" unicode="&#x4c4;" horiz-adv-x="948" 
d="M576 602q147 -36 227.5 -144.5t80.5 -295.5q0 -132 -76 -262.5t-228 -173.5l-72 139q90 37 133 114t43 183q0 145 -57 215.5t-165 79.5h-137v-457h-200v1082h200v-453h69l249 453h250z" />
    <glyph glyph-name="uni04C7" unicode="&#x4c7;" horiz-adv-x="1195" 
d="M338 1456v-659h518v659h200v-1530q0 -177 -75 -270t-212 -93q-29 0 -52.5 4.5t-51.5 13.5l11 151q15 -5 38 -9t41 -4q48 0 74.5 54t26.5 153v716h-518v-642h-201v1456h201z" />
    <glyph glyph-name="uni04C8" unicode="&#x4c8;" 
d="M312 1082v-466h331v466h201v-1156q0 -177 -75 -270t-212 -93q-29 0 -52.5 4.5t-51.5 13.5l12 151q14 -5 37 -9t41 -4q48 0 74 53.5t26 153.5v536h-331v-462h-201v1082h201z" />
    <glyph glyph-name="uni04D8" unicode="&#x4d8;" horiz-adv-x="1164" 
d="M516 1477q267 0 408 -179.5t141 -484.5v-165q0 -298 -137.5 -483.5t-346.5 -185.5q-250 0 -376.5 171.5t-126.5 485.5v126h787v51q0 229 -83.5 366t-265.5 137q-98 0 -170.5 -26t-126.5 -67l-40 145q35 39 122 74t215 35zM581 138q130 0 204 133.5t80 346.5h-587v-41
q0 -204 70 -321.5t233 -117.5z" />
    <glyph glyph-name="uni04E0" unicode="&#x4e0;" horiz-adv-x="981" 
d="M630 1300h-501v156h733l1 -128l-328 -480q175 -19 267.5 -131.5t92.5 -314.5q0 -203 -113 -313t-301 -110q-165 0 -280 106t-115 319h200q0 -119 53 -195t142 -76q101 0 157 72t56 195q0 165 -59 238t-181 73h-112v141z" />
    <glyph glyph-name="uni04E1" unicode="&#x4e1;" horiz-adv-x="981" 
d="M620 925h-494v157h736l1 -129l-321 -481q172 -21 262.5 -133.5t90.5 -311.5q0 -200 -113.5 -311t-300.5 -111q-165 0 -280 106.5t-115 317.5h200q0 -116 53 -192t142 -76q101 0 157 72t56 192q0 165 -59 238t-181 73h-114v141z" />
    <glyph glyph-name="uni04FA" unicode="&#x4fa;" horiz-adv-x="1009" 
d="M946 1300h-542v-1300h-201v1456h743v-156zM586 716h-529v141h529v-141zM588 174v-248q0 -177 -74 -270t-211 -93q-30 0 -52.5 4.5t-50.5 13.5l11 157q15 -5 37.5 -9.5t40.5 -4.5q48 0 73.5 51.5t25.5 150.5v248h200z" />
    <glyph glyph-name="uni04FB" unicode="&#x4fb;" horiz-adv-x="711" 
d="M758 925h-375v-925h-200v1082h575v-157zM580 533h-529v141h529v-141zM551 173v-248q0 -177 -74 -270t-211 -93q-30 0 -52.5 4.5t-50.5 13.5l11 157q15 -5 37.5 -9.5t40.5 -4.5q48 0 73.5 51.5t25.5 150.5v248h200z" />
    <glyph glyph-name="uni0500" unicode="&#x500;" horiz-adv-x="1058" 
d="M739 884v572h200v-1456h-442q-198 0 -308 121.5t-110 323.5q0 199 109.5 319t308.5 120h242zM739 154v575h-242q-110 0 -164 -80.5t-54 -201.5q0 -126 54 -209.5t164 -83.5h242z" />
    <glyph glyph-name="uni0502" unicode="&#x502;" horiz-adv-x="1457" 
d="M514 0q-199 0 -309 122t-110 323q0 199 110 319t309 120h242v572h200v-1303h61q80 1 122 68.5t45 192.5q1 79 -11.5 163t-37.5 168h195q28 -109 42 -183t12 -148q-3 -204 -107 -309t-260 -105h-503zM756 154v575h-242q-110 0 -164 -80.5t-54 -201.5q0 -126 54 -209.5
t164 -83.5h242z" />
    <glyph glyph-name="uni0503" unicode="&#x503;" horiz-adv-x="1436" 
d="M88 528q0 265 87.5 419.5t252.5 154.5q66 0 117 -27t90 -78l3 1v562h200v-1207q-1 -104 28.5 -161.5t84.5 -57.5q93 1 142.5 104t53.5 291q1 98 -11.5 197t-37.5 205l195 1q27 -123 41 -216t13 -187q-3 -271 -114.5 -410.5t-281.5 -139.5q-102 -2 -170 38t-105 131
q-43 -84 -104 -126.5t-146 -42.5q-163 0 -250.5 142t-87.5 386v21zM638 829q-29 55 -68 85t-92 30q-100 0 -145.5 -113t-45.5 -303v-21q0 -174 44.5 -272.5t144.5 -98.5q60 0 101 31.5t69 92.5q-4 22 -6 45t-2 48v476z" />
    <glyph glyph-name="uni0504" unicode="&#x504;" horiz-adv-x="1326" 
d="M554 378q0 120 -48.5 191t-133.5 71h-174v156h129q125 0 178 62.5t53 198.5q0 118 -51 180t-164 62h-283v157h283q205 0 310 -101t105 -300q0 -120 -53 -205.5t-156 -133.5q112 -36 159 -120.5t47 -215.5v-72q-1 -79 23 -126.5t66 -47.5q83 1 128 108t49 287
q1 99 -11 198.5t-37 204.5h195q28 -138 41.5 -224.5t12.5 -178.5q-3 -264 -112.5 -407t-271.5 -143q-135 -3 -206.5 75t-77.5 254v70z" />
    <glyph glyph-name="uni0505" unicode="&#x505;" horiz-adv-x="1086" 
d="M632 225q0 -55 13 -82t48 -27q71 2 108 80t40 223q0 78 -12.5 158.5t-36.5 160.5h194q28 -102 42.5 -174t12.5 -145q-3 -219 -99.5 -331.5t-241.5 -112.5q-134 -3 -198 52t-71 187v77q0 72 -31 110.5t-91 38.5h-190l-1 151h148q80 0 116 41t36 118q0 82 -37 130t-116 48
h-211l-4 154h215q172 0 263 -83t91 -235q0 -82 -36 -139.5t-108 -93.5q85 -26 121 -85t36 -150v-71v0z" />
    <glyph glyph-name="uni0506" unicode="&#x506;" horiz-adv-x="954" 
d="M131 628v154h166q116 0 169 66t53 191q0 127 -51.5 194.5t-160.5 67.5h-234l-3 155h237q200 0 306 -105t106 -309q0 -116 -49 -200t-144 -132q106 -38 150.5 -124t44.5 -220v-127q0 -67 12.5 -124t44.5 -91v-24h-207q-33 35 -41.5 99.5t-8.5 141.5v123q0 124 -50.5 194
t-141.5 70h-198zM874 37q0 -97 -42 -196.5t-110 -169.5l-104 67q35 71 52.5 140t17.5 153v169h187z" />
    <glyph glyph-name="uni0507" unicode="&#x507;" horiz-adv-x="906" 
d="M155 436l-1 145h188q82 0 121.5 43t39.5 125q0 85 -39.5 132.5t-121.5 47.5h-233l-3 153h236q173 0 268 -84t95 -240q0 -84 -38 -144t-112 -98q84 -30 120 -95t36 -162v-91q0 -44 8.5 -86.5t30.5 -63.5v-18h-206q-22 22 -27.5 70.5t-5.5 98.5v89q0 86 -39 132t-116 46
h-201zM852 30q0 -97 -42 -196.5t-110 -169.5l-104 67q35 71 52.5 140t17.5 153v169h187z" />
    <glyph glyph-name="uni0508" unicode="&#x508;" horiz-adv-x="1618" 
d="M1044 1456v-1103q-1 -104 29 -161.5t84 -57.5q93 1 142.5 104t53.5 291q0 99 -12 198t-37 204l195 1q28 -126 42 -217.5t12 -185.5q-3 -271 -114.5 -410.5t-281.5 -139.5q-149 -3 -227.5 85.5t-86.5 288.5v946h-339v-531q0 -406 -89.5 -587t-306.5 -181h-42v155h33
q111 0 158 140t47 473v688h740z" />
    <glyph glyph-name="uni0509" unicode="&#x509;" horiz-adv-x="1390" 
d="M846 1082v-729q-1 -104 30.5 -161.5t88.5 -57.5q73 1 112 90t42 252q0 95 -12 189.5t-36 191.5l195 1q27 -124 41 -209t12 -173q-3 -245 -103 -371t-251 -126q-152 -3 -232 85.5t-87 288.5v571h-202v-302q0 -324 -74.5 -473t-255.5 -149h-52l3 166l33 1q80 0 113 104.5
t33 350.5v460h602z" />
    <glyph glyph-name="uni050A" unicode="&#x50a;" horiz-adv-x="1667" 
d="M1049 1456v-1103q-1 -104 28.5 -161.5t83.5 -57.5q94 1 143.5 103.5t53.5 291.5q0 99 -12 198t-37 204l195 1q27 -130 41 -220t12 -183q-3 -271 -114.5 -410.5t-281.5 -139.5q-149 -3 -227.5 85.5t-85.5 288.5v288h-515v-641h-201v1456h201v-660h515v660h201z" />
    <glyph glyph-name="uni050B" unicode="&#x50b;" horiz-adv-x="1386" 
d="M646 462h-341v-462h-201v1082h201v-465h341v465h200v-729q-2 -104 29.5 -161.5t89.5 -57.5q73 1 112.5 90t42.5 252q0 94 -12.5 188.5t-36.5 192.5l195 1q28 -132 41.5 -213.5t11.5 -168.5q-3 -245 -102.5 -371t-251.5 -126q-152 -3 -231.5 85.5t-87.5 288.5v109z" />
    <glyph glyph-name="uni050C" unicode="&#x50c;" horiz-adv-x="1057" 
d="M574 -21q-220 0 -353 172t-133 446v262q0 273 133 445.5t353 172.5q92 0 162 -21t126 -63l-50 -141q-56 34 -112.5 51t-125.5 17q-133 0 -209 -130t-76 -329v-264q0 -202 76 -332.5t209 -130.5q101 1 154 77.5t56 217.5q1 82 -10 168.5t-31 188.5h195q29 -166 38 -222.5
t8 -134.5q-3 -222 -118.5 -336t-291.5 -114z" />
    <glyph glyph-name="uni050D" unicode="&#x50d;" horiz-adv-x="885" 
d="M497 134q65 1 91 44.5t28 130.5q0 59 -4 116.5t-11 111.5h195q11 -79 16.5 -128.5t5.5 -99.5q-3 -166 -89.5 -248t-231.5 -82q-198 0 -308.5 154.5t-110.5 386.5v42q0 231 106 385.5t296 154.5q78 0 134 -16.5t93 -48.5l-36 -148q-38 27 -86 41.5t-105 14.5
q-101 0 -151 -113t-50 -270v-42q0 -161 53.5 -273.5t164.5 -112.5z" />
    <glyph glyph-name="uni050E" unicode="&#x50e;" horiz-adv-x="1190" 
d="M402 1299h-363v157h927v-157h-364v-946q0 -104 29.5 -161.5t83.5 -57.5q94 1 143.5 104t52.5 291q1 97 -11.5 196t-36.5 206l194 1q28 -126 42 -217.5t12 -185.5q-3 -271 -114.5 -410.5t-281.5 -139.5q-149 -3 -227.5 85.5t-85.5 288.5v946z" />
    <glyph glyph-name="uni050F" unicode="&#x50f;" horiz-adv-x="1077" 
d="M324 927h-257v155h729v-155h-271v-574q-1 -104 30.5 -161.5t88.5 -57.5q74 1 113 77.5t42 217.5q1 79 -11.5 161.5t-36.5 165.5h194q28 -109 42 -181t12 -146q-3 -222 -103 -336t-252 -114q-152 -3 -232 85.5t-88 288.5v574z" />
    <glyph glyph-name="uni0510" unicode="&#x510;" horiz-adv-x="1121" 
d="M578 665q-132 0 -196 -63t-64 -202q0 -123 71 -195t202 -72q112 0 181 76t69 195h200q0 -213 -131.5 -319t-318.5 -106q-217 0 -345.5 110t-128.5 313q0 130 57 216t171 128q-101 47 -155.5 130.5t-54.5 188.5q0 202 120 307t336 105q185 0 309 -110t124 -296h-200
q0 112 -66 181t-167 69q-130 0 -192.5 -70t-62.5 -184q0 -119 57.5 -183.5t184.5 -64.5h154v-154h-154z" />
    <glyph glyph-name="uni2000" unicode="&#x2000;" horiz-adv-x="864" 
 />
    <glyph glyph-name="uni2001" unicode="&#x2001;" horiz-adv-x="1704" 
 />
    <glyph glyph-name="uni2002" unicode="&#x2002;" horiz-adv-x="864" 
 />
    <glyph glyph-name="uni2003" unicode="&#x2003;" horiz-adv-x="1704" 
 />
    <glyph glyph-name="uni2004" unicode="&#x2004;" horiz-adv-x="585" 
 />
    <glyph glyph-name="uni2005" unicode="&#x2005;" horiz-adv-x="444" 
 />
    <glyph glyph-name="uni2006" unicode="&#x2006;" horiz-adv-x="304" 
 />
    <glyph glyph-name="uni2007" unicode="&#x2007;" horiz-adv-x="950" 
 />
    <glyph glyph-name="uni2008" unicode="&#x2008;" horiz-adv-x="475" 
 />
    <glyph glyph-name="uni2009" unicode="&#x2009;" horiz-adv-x="360" 
 />
    <glyph glyph-name="uni200A" unicode="&#x200a;" horiz-adv-x="192" 
 />
    <glyph glyph-name="uni200B" unicode="&#x200b;" horiz-adv-x="25" 
 />
    <glyph glyph-name="endash" unicode="&#x2013;" horiz-adv-x="1162" 
d="M1020.49 649h-873.592v155h873.592v-155z" />
    <glyph glyph-name="emdash" unicode="&#x2014;" horiz-adv-x="1364" 
d="M1201.58 649h-1075.18v155h1075.18v-155z" />
    <glyph glyph-name="underscoredbl" unicode="&#x2017;" horiz-adv-x="767" 
d="M751 -404h-736v152h736v-152zM751 -152h-736v152h736v-152z" />
    <glyph glyph-name="quoteleft" unicode="&#x2018;" horiz-adv-x="388" 
d="M90 1219q0 98 39.5 196.5t105.5 167.5l105 -67q-37 -70 -53.5 -139t-16.5 -156v-182h-180v180z" />
    <glyph glyph-name="quoteright" unicode="&#x2019;" horiz-adv-x="384" 
d="M305 1377q0 -98 -40.5 -197.5t-106.5 -166.5l-104 67q35 69 53 138.5t18 156.5v185h180v-183z" />
    <glyph glyph-name="quotesinglbase" unicode="&#x201a;" horiz-adv-x="401" 
d="M304 78q0 -96 -40.5 -194.5t-106.5 -166.5l-103 65q35 72 52.5 141t17.5 154v188h181z" />
    <glyph glyph-name="quotereversed" unicode="&#x201b;" horiz-adv-x="366" 
d="M43.9971 1377q0 -98 40.498 -197.5q40.4971 -99.5 106.493 -166.5l103.994 67q-34.998 69 -52.9971 138.5t-17.999 156.5v185h-179.989v-183z" />
    <glyph glyph-name="quotedblleft" unicode="&#x201c;" horiz-adv-x="663" 
d="M92 1219q0 98 39.5 196.5t105.5 167.5l105 -67q-37 -70 -53.5 -139t-16.5 -156v-182h-180v180zM360 1219q0 98 39.5 196.5t105.5 167.5l105 -67q-37 -70 -53.5 -139t-16.5 -156v-182h-180v180z" />
    <glyph glyph-name="quotedblright" unicode="&#x201d;" horiz-adv-x="669" 
d="M316 1377q0 -98 -40.5 -197.5t-106.5 -166.5l-104 67q35 69 53 138.5t18 156.5v185h180v-183zM582 1377q0 -98 -40.5 -197.5t-106.5 -166.5l-104 67q35 69 53 138.5t18 156.5v185h180v-183z" />
    <glyph glyph-name="quotedblbase" unicode="&#x201e;" horiz-adv-x="653" 
d="M304 78q0 -96 -40.5 -194.5t-106.5 -166.5l-103 65q35 72 52.5 141t17.5 154v188h181zM565 78q0 -96 -40.5 -194.5t-106.5 -166.5l-104 65q36 72 53.5 141t17.5 154v188h180v-187z" />
    <glyph glyph-name="dagger" unicode="&#x2020;" horiz-adv-x="920" 
d="M859 923h-300v-923h-200v923h-296v159h296v374h200v-374h300v-159z" />
    <glyph glyph-name="daggerdbl" unicode="&#x2021;" horiz-adv-x="972" 
d="M882 0h-300v-416h-201v416h-294v154h294v771h-294v157h294v374h201v-374h300v-157h-300v-771h300v-154z" />
    <glyph glyph-name="bullet" unicode="&#x2022;" horiz-adv-x="625" 
d="M126 793q0 88 50 143.5t135 55.5q88 0 138.5 -55t50.5 -144v-72q0 -91 -50 -144.5t-137 -53.5t-137 54t-50 144v72z" />
    <glyph glyph-name="uni2025" unicode="&#x2025;" horiz-adv-x="849" 
d="M337 0h-200v200h200v-200zM707 0h-200v200h200v-200z" />
    <glyph glyph-name="ellipsis" unicode="&#x2026;" horiz-adv-x="1196" 
d="M337 0h-200v200h200v-200zM707 0h-200v200h200v-200zM1064 0h-200v200h200v-200z" />
    <glyph glyph-name="perthousand" unicode="&#x2030;" horiz-adv-x="1602" 
d="M668 357q0 129 67 214.5t182 85.5q60 0 106 -29t77 -81q30 52 75.5 81t106.5 29q116 0 183 -85.5t67 -214.5v-78q0 -130 -66.5 -215t-181.5 -85q-62 0 -108 28t-76 82q-31 -53 -76.5 -81.5t-105.5 -28.5q-116 0 -183 85t-67 215v78zM75 1176q0 130 64.5 215.5t177.5 85.5
q115 0 182 -85.5t67 -215.5v-77q0 -130 -66.5 -214.5t-181.5 -84.5q-113 0 -178 84.5t-65 214.5v77zM1173 279q0 -75 29.5 -127.5t82.5 -52.5q55 0 81.5 50.5t26.5 129.5v78q0 77 -28.5 128.5t-81.5 51.5q-55 0 -82.5 -51t-27.5 -129v-78zM807 279q0 -75 29.5 -127.5
t81.5 -52.5q57 0 83 50t26 130v78q0 77 -28.5 128.5t-81.5 51.5q-54 0 -82 -51.5t-28 -128.5v-78zM207 1099q0 -76 28 -127.5t83 -51.5q53 0 81 51t28 128v77q0 76 -28.5 128.5t-81.5 52.5q-55 0 -82.5 -52t-27.5 -129v-77zM391 113l-102 63l572 1138l102 -63z" />
    <glyph glyph-name="guilsinglleft" unicode="&#x2039;" horiz-adv-x="529" 
d="M268 552l198 -394h-137l-230 385v19l230 384h137z" />
    <glyph glyph-name="guilsinglright" unicode="&#x203a;" horiz-adv-x="520" 
d="M216 946l230 -386v-19l-230 -386h-137l197 395l-197 396h137z" />
    <glyph glyph-name="fraction" unicode="&#x2044;" horiz-adv-x="765" 
d="M148 113l-102 63l572 1138l102 -63z" />
    <glyph glyph-name="uni2074" unicode="&#x2074;" horiz-adv-x="777" 
d="M596 869h103v-126h-103v-183h-159v183h-372l-4 97l372 637h163v-608zM437 869v372h-3l-197 -372h200z" />
    <glyph glyph-name="nsuperior" unicode="&#x207f;" horiz-adv-x="715" 
d="M218 1452l24 -116l3 -1q28 62 72 96.5t104 34.5q101 0 154.5 -73.5t53.5 -233.5v-508h-159v474q0 111 -26.5 157.5t-78.5 46.5q-42 0 -69 -26t-42 -75v-577h-160v801h124z" />
    <glyph glyph-name="lira" unicode="&#x20a4;" horiz-adv-x="994" 
d="M413 468v-6q0 -92 -16 -171t-46 -137h573l-1 -154h-794v154h8q39 13 58 107.5t19 200.5v6h-135v138h130l-4 144h-128v139h123l-4 147q0 210 92.5 325.5t253.5 115.5q171 0 262 -106t91 -289h-201q0 125 -42 182t-110 57q-69 0 -107 -73.5t-38 -211.5l4 -147h309v-139
h-305l4 -144h304v-138h-300z" />
    <glyph glyph-name="peseta" unicode="&#x20a7;" horiz-adv-x="1413" 
d="M341 560v-560h-207v1456h306q199 0 307 -122.5t108 -323.5q0 -205 -108 -327.5t-307 -122.5h-99zM341 719h99q106 0 157 82.5t51 206.5t-51 206t-157 82h-99v-577zM1147 1351v-269h156v-145h-156v-644q0 -86 20 -120t54 -34q20 0 37 3t34 8l21 -139q-27 -14 -64.5 -22.5
t-77.5 -8.5q-109 0 -167 73.5t-58 239.5v644h-119v145h119v269h201z" />
    <glyph glyph-name="Euro" unicode="&#x20ac;" horiz-adv-x="912" 
d="M757 511h-367v-9q0 -174 60 -271.5t168 -97.5q46 0 90 8t87 26l16 -157q-47 -15 -95 -23t-98 -8q-195 0 -311.5 139.5t-116.5 383.5v9h-118v119h118v173h-118v119h118v23q0 247 115.5 389.5t310.5 142.5q49 0 94.5 -8t100.5 -23l-16 -160q-45 16 -89 25.5t-90 9.5
q-107 0 -166.5 -99t-59.5 -275v-25h367v-119h-367v-173h367v-119z" />
    <glyph glyph-name="uni2105" unicode="&#x2105;" horiz-adv-x="1237" 
d="M567 1049q0 -108 -61 -178.5t-170 -70.5q-111 0 -172.5 84t-61.5 215v77q0 131 61 216t171 85t171.5 -71.5t61.5 -179.5h-139q0 55 -24 93t-70 38t-69.5 -52.5t-23.5 -128.5v-77q0 -76 24 -127.5t71 -51.5q44 0 68 38.5t24 90.5h139zM655 279q0 -131 66 -215.5t184 -84.5
t183 84t65 216v78q0 131 -65.5 215.5t-183.5 84.5t-183.5 -85t-65.5 -215v-78zM794 357q0 77 28 128.5t82 51.5q53 0 82 -51.5t29 -128.5v-78q0 -79 -26.5 -129.5t-83.5 -50.5q-52 0 -81.5 52.5t-29.5 127.5v78zM947 1251l-102 63l-572 -1138l102 -63z" />
    <glyph glyph-name="uni2113" unicode="&#x2113;" horiz-adv-x="826" 
d="M601 -21q-191 0 -284.5 118t-93.5 334v11q-41 -10 -80 -14.5t-81 -4.5v155q44 0 83.5 5.5t77.5 17.5v476q0 190 72 295t202 105q113 0 182 -87t69 -238v-42q0 -161 -83.5 -319.5t-234.5 -259.5v-84q0 -147 38.5 -223.5t132.5 -76.5v-168zM561 1108v44q0 80 -16.5 121.5
t-43.5 41.5q-35 0 -53 -56t-18 -170v-354q66 76 98.5 172.5t32.5 200.5v0z" />
    <glyph glyph-name="uni2116" unicode="&#x2116;" horiz-adv-x="1831" 
d="M1673 382h-460v126h460v-126zM1166 1137q0 150 74.5 242.5t203.5 92.5q130 0 204.5 -92t74.5 -243v-117q0 -152 -74 -243t-203 -91q-131 0 -205.5 91t-74.5 243v117zM1306 1020q0 -96 35 -153t105 -57q67 0 102 57t35 153v117q0 94 -35 152t-104 58t-103.5 -58
t-34.5 -152v-117zM1051 0h-200l-515 1074l-3 -1v-1073h-201v1456h201l515 -1072l3 1v1071h200v-1456z" />
    <glyph glyph-name="trademark" unicode="&#x2122;" horiz-adv-x="1060" 
d="M823 1232l-3 1l-102 -316h-51l-107 333l-3 -1v-332h-91v539h112l113 -397h3l113 397h108v-539h-92v315zM407 1371h-109v-453h-98v453h-108v85h315v-85z" />
    <glyph glyph-name="estimated" unicode="&#x212e;" horiz-adv-x="1069" 
d="M852 94q-73 -56 -147 -85t-151 -29q-179 0 -300 162t-121 399q0 231 128 396t293 165q169 0 283.5 -153t114.5 -388v-47h-617v-328q45 -54 100 -82t119 -28q77 0 150.5 29.5t145.5 92.5zM554 1008q-61 0 -117 -32t-102 -90v-277h433v286q-44 54 -98.5 83.5t-115.5 29.5z
" />
    <glyph glyph-name="oneeighth" unicode="&#x215b;" horiz-adv-x="1423" 
d="M354 646h-155v666l-103 -3v126l258 23v-812zM364 113l-102 63l572 1138l102 -63zM1305 592q0 -60 -31 -105.5t-86 -71.5q63 -28 99.5 -77.5t36.5 -114.5q0 -113 -75 -173.5t-192 -60.5q-123 0 -201 60.5t-78 173.5q0 65 37.5 114.5t103.5 77.5q-58 26 -90 71.5t-32 105.5
q0 107 72.5 163.5t186.5 56.5q110 0 179.5 -56.5t69.5 -163.5zM1169 229q0 56 -32.5 90.5t-80.5 34.5q-53 0 -88.5 -34.5t-35.5 -90.5q0 -55 35.5 -87t89.5 -32q48 0 80 31.5t32 87.5zM1149 585q0 48 -27 76t-66 28q-45 0 -74 -27t-29 -77q0 -51 29.5 -80.5t74.5 -29.5
q39 0 65.5 30t26.5 80z" />
    <glyph glyph-name="threeeighths" unicode="&#x215c;" horiz-adv-x="1545" 
d="M355 1124q53 0 77 29.5t24 85.5q0 49 -25 79.5t-75 30.5q-44 0 -68.5 -27t-24.5 -73h-155q0 103 69 163t177 60q122 0 190 -58t68 -170q0 -57 -28.5 -102.5t-80.5 -71.5q59 -24 89.5 -70.5t30.5 -117.5q0 -113 -71 -173t-194 -60q-113 0 -187 58.5t-74 177.5h155
q0 -53 27.5 -84t77.5 -31q52 0 81 30.5t29 85.5q0 65 -27.5 95t-84.5 30h-97v113h97zM512 113l-102 63l572 1138l102 -63zM1427 592q0 -60 -31 -105.5t-86 -71.5q63 -28 99.5 -77.5t36.5 -114.5q0 -113 -75 -173.5t-192 -60.5q-123 0 -201 60.5t-78 173.5q0 65 37.5 114.5
t103.5 77.5q-58 26 -90 71.5t-32 105.5q0 107 72.5 163.5t186.5 56.5q110 0 179.5 -56.5t69.5 -163.5zM1291 229q0 56 -32.5 90.5t-80.5 34.5q-53 0 -88.5 -34.5t-35.5 -90.5q0 -55 35.5 -87t89.5 -32q48 0 80 31.5t32 87.5zM1271 585q0 48 -27 76t-66 28q-45 0 -74 -27
t-29 -77q0 -51 29.5 -80.5t74.5 -29.5q39 0 65.5 30t26.5 80z" />
    <glyph glyph-name="fiveeighths" unicode="&#x215d;" horiz-adv-x="1583" 
d="M124 1001l41 454h429v-124h-292l-16 -201q22 19 53 32t66 14q108 3 168 -67t60 -197q0 -126 -65 -197.5t-203 -71.5q-117 0 -192.5 55t-75.5 169l154 10q0 -55 30.5 -84t83.5 -29q58 0 85.5 36.5t27.5 108.5q0 70 -28 110.5t-76 40.5q-51 0 -76.5 -17.5t-36.5 -50.5z
M558 113l-102 63l572 1138l102 -63zM1465 592q0 -60 -31 -105.5t-86 -71.5q63 -28 99.5 -77.5t36.5 -114.5q0 -113 -75 -173.5t-192 -60.5q-123 0 -201 60.5t-78 173.5q0 65 37.5 114.5t103.5 77.5q-58 26 -90 71.5t-32 105.5q0 107 72.5 163.5t186.5 56.5
q110 0 179.5 -56.5t69.5 -163.5zM1329 229q0 56 -32.5 90.5t-80.5 34.5q-53 0 -88.5 -34.5t-35.5 -90.5q0 -55 35.5 -87t89.5 -32q48 0 80 31.5t32 87.5zM1309 585q0 48 -27 76t-66 28q-45 0 -74 -27t-29 -77q0 -51 29.5 -80.5t74.5 -29.5q39 0 65.5 30t26.5 80z" />
    <glyph glyph-name="seveneighths" unicode="&#x215e;" horiz-adv-x="1454" 
d="M574 1332q-107 -163 -149 -262.5t-42 -288.5v-127h-156v127q0 186 56.5 310.5t139.5 240.5h-327v123h478v-123zM408 113l-102 63l572 1138l102 -63zM1337 592q0 -60 -31 -105.5t-86 -71.5q63 -28 99.5 -77.5t36.5 -114.5q0 -113 -75 -173.5t-192 -60.5q-123 0 -201 60.5
t-78 173.5q0 65 37.5 114.5t103.5 77.5q-58 26 -90 71.5t-32 105.5q0 107 72.5 163.5t186.5 56.5q110 0 179.5 -56.5t69.5 -163.5zM1201 229q0 56 -32.5 90.5t-80.5 34.5q-53 0 -88.5 -34.5t-35.5 -90.5q0 -55 35.5 -87t89.5 -32q48 0 80 31.5t32 87.5zM1181 585
q0 48 -27 76t-66 28q-45 0 -74 -27t-29 -77q0 -51 29.5 -80.5t74.5 -29.5q39 0 65.5 30t26.5 80z" />
    <glyph glyph-name="partialdiff" unicode="&#x2202;" horiz-adv-x="1001" 
d="M405 1517q230 -82 364 -299t134 -551v-128q0 -252 -120 -406t-306 -154q-185 0 -298 136.5t-113 346.5q0 238 99.5 372t282.5 134q70 0 130.5 -28t105.5 -80l3 1q-31 198 -122 315t-223 177zM480 134q98 0 160 113t62 292v103q-29 76 -88 125.5t-146 49.5
q-103 0 -152.5 -97.5t-49.5 -257.5q0 -135 57 -231.5t157 -96.5z" />
    <glyph glyph-name="product" unicode="&#x220f;" horiz-adv-x="1172" 
d="M1030 -235h-174v1537h-537v-1537h-173v1691h884v-1691z" />
    <glyph glyph-name="summation" unicode="&#x2211;" horiz-adv-x="1028" 
d="M746 578l-448 -692h694v-155h-929v126l472 735l-472 737v127h886v-155h-651l448 -696v-27z" />
    <glyph glyph-name="minus" unicode="&#x2212;" horiz-adv-x="951" 
d="M809 649h-672v155h672v-155z" />
    <glyph glyph-name="radical" unicode="&#x221a;" horiz-adv-x="984" 
d="M448 339l25 -122h3l23 122l273 1117h168l-384 -1456h-157l-184 604h-156v155h288z" />
    <glyph glyph-name="infinity" unicode="&#x221e;" horiz-adv-x="1730" 
d="M1632 506q0 -231 -106.5 -379t-289.5 -148q-129 0 -220 98t-154 249q-65 -152 -156 -249.5t-219 -97.5q-183 0 -288.5 148t-105.5 379v67q0 230 105 379.5t288 149.5q129 0 220 -97.5t156 -246.5q64 149 155 246.5t221 97.5q181 0 287.5 -149.5t106.5 -379.5v-67z
M292 506q0 -168 49 -270.5t146 -102.5q105 0 176.5 140.5t95.5 249.5v39q-25 108 -96 246t-177 138q-96 0 -145 -104t-49 -269v-67zM1431 573q0 165 -49 269t-144 104q-108 0 -177.5 -135.5t-96.5 -248.5v-39q26 -112 96.5 -251t175.5 -139q96 0 145.5 103t49.5 270v67z" />
    <glyph glyph-name="integral" unicode="&#x222b;" horiz-adv-x="466" 
d="M337 -74q0 -177 -74.5 -270t-211.5 -93q-29 0 -51.5 4.5t-50.5 13.5l12 151q14 -5 36 -9t41 -4q48 0 73.5 53.5t25.5 153.5v1295q0 176 78 268t223 92q29 0 58 -5.5t66 -15.5l-21 -146q-18 5 -35 8t-40 3q-64 0 -96.5 -52.5t-32.5 -151.5v-1295v0z" />
    <glyph glyph-name="approxequal" unicode="&#x2248;" horiz-adv-x="964" 
d="M101 866q39 70 87.5 108t102.5 38q57 2 88.5 -13t105.5 -60q68 -43 97.5 -56.5t84.5 -13.5q52 0 101 37.5t86 104.5h3l8 -157q-40 -71 -88.5 -108.5t-101.5 -37.5q-54 0 -86.5 14t-95.5 55q-75 46 -106.5 61t-88.5 13q-53 0 -101 -37.5t-85 -104.5h-3zM94 447
q38 70 86.5 108t102.5 38q57 2 88.5 -13t105.5 -60q69 -44 98.5 -57.5t83.5 -13.5q52 0 101 38t86 105l3 -1l8 -157q-40 -71 -88.5 -108.5t-101.5 -37.5q-55 0 -87 14t-95 55q-75 46 -106.5 61t-88.5 13q-53 0 -101.5 -38t-84.5 -104l-3 1z" />
    <glyph glyph-name="notequal" unicode="&#x2260;" horiz-adv-x="913" 
d="M661 961h171v-160h-243l-115 -258h358v-161h-430l-109 -244l-81 56l84 188h-161v161h232l115 258h-347v160h419l115 258l82 -57z" />
    <glyph glyph-name="lessequal" unicode="&#x2264;" horiz-adv-x="906" 
d="M396 749.721l-48 -13.501v-2.7002l48 -13.5l468 -216.006v-172.805l-677 337.509v136.804l677 336.609v-172.805zM821 12h-672v155h672v-155z" />
    <glyph glyph-name="greaterequal" unicode="&#x2265;" horiz-adv-x="909" 
d="M142 987.327v169.204l695 -337.509v-135.904l-695 -337.509v170.104l487 222.306l48 13.501v2.7002l-48 14.4004zM817 11h-672v155h672v-155z" />
    <glyph glyph-name="lozenge" unicode="&#x25ca;" horiz-adv-x="871" 
d="M347 1456h177l309 -729l-307 -727h-177l-308 727zM624 727l-172 507l-16 57h-3l-16 -57l-170 -507l174 -507l16 -57h3l16 57z" />
    <glyph glyph-name="colon.lnum" unicode="&#xee01;" horiz-adv-x="508" 
d="M353 179h-200v200h200v-200zM353 1060h-200v200h200v-200z" />
    <glyph glyph-name="quotedblx" unicode="&#xee02;" horiz-adv-x="556" 
d="M217 652h-126v429h126v-429zM472 652h-127v429h127v-429z" />
    <glyph glyph-name="commaaccent" unicode="&#xf6c3;" horiz-adv-x="420" 
d="M288 119q0 -89 -31.5 -177t-86.5 -149l-104 67q30 62 45 120t15 133v111h162v-105z" />
    <glyph glyph-name="uniFEFF" unicode="&#xfeff;" horiz-adv-x="25" 
 />
    <glyph glyph-name="uniFFFC" unicode="&#xfffc;" horiz-adv-x="1710" 
d="M673 580q0 98 -51 158.5t-134 60.5q-84 0 -134.5 -60.5t-50.5 -158.5v-112q0 -100 50.5 -159.5t136.5 -59.5q83 0 133 59.5t50 159.5v112zM905 252q76 0 117.5 38.5t41.5 116.5q0 46 -22 80t-61 47q33 16 50.5 46.5t17.5 70.5q0 76 -44 113t-126 37h-151v-549h177z
M600 468q0 -71 -29 -109t-81 -38q-54 0 -83.5 38t-29.5 109v112q0 69 29 108t82 39q52 0 82 -39t30 -108v-112zM1367 425q0 -44 -21.5 -71t-54.5 -27q-41 0 -62.5 22t-21.5 69h-75q0 -83 41.5 -123.5t117.5 -40.5q66 0 107.5 45.5t41.5 125.5v378h-73v-378zM84 -398v315h90
v-202h158v-113h-248zM1393 -398v113h160v202h89v-315h-249zM84 1169v285h248v-116h-158v-169h-90zM1393 1338v116h249v-285h-89v169h-160zM905 496h4q38 -2 58.5 -24.5t20.5 -61.5q0 -41 -21 -62t-62 -21h-101v169h101zM751 1338v116h224v-116h-224zM1073 1338v116h223v-116
h-223zM431 1338v116h222v-116h-222zM751 -398v113h224v-113h-224zM1073 -398v113h223v-113h-223zM431 -398v113h222v-113h-222zM804 717h75q50 0 72.5 -16t22.5 -55q0 -40 -24 -60t-71 -20h-75v151zM174 416h-90v252h90v-252zM174 794h-90v250h90v-250zM1642 416h-89v252h89
v-252zM174 41h-90v249h90v-249zM1642 794h-89v250h89v-250zM1642 41h-89v249h89v-249z" />
    <glyph glyph-name="uniFFFD" unicode="&#xfffd;" horiz-adv-x="1713" 
d="M855 1618l771 -975l-771 -975l-769 975zM921 402q0 54 10 83.5t44 56.5q58 40 95.5 104t37.5 144q0 131 -66.5 205t-187.5 74q-112 0 -178 -64.5t-68 -201.5h163q1 52 24 77.5t59 25.5q44 0 67.5 -31t23.5 -85q0 -50 -20.5 -88t-54.5 -67q-64 -57 -87.5 -100t-23.5 -133
h162zM921 311h-162v-170h162v170zM861 -551h3v-4h-3v4zM860 2146h3v-4h-3v4z" />
    <glyph glyph-name="five.smcp" horiz-adv-x="890" 
d="M110 507l57 658h578v-159h-401l-24 -325q32 28 74 47.5t90 20.5q149 3 230.5 -95.5t81.5 -282.5q0 -181 -87.5 -284.5t-274.5 -103.5q-157 0 -259.5 80.5t-102.5 245.5l201 12q0 -87 43.5 -136t117.5 -49q84 0 122.5 60.5t38.5 177.5q0 108 -39.5 169t-113.5 61
q-70 0 -105 -29t-51 -81z" />
    <glyph glyph-name="four.sup" horiz-adv-x="752" 
d="M568 277h90v-122h-90v-155h-155v155h-332l-9 95l340 551h156v-524zM234 277h179v323l-3 1l-12 -21z" />
    <glyph glyph-name="zero.lnum" horiz-adv-x="968" 
d="M869 563q0 -288 -102 -436t-282 -148q-182 0 -284.5 148t-102.5 436v329q0 287 102 436t283 149t283.5 -149t102.5 -436v-329zM669 921q0 202 -47 301t-139 99q-91 0 -137.5 -99.5t-46.5 -300.5v-386q0 -202 47 -302t139 -100q91 0 137.5 99.5t46.5 302.5v386z" />
    <glyph glyph-name="largerighthook" horiz-adv-x="677" 
d="M-65 834h200q232 0 358 -145t126 -432q0 -250 -101.5 -402.5t-312.5 -152.5v148q123 0 168 107.5t45 295.5q0 214 -70 317t-213 103h-200v161z" />
    <glyph glyph-name="cyrillichook" horiz-adv-x="449" 
d="M334 174v-248q0 -177 -74 -270t-211 -93q-30 0 -52.5 4.5t-50.5 13.5l11 157q15 -5 37.5 -9.5t40.5 -4.5q48 0 73.5 51.5t25.5 150.5v248h200z" />
    <glyph glyph-name="cyrillichookleft" horiz-adv-x="500" 
d="M233 55q80 -51 117.5 -118.5t37.5 -143.5q0 -94 -55 -144t-142 -50q-54 0 -90.5 12.5t-67.5 31.5l28 116q17 -11 38.5 -19t48.5 -8q45 0 63 24.5t18 57.5q0 51 -23.5 93t-66.5 93z" />
    <glyph glyph-name="cyrillictic" horiz-adv-x="379" 
d="M287 -356h-200v513h200v-513z" />
    <glyph glyph-name="brevetildecomb" horiz-adv-x="771" 
d="M627 1451q0 -100 -70 -160t-191 -60q-122 0 -191.5 60t-69.5 160h142q0 -57 27.5 -91t91.5 -34q62 0 90 34t28 91h143zM600 1711q0 -74 -38 -123.5t-96 -49.5q-46 0 -98.5 38.5t-85.5 38.5q-25 0 -41.5 -25.5t-16.5 -64.5l-84 22q0 72 36.5 123t95.5 51q36 0 92.5 -38
t90.5 -38q25 0 42 25t17 65z" />
    <glyph glyph-name="brevehookcomb" horiz-adv-x="770" 
d="M485 1456q0 -55 -29 -88.5t-90 -33.5q-63 0 -91.5 33.5t-28.5 88.5h-141q0 -99 69 -156.5t192 -57.5q122 0 191.5 57.5t69.5 156.5h-142zM303 1469l-8 113q59 3 84 17t25 46q0 35 -30.5 50t-86.5 15l6 81q127 0 192.5 -38t65.5 -107q0 -56 -33.5 -84.5t-84.5 -35.5
l-1 -57h-129z" />
    <glyph glyph-name="breveacutecomb" horiz-adv-x="770" 
d="M633 1456q0 -99 -71 -157.5t-193 -58.5q-124 0 -194 58.5t-70 157.5h143q0 -56 28.5 -90t92.5 -34q63 0 91.5 34t28.5 90h144zM406 1658h149l-136 -198h-106z" />
    <glyph glyph-name="circumflextildecomb" horiz-adv-x="855" 
d="M704 1254h-158l-140 155l-141 -155h-157l238 234h119zM615 1705q0 -64 -34 -108.5t-86 -44.5q-40 0 -89 38t-78 38q-22 0 -37.5 -25t-15.5 -57l-73 20q0 64 32.5 111.5t84.5 47.5q32 0 85 -37.5t82 -37.5q22 0 38 23t16 56z" />
    <glyph glyph-name="circumflexhookcomb" horiz-adv-x="857" 
d="M479 1500h-148l-223 -246h157l141 172l140 -172h158zM629 1384l-6 119q53 4 74 17.5t21 46.5q0 37 -27 53t-75 16l4 91q111 0 168 -41.5t57 -115.5q0 -61 -29.5 -92t-74.5 -38l-1 -56h-111z" />
    <glyph glyph-name="circumflexgravecomb" horiz-adv-x="855" 
d="M704 1243h-172l-127 155l-126 -155h-171l233 245h129zM168 1396h-127l-173 252h178z" />
    <glyph glyph-name="circumflexacutecomb" horiz-adv-x="855" 
d="M344 1500h130l232 -246h-170l-128 155l-126 -155h-171zM769 1659h179l-175 -251h-127z" />
    <glyph glyph-name="brevegravecomb" horiz-adv-x="771" 
d="M649 1456q0 -122 -75.5 -195t-205.5 -73q-132 0 -207 72.5t-75 195.5h148q0 -65 32 -104.5t102 -39.5q69 0 100.5 39.5t31.5 104.5h149zM458 1463h-158l-169 213h205z" />
    <glyph glyph-name="commaaccentrotate" horiz-adv-x="439" 
d="M126 1314l94 238h105l-23 -244v-146h-176v152z" />
    <glyph glyph-name="A.smcp" horiz-adv-x="1010" 
d="M689 263h-368l-78 -263h-209l368 1165h207l368 -1165h-209zM367 417h275l-136 455h-3z" />
    <glyph glyph-name="B.smcp" horiz-adv-x="963" 
d="M124 0v1165h350q176 0 270.5 -78t94.5 -238q0 -87 -41.5 -152.5t-118.5 -96.5v-3q96 -23 146.5 -96.5t50.5 -174.5q0 -164 -89 -245t-258 -81h-405zM324 522v-370h205q77 0 112 45.5t35 137.5q0 90 -35.5 138.5t-111.5 48.5h-205zM324 658h150q82 0 123 43.5t41 130.5
q0 91 -39.5 129t-124.5 38h-150v-341z" />
    <glyph glyph-name="C.smcp" horiz-adv-x="967" 
d="M875 392q-13 -206 -112 -307.5t-272 -101.5q-177 0 -286.5 136.5t-109.5 362.5v199q0 225 109.5 362.5t286.5 137.5q176 0 274.5 -102t111.5 -307h-201q-13 133 -55.5 194t-129.5 61q-91 0 -143.5 -95.5t-52.5 -249.5v-200q0 -155 52.5 -250.5t143.5 -95.5
q90 0 130.5 58.5t53.5 197.5h200z" />
    <glyph glyph-name="D.smcp" horiz-adv-x="989" 
d="M124 0v1165h356q178 0 294 -132t116 -346v-210q0 -214 -116 -345.5t-294 -131.5h-356zM324 1011v-859h156q92 0 150.5 90.5t58.5 234.5v211q0 141 -58.5 232t-150.5 91h-156z" />
    <glyph glyph-name="E.smcp" horiz-adv-x="904" 
d="M726 528h-402v-376h473v-152h-673v1165h673v-154h-473v-329h402v-154z" />
    <glyph glyph-name="F.smcp" horiz-adv-x="882" 
d="M737 502h-413v-502h-200v1165h683v-154h-483v-354h413v-155z" />
    <glyph glyph-name="G.smcp" horiz-adv-x="1024" 
d="M914 158q-49 -71 -144.5 -123t-249.5 -52q-193 0 -309 130.5t-116 347.5v243q0 215 115.5 346t302.5 131q181 0 277.5 -94.5t112.5 -268.5l-200 -2q-12 108 -57.5 159.5t-132.5 51.5q-100 0 -159 -89.5t-59 -232.5v-244q0 -147 59.5 -236t165.5 -89q78 0 123.5 21.5
t71.5 54.5v240h-191v145h390v-439z" />
    <glyph glyph-name="H.smcp" horiz-adv-x="1070" 
d="M936 0h-200v493h-412v-493h-200v1165h200v-519h412v519h200v-1165z" />
    <glyph glyph-name="I.smcp" horiz-adv-x="455" 
d="M325 0h-201v1165h201v-1165z" />
    <glyph glyph-name="J.smcp" horiz-adv-x="867" 
d="M544 1165h200v-806q0 -175 -94.5 -275.5t-247.5 -100.5q-167 0 -261 89.5t-94 269.5h200q0 -106 41.5 -156.5t113.5 -50.5q63 0 102.5 60t39.5 164v806z" />
    <glyph glyph-name="K.smcp" horiz-adv-x="946" 
d="M405 498h-81v-498h-200v1165h200v-500h69l251 500h248l-333 -542l354 -623h-255z" />
    <glyph glyph-name="L.smcp" horiz-adv-x="793" 
d="M324 152h405v-152h-605v1165h200v-1013z" />
    <glyph glyph-name="M.smcp" horiz-adv-x="1266" 
d="M627 245h3l251 920h252v-1165h-201v756h-3l-233 -756h-135l-234 761h-3v-761h-200v1165h253z" />
    <glyph glyph-name="N.smcp" horiz-adv-x="1080" 
d="M944 0h-200l-417 798h-3v-798h-200v1165h200l417 -797h3v797h200v-1165z" />
    <glyph glyph-name="O.smcp" horiz-adv-x="1010" 
d="M917 482q0 -229 -112.5 -364t-298.5 -135q-188 0 -300.5 135t-112.5 364v199q0 228 112 364t299 136q186 0 299.5 -136t113.5 -364v-199zM717 682q0 164 -56 254.5t-157 90.5q-102 0 -156.5 -90.5t-54.5 -254.5v-200q0 -166 55 -256.5t158 -90.5q100 0 155.5 90.5
t55.5 256.5v200z" />
    <glyph glyph-name="Q.smcp" horiz-adv-x="1024" 
d="M918 482q0 -106 -25.5 -191t-74.5 -152l135 -154l-132 -106l-131 147q-42 -22 -87.5 -32.5t-95.5 -10.5q-187 0 -299.5 135t-112.5 364v199q0 228 111.5 364t298.5 136t300 -136t113 -364v-199zM718 682q0 164 -56 254.5t-157 90.5t-155.5 -90.5t-54.5 -254.5v-200
q0 -166 55 -256.5t157 -90.5q101 0 156 90.5t55 256.5v200z" />
    <glyph glyph-name="R.smcp" horiz-adv-x="982" 
d="M324 472v-472h-200v1165h372q174 0 268.5 -88.5t94.5 -252.5q0 -95 -41.5 -161.5t-123.5 -106.5q93 -30 132 -99.5t39 -177.5v-97q0 -48 6 -95t23 -70v-17h-206q-16 24 -19.5 76t-3.5 107v95q0 94 -39.5 144t-115.5 50h-186zM324 626h172q83 0 122.5 48t39.5 141
q0 92 -40 144t-122 52h-172v-385z" />
    <glyph glyph-name="S.smcp" horiz-adv-x="937" 
d="M656 304q0 73 -42 116.5t-159 85.5q-186 54 -266 126.5t-80 225.5q0 148 97 235.5t269 87.5q177 0 273 -93t96 -268h-200q0 97 -41.5 152.5t-127.5 55.5q-87 0 -127 -46.5t-40 -121.5q0 -76 39 -117.5t169 -84.5q178 -54 259 -129t81 -224q0 -153 -103 -237.5t-283 -84.5
q-182 0 -289 87t-107 274h200q1 -114 54.5 -161.5t141.5 -47.5q93 0 139.5 46.5t46.5 122.5z" />
    <glyph glyph-name="T.smcp" horiz-adv-x="887" 
d="M820 1011h-282v-1011h-201v1011h-278v154h761v-154z" />
    <glyph glyph-name="U.smcp" horiz-adv-x="1053" 
d="M935 1165v-764q0 -201 -111.5 -309.5t-299.5 -108.5q-189 0 -300.5 108.5t-111.5 309.5v764h200v-764q0 -128 56 -197t156 -69t155.5 68.5t55.5 197.5v764h200z" />
    <glyph glyph-name="V.smcp" horiz-adv-x="989" 
d="M475 264l13 -58h3l13 56l232 903h211l-354 -1165h-206l-354 1165h212z" />
    <glyph glyph-name="W.smcp" horiz-adv-x="1273" 
d="M880 390h3l122 775h212l-228 -1165h-192l-161 748h-3l-161 -748h-192l-227 1165h210l123 -778h3l160 778h173z" />
    <glyph glyph-name="X.smcp" horiz-adv-x="960" 
d="M472 727l190 438h234l-299 -577l305 -588h-231l-197 448l-195 -448h-233l307 588l-300 577h232z" />
    <glyph glyph-name="Y.smcp" horiz-adv-x="914" 
d="M455 627l210 538h220l-332 -747v-418h-200v429l-327 736h220z" />
    <glyph glyph-name="Z.smcp" horiz-adv-x="912" 
d="M300 152h521v-152h-750v103l506 908h-480v154h712v-100z" />
    <glyph glyph-name="zero.smcp" horiz-adv-x="958" 
d="M854 411q0 -202 -102 -315t-275 -113q-174 0 -276.5 113t-102.5 315v343q0 200 102 313.5t275 113.5t276 -113.5t103 -313.5v-343zM653 755q0 127 -47 199.5t-131 72.5q-83 0 -129.5 -73t-46.5 -199v-344q0 -129 47 -202t131 -73q82 0 129 73t47 202v344z" />
    <glyph glyph-name="one.smcp" horiz-adv-x="546" 
d="M416 0h-200v985l-154 -7v147l354 56v-1181z" />
    <glyph glyph-name="two.smcp" horiz-adv-x="850" 
d="M751 0h-659v152l333 405q68 97 94.5 156t26.5 120q0 87 -29.5 140.5t-91.5 53.5q-71 0 -109 -58t-38 -149h-200q0 157 93 259t254 102q155 0 237.5 -88.5t82.5 -259.5q0 -117 -56 -208t-178 -221l-173 -252h413v-152z" />
    <glyph glyph-name="three.smcp" horiz-adv-x="876" 
d="M429 665q72 0 105 46.5t33 133.5q0 80 -36 131t-106 51q-62 0 -100.5 -47.5t-38.5 -125.5h-200q0 151 94 239t238 88q165 0 257 -84t92 -245q0 -84 -40 -150.5t-111 -104.5q82 -34 124.5 -102.5t42.5 -171.5q0 -163 -99.5 -251.5t-265.5 -88.5q-144 0 -245 85.5
t-101 256.5h200q0 -82 41.5 -135.5t112.5 -53.5q73 0 114 53t41 139q0 103 -37.5 148.5t-114.5 45.5h-151v143h151z" />
    <glyph glyph-name="four.smcp" horiz-adv-x="928" 
d="M724 388h131v-154h-131v-234h-200v234h-458l-9 123l465 808h202v-777zM267 388h257v512l-3 1l-3 -6z" />
    <glyph glyph-name="two.lnum" horiz-adv-x="950" 
d="M879 0h-780v135l380 526q93 139 128 226.5t35 173.5q0 117 -44 188.5t-124 71.5q-101 0 -149.5 -78.5t-48.5 -219.5h-200q0 197 105 325.5t293 128.5q174 0 271.5 -110.5t97.5 -299.5q0 -128 -59 -247.5t-177 -270.5l-257 -395h529v-154z" />
    <glyph glyph-name="six.smcp" horiz-adv-x="899" 
d="M500 1181q63 0 118 -13t106 -38l-33 -147q-44 24 -87.5 34t-102.5 10q-90 0 -146.5 -80t-56.5 -212v-97q40 47 94.5 72.5t122.5 25.5q152 0 231.5 -97t79.5 -275q0 -173 -99.5 -277t-264.5 -104q-159 0 -261 123t-102 324v303q0 203 113 325.5t288 122.5zM468 585
q-62 0 -105.5 -29t-64.5 -80v-46q0 -129 48.5 -212t122.5 -83q72 0 114 64t42 162q0 109 -37.5 166.5t-119.5 57.5z" />
    <glyph glyph-name="seven.smcp" horiz-adv-x="780" 
d="M712 1011q-147 -240 -207.5 -393t-60.5 -433v-185h-200v185q0 271 69.5 425t216.5 401h-471v154h653v-154z" />
    <glyph glyph-name="eight.smcp" horiz-adv-x="904" 
d="M791 863q0 -90 -44 -156.5t-121 -103.5q90 -39 141.5 -110.5t51.5 -168.5q0 -164 -102 -252.5t-261 -88.5q-167 0 -273 88.5t-106 252.5q0 97 53 169t147 111q-81 37 -126 103t-45 156q0 154 97 236t251 82q149 0 243 -82t94 -236zM619 331q0 86 -48 140t-117 54
q-75 0 -125.5 -54t-50.5 -140q0 -90 50.5 -142.5t127.5 -52.5q69 0 116 52.5t47 142.5zM590 855q0 77 -39 124.5t-97 47.5q-65 0 -107 -46t-42 -126q0 -79 43 -127t108 -48q57 0 95.5 48t38.5 127z" />
    <glyph glyph-name="nine.smcp" horiz-adv-x="882" 
d="M400 136q76 0 126.5 73t50.5 187v97q-36 -41 -81 -61t-97 -20q-161 0 -249 101t-88 277q0 169 99.5 280t262.5 111q155 0 254.5 -122.5t99.5 -322.5v-339q0 -185 -104.5 -299.5t-266.5 -114.5q-60 0 -122 13t-120 37l31 146q49 -24 95.5 -33.5t108.5 -9.5zM418 553
q57 0 97 30t62 79v78q0 126 -46 206.5t-117 80.5q-70 0 -111 -72t-41 -168q0 -104 39.5 -169t116.5 -65z" />
    <glyph glyph-name="one.sup" horiz-adv-x="477" 
d="M339 0h-155v666l-103 -3v126l258 23v-812z" />
    <glyph glyph-name="two.sup" horiz-adv-x="709" 
d="M596 0h-489v121l246 267q52 61 67.5 99t15.5 84q0 54 -20.5 86t-64.5 32q-49 0 -74 -34.5t-25 -91.5h-155q0 107 69 178t187 71q115 0 176.5 -62t61.5 -180q0 -80 -41 -141t-136 -159l-116 -149h298v-121z" />
    <glyph glyph-name="three.sup" horiz-adv-x="723" 
d="M346 464q53 0 77 29.5t24 85.5q0 49 -25 79.5t-75 30.5q-44 0 -68.5 -27t-24.5 -73h-155q0 103 69 163t177 60q122 0 190 -58t68 -170q0 -57 -28.5 -102.5t-80.5 -71.5q59 -24 89.5 -70.5t30.5 -117.5q0 -113 -71 -173t-194 -60q-113 0 -187 58.5t-74 177.5h155
q0 -53 27.5 -84t77.5 -31q52 0 81 30.5t29 85.5q0 65 -27.5 95t-84.5 30h-97v113h97z" />
    <glyph glyph-name="one.lnum" horiz-adv-x="638" 
d="M484 0h-201v1245l-229 -19v131l430 100v-1457z" />
    <glyph glyph-name="five.sup" horiz-adv-x="736" 
d="M122 347l41 454h429v-124h-292l-16 -201q22 19 53 32t66 14q108 3 168 -67t60 -197q0 -126 -65 -197.5t-203 -71.5q-117 0 -192.5 55t-75.5 169l154 10q0 -55 30.5 -84t83.5 -29q58 0 85.5 36.5t27.5 108.5q0 70 -28 110.5t-76 40.5q-51 0 -76.5 -17.5t-36.5 -50.5z" />
    <glyph glyph-name="six.sup" horiz-adv-x="736" 
d="M398 812q44 0 84.5 -9t79.5 -26l-25 -118q-32 15 -64.5 22.5t-72.5 7.5q-64 0 -104 -49.5t-40 -135.5v-58q30 31 69.5 47.5t90.5 16.5q109 0 165.5 -67.5t56.5 -189.5q0 -120 -73.5 -192t-194.5 -72q-118 0 -193.5 84.5t-75.5 223.5v206q0 140 83.5 224.5t213.5 84.5z
M372 390q-43 0 -72 -16.5t-44 -47.5v-29q0 -84 33 -135.5t84 -51.5q52 0 81.5 38.5t29.5 101.5q0 68 -27.5 104t-84.5 36z" />
    <glyph glyph-name="seven.sup" horiz-adv-x="639" 
d="M554 678q-107 -163 -149 -262.5t-42 -288.5v-127h-156v127q0 186 56.5 310.5t139.5 240.5h-327v123h478v-123z" />
    <glyph glyph-name="eight.sup" horiz-adv-x="747" 
d="M622 592q0 -60 -31 -105.5t-86 -71.5q63 -28 99.5 -77.5t36.5 -114.5q0 -113 -75 -173.5t-192 -60.5q-123 0 -201 60.5t-78 173.5q0 65 37.5 114.5t103.5 77.5q-58 26 -90 71.5t-32 105.5q0 107 72.5 163.5t186.5 56.5q110 0 179.5 -56.5t69.5 -163.5zM486 229
q0 56 -32.5 90.5t-80.5 34.5q-53 0 -88.5 -34.5t-35.5 -90.5q0 -55 35.5 -87t89.5 -32q48 0 80 31.5t32 87.5zM466 585q0 48 -27 76t-66 28q-45 0 -74 -27t-29 -77q0 -51 29.5 -80.5t74.5 -29.5q39 0 65.5 30t26.5 80z" />
    <glyph glyph-name="nine.sup" horiz-adv-x="722" 
d="M337 110q54 0 89 45t35 118v65q-26 -30 -58.5 -45t-68.5 -15q-117 0 -181.5 71t-64.5 194q0 117 71.5 193t189.5 76q117 0 192 -85t75 -224v-229q0 -128 -78.5 -206.5t-200.5 -78.5q-43 0 -87.5 8.5t-85.5 25.5l26 118q35 -17 68 -24t79 -7zM352 391q42 0 69.5 21
t39.5 55v36q0 83 -32 134.5t-82 51.5q-48 0 -76 -44t-28 -105q0 -67 27 -108t82 -41z" />
    <glyph glyph-name="zero.sup" horiz-adv-x="768" 
d="M659 290q0 -142 -75.5 -221.5t-203.5 -79.5t-203.5 79.5t-75.5 221.5v220q0 141 75 221.5t203 80.5t204 -80.5t76 -221.5v-220zM503 511q0 85 -32.5 131.5t-91.5 46.5t-91 -47t-32 -131v-221q0 -87 32 -133.5t92 -46.5q58 0 90.5 46.5t32.5 133.5v221z" />
    <glyph glyph-name="crossbar" horiz-adv-x="793" 
d="M662 663h-529v141h529v-141z" />
    <glyph glyph-name="ringacute" horiz-adv-x="578" 
d="M371 1680h189l-200 -191h-123zM132 1274q0 73 43.5 120.5t109.5 47.5q64 0 106.5 -47.5t42.5 -120.5q0 -72 -42.5 -117.5t-106.5 -45.5q-66 0 -109.5 45.5t-43.5 117.5zM213 1274q0 -38 20.5 -62t51.5 -24q29 0 48.5 24t19.5 62q0 39 -19.5 64.5t-48.5 25.5
q-31 0 -51.5 -25.5t-20.5 -64.5z" />
    <glyph glyph-name="dasiaoxia" horiz-adv-x="693" 
d="M328 1158l90 319h168v-21l-184 -316h-74v18zM101 1230q0 86 36.5 153t102.5 108l64 -62q-34 -40 -48.5 -88t-14.5 -117v-86h-140v92z" />
    <glyph glyph-name="three.lnum" horiz-adv-x="961" 
d="M326 818h135q95 0 136 66t41 184q0 121 -43.5 187t-131.5 66q-79 0 -128.5 -66.5t-49.5 -178.5h-199q0 177 104 289t270 112q176 0 277.5 -105.5t101.5 -305.5q0 -99 -47.5 -185.5t-138.5 -133.5q107 -43 155.5 -132.5t48.5 -212.5q0 -202 -110 -312.5t-286 -110.5
q-166 0 -276.5 106.5t-110.5 306.5h200q0 -118 51.5 -188.5t138.5 -70.5q91 0 141.5 68t50.5 199q0 140 -47 202.5t-148 62.5h-135v153z" />
    <glyph glyph-name="four.lnum" horiz-adv-x="961" 
d="M762 497h146v-155h-146v-342h-201v342h-498l-6 114l499 1000h206v-959zM254 497h307v662l-3 1l-18 -39z" />
    <glyph glyph-name="five.lnum" horiz-adv-x="961" 
d="M136 654l67 802h623v-167h-457l-35 -427l3 -1q32 36 77 59.5t103 25.5q168 3 259.5 -125t91.5 -356q0 -221 -96.5 -353.5t-287.5 -132.5q-160 0 -265.5 102.5t-105.5 305.5l195 4q0 -126 48 -192t128 -66q93 0 138.5 86t45.5 244q0 149 -47 236t-139 87q-82 0 -119 -36.5
t-54 -112.5z" />
    <glyph glyph-name="six.lnum" horiz-adv-x="970" 
d="M559 1477q65 0 121 -16.5t105 -46.5l-38 -149q-43 27 -85.5 41t-101.5 14q-118 0 -187.5 -115.5t-69.5 -316.5v-36q49 55 112 85t140 30q160 0 249 -133.5t89 -351.5q0 -224 -103.5 -363.5t-276.5 -139.5q-183 0 -296 150.5t-113 428.5v316q0 276 127.5 439.5
t327.5 163.5zM505 818q-74 0 -124 -35.5t-78 -99.5v-137q0 -200 58 -307t152 -107q85 0 132.5 100t47.5 250q0 151 -49.5 243.5t-138.5 92.5z" />
    <glyph glyph-name="g.alt" horiz-adv-x="894" 
d="M857 951h-121q29 -44 44 -96t15 -111v-22q0 -152 -100 -252.5t-263 -100.5q-31 0 -59 3.5t-53 11.5q-17 -20 -26.5 -43.5t-9.5 -54.5q0 -49 26 -67.5t76 -18.5h143q158 0 239.5 -72.5t81.5 -220.5q0 -131 -120 -238t-320 -107q-188 0 -290 79.5t-102 200.5
q0 94 42.5 159.5t113.5 106.5q-24 22 -35.5 52.5t-11.5 71.5q0 65 26 111.5t70 82.5q-76 48 -117 125t-41 171v22q0 160 99.5 259t266.5 99q35 0 67.5 -5t63.5 -15h293zM347 49q-17 0 -32 1t-31 4q-33 -23 -53 -68.5t-20 -106.5q0 -73 49.5 -119.5t149.5 -46.5
q114 0 177.5 58.5t63.5 131.5t-31 109.5t-110 36.5h-163zM265 722q0 -83 45.5 -143t121.5 -60q74 0 118.5 59.5t44.5 143.5v22q0 87 -45 146.5t-119 59.5q-76 0 -121 -59.5t-45 -146.5v-22z" />
    <glyph glyph-name="seven.lnum" horiz-adv-x="888" 
d="M826 1300q-198 -281 -263.5 -524.5t-95.5 -636.5l-13 -139h-201l13 139q31 360 118 636t247 525h-580v156h775v-156z" />
    <glyph glyph-name="chi.alt" horiz-adv-x="923" 
d="M166 1095q113 0 159 -67t96 -197l71 -206l180 457h202l-287 -732l159 -457q21 -73 45.5 -114t58.5 -44h19t20 2l-6 -156q-17 -6 -40 -9t-43 -3q-93 4 -143 73.5t-95 211.5l-77 227h-3l-194 -496h-204l306 779l-136 405q-22 76 -57.5 122t-83.5 46q-10 0 -24.5 -2
t-29.5 -4l-3 149q29 7 55 11t55 4z" />
    <glyph glyph-name="eight.lnum" horiz-adv-x="961" 
d="M842 1076q0 -117 -51 -201.5t-143 -128.5q104 -46 163.5 -137.5t59.5 -216.5q0 -204 -106.5 -308.5t-283.5 -104.5q-179 0 -285 104.5t-106 308.5q0 126 58.5 217t163.5 137q-92 44 -142.5 128.5t-50.5 201.5q0 195 97.5 298t263.5 103q164 0 263 -103t99 -298zM671 399
q0 122 -53.5 196.5t-137.5 74.5q-87 0 -138.5 -74t-51.5 -197q0 -127 51 -196.5t140 -69.5q86 0 138 69.5t52 196.5zM642 1071q0 112 -44.5 181t-117.5 69q-76 0 -118 -66.5t-42 -183.5q0 -115 43 -181t118 -66q74 0 117.5 66t43.5 181z" />
    <glyph glyph-name="alpha.alt" horiz-adv-x="996" 
d="M707 181l-3 1q-44 -99 -111.5 -151t-167.5 -52q-167 0 -256 142t-89 386v21q0 265 89.5 419.5t257.5 154.5q97 0 163.5 -51.5t109.5 -148.5l3 1l21 179h181l-86 -542l92 -540h-181zM280 507q0 -175 44 -274.5t145 -99.5q88 0 131.5 98.5t60.5 270.5v62
q-14 163 -59.5 272.5t-130.5 109.5q-100 0 -145.5 -114t-45.5 -304v-21z" />
    <glyph glyph-name="delta.alt" 
d="M789 1456v-153h-343q14 -24 67 -91.5t83 -111.5q138 -145 210 -278t72 -289v-27q0 -238 -104.5 -382.5t-294.5 -144.5q-192 0 -297 142t-105 377v27q0 200 92 333.5t249 155.5h13.5t8.5 -1l2 2q-40 53 -133.5 165.5t-126.5 160.5v115h607zM278 506q0 -168 48 -270.5
t153 -102.5q102 0 150.5 103t48.5 270v27q0 122 -38 214t-95 139q-16 6 -29.5 9.5t-29.5 3.5q-108 0 -158 -102.5t-50 -263.5v-27z" />
    <glyph glyph-name="D.cn" horiz-adv-x="1113" 
d="M137 0v1456h360q253 0 383 -173.5t130 -465.5v-180q0 -293 -130 -465t-383 -172h-360zM338 1300v-1146h153q168 0 243 127.5t75 355.5v182q0 225 -75 353t-243 128h-153z" />
    <glyph glyph-name="a.cn" horiz-adv-x="918" 
d="M633 0q-9 30 -15 59.5t-9 61.5q-43 -64 -105.5 -103t-140.5 -39q-138 0 -208 80t-70 237q0 167 98 250t287 83h135v132q0 99 -37.5 144t-116.5 45q-78 0 -112.5 -47t-34.5 -128l-201 1q0 142 91 234t270 92q166 0 254 -81.5t88 -261.5v-523q0 -66 6.5 -123t22.5 -113
h-202zM412 135q66 0 117 34.5t76 88.5v245h-138q-96 0 -138.5 -54t-42.5 -153q0 -78 28.5 -119.5t97.5 -41.5z" />
    <glyph glyph-name="R.alt" horiz-adv-x="1093" 
d="M974 1036q0 -133 -52.5 -228.5t-148.5 -144.5l267 -646v-17h-220l-240 612h-242v-612h-201v1455h424q201 0 307 -107t106 -312zM338 766h224q105 0 158.5 71t53.5 195q0 128 -52 198t-161 70h-223v-534z" />
    <glyph glyph-name="K.alt" horiz-adv-x="1086" 
d="M458 658l-120 -158v-500h-201v1456h201v-695l3 -1l112 161l338 535h239l-443 -625l493 -831h-256z" />
    <glyph glyph-name="k.alt" horiz-adv-x="889" 
d="M402 481l-88 -105v-376h-200v1560h200v-926l3 -1l60 81l240 368h235l-326 -444l361 -638h-233z" />
    <glyph glyph-name="K.alt2" horiz-adv-x="1099" 
d="M341 665l-3 -1v-664h-201v1456h201v-658h5l434 658h250l-495 -716l523 -740h-248z" />
    <glyph glyph-name="k.alt2" horiz-adv-x="886" 
d="M317 482l-3 -1v-481h-200v1560h200v-909h3l270 431h244l-350 -506l386 -576h-241z" />
    <glyph glyph-name="nine.lnum" horiz-adv-x="963" 
d="M426 133q105 0 168 100.5t63 297.5v61l-3 1q-38 -66 -93.5 -100.5t-122.5 -34.5q-170 0 -265 132.5t-95 366.5q0 228 107.5 374t272.5 146q185 0 292.5 -141.5t107.5 -417.5v-380q0 -271 -119 -415t-313 -144q-61 0 -124.5 15t-118.5 45l26 148q51 -29 101 -41.5
t116 -12.5zM459 610q73 0 122 43t76 113v172q0 192 -51 287.5t-146 95.5q-79 0 -130.5 -104t-51.5 -260q0 -157 47 -252t134 -95z" />
    <glyph glyph-name="P.smcp" horiz-adv-x="963" 
d="M324 409v-409h-200v1165h391q175 0 275.5 -104.5t100.5 -274.5t-100 -273.5t-276 -103.5h-191zM324 564h191q85 0 130 63.5t45 156.5q0 96 -44.5 161.5t-130.5 65.5h-191v-447z" />
    <glyph glyph-name="cyrillicbreve" horiz-adv-x="774" 
d="M655 1456q0 -125 -73 -198.5t-200 -73.5t-199.5 73.5t-72.5 198.5h151q0 -70 28.5 -112t92.5 -42q63 0 92 42.5t29 111.5h152z" />
    <glyph glyph-name="nonbreakingspace" unicode="&#xa0;" horiz-adv-x="433" 
 />
    <glyph glyph-name="uni00AD" unicode="&#xad;" horiz-adv-x="581" 
d="M501 552h-427v154h427v-154z" />
    <glyph glyph-name="Dcroat" unicode="&#x110;" horiz-adv-x="1160" 
d="M167 0v670h-122v141h122v645h347q260 0 395 -148t135 -451v-260q0 -305 -136 -451t-403 -146h-338zM574 670h-206v-516h130q190 0 268 105.5t78 337.5v262q0 233 -77 337t-259 104h-140v-489h206v-141z" />
    <glyph glyph-name="Eth" unicode="&#xd0;" horiz-adv-x="1160" 
d="M167 0v670h-122v141h122v645h347q260 0 395 -148t135 -451v-260q0 -305 -136 -451t-403 -146h-338zM574 670h-206v-516h130q190 0 268 105.5t78 337.5v262q0 233 -77 337t-259 104h-140v-489h206v-141z" />
    <glyph glyph-name="hbar" unicode="&#x127;" horiz-adv-x="987" 
d="M543 1237h-202v-283l3 -1q42 70 102.5 109.5t136.5 39.5q141 0 217 -105.5t76 -334.5v-662h-200v664q0 153 -39.5 216.5t-122.5 63.5q-56 0 -99.5 -33.5t-73.5 -93.5v-817h-201v1237h-126v141h126v182h201v-182h202v-141z" />
    <glyph glyph-name="Tbar" unicode="&#x166;" horiz-adv-x="1010" 
d="M770 805h-166v-805h-199v805h-164v141h164v354h-353v156h906v-156h-354v-354h166v-141z" />
    <glyph glyph-name="tbar" unicode="&#x167;" horiz-adv-x="564" 
d="M352 1351v-269h156v-145h-156v-209h170v-141h-170v-294q0 -86 20 -120t54 -34q20 0 37 3t34 8l21 -139q-27 -14 -64.5 -22.5t-77.5 -8.5q-109 0 -167 73.5t-58 239.5v294h-158v141h158v209h-119v145h119v269h201z" />
    <glyph glyph-name="Agrave" unicode="&#xc0;" horiz-adv-x="1103" 
d="M769 374h-435l-99 -374h-204l426 1456h194l420 -1456h-203zM376 529h352l-174 657h-4zM648 1561h-165l-224 266h230z" />
    <glyph glyph-name="Aacute" unicode="&#xc1;" horiz-adv-x="1103" 
d="M769 374h-435l-99 -374h-204l426 1456h194l420 -1456h-203zM376 529h352l-174 657h-4zM612 1824h230l-234 -266h-158z" />
    <glyph glyph-name="Acircumflex" unicode="&#xc2;" horiz-adv-x="1103" 
d="M769 374h-435l-99 -374h-204l426 1456h194l420 -1456h-203zM376 529h352l-174 657h-4zM826 1621v-22h-154l-122 155l-120 -155h-153v23l214 232h118z" />
    <glyph glyph-name="Atilde" unicode="&#xc3;" horiz-adv-x="1103" 
d="M769 374h-435l-99 -374h-204l426 1456h194l420 -1456h-203zM376 529h352l-174 657h-4zM841 1838q0 -94 -47 -156t-122 -62q-58 0 -123.5 49t-107.5 49q-32 0 -53 -33t-21 -83l-108 28q0 93 46.5 156.5t121.5 63.5q46 0 117.5 -49.5t113.5 -49.5q32 0 53.5 33.5t21.5 84.5
z" />
    <glyph glyph-name="Adieresis" unicode="&#xc4;" horiz-adv-x="1103" 
d="M769 374h-435l-99 -374h-204l426 1456h194l420 -1456h-203zM376 529h352l-174 657h-4zM855 1617h-202v185h202v-185zM447 1617h-201v185h201v-185z" />
    <glyph glyph-name="Aring" unicode="&#xc5;" horiz-adv-x="1103" 
d="M769 374h-435l-99 -374h-204l426 1456h194l420 -1456h-203zM376 529h352l-174 657h-4zM376 1734q0 79 50 131.5t125 52.5q73 0 122 -52.5t49 -131.5q0 -81 -49 -131t-122 -50q-75 0 -125 50t-50 131zM467 1734q0 -42 24 -69t60 -27t58.5 26.5t22.5 69.5q0 44 -22.5 71.5
t-58.5 27.5t-60 -28t-24 -71z" />
    <glyph glyph-name="Aringacute" unicode="&#x1fa;" horiz-adv-x="1103" 
d="M769 374h-435l-99 -374h-204l426 1456h194l420 -1456h-203zM376 529h352l-174 657h-4zM638 1961h189l-200 -191h-123zM399 1555q0 73 43.5 120.5t109.5 47.5q64 0 106.5 -47.5t42.5 -120.5q0 -72 -42.5 -117.5t-106.5 -45.5q-66 0 -109.5 45.5t-43.5 117.5zM480 1555
q0 -38 20.5 -62t51.5 -24q29 0 48.5 24t19.5 62q0 39 -19.5 64.5t-48.5 25.5q-31 0 -51.5 -25.5t-20.5 -64.5z" />
    <glyph glyph-name="Ccedilla" unicode="&#xc7;" horiz-adv-x="1053" 
d="M986 435q-4 -224 -116 -340t-318 -116q-209 0 -325 140.5t-116 405.5v404q0 264 117 406t324 142q210 0 319 -114.5t116 -346.5h-201q-2 160 -56.5 232.5t-177.5 72.5q-119 0 -180 -98t-61 -291v-407q0 -196 59.5 -294t181.5 -98q121 0 176 69.5t58 232.5h200zM635 -4
l-9 -58q52 -10 86.5 -50t34.5 -122q0 -100 -68 -157t-198 -57l-6 113q49 0 78.5 24.5t29.5 76.5q0 51 -26.5 70t-93.5 26l25 134h147z" />
    <glyph glyph-name="Egrave" unicode="&#xc8;" horiz-adv-x="977" 
d="M846 676h-508v-522h590v-154h-791v1456h786v-156h-585v-469h508v-155zM604 1561h-165l-224 266h230z" />
    <glyph glyph-name="Eacute" unicode="&#xc9;" horiz-adv-x="977" 
d="M846 676h-508v-522h590v-154h-791v1456h786v-156h-585v-469h508v-155zM568 1824h230l-234 -266h-158z" />
    <glyph glyph-name="Ecircumflex" unicode="&#xca;" horiz-adv-x="977" 
d="M846 676h-508v-522h590v-154h-791v1456h786v-156h-585v-469h508v-155zM782 1621v-22h-154l-122 155l-120 -155h-153v23l214 232h118z" />
    <glyph glyph-name="Edieresis" unicode="&#xcb;" horiz-adv-x="977" 
d="M846 676h-508v-522h590v-154h-791v1456h786v-156h-585v-469h508v-155zM811 1617h-202v185h202v-185zM403 1617h-201v185h201v-185z" />
    <glyph glyph-name="Igrave" unicode="&#xcc;" horiz-adv-x="499" 
d="M350 0h-201v1456h201v-1456zM347 1561h-165l-224 266h230z" />
    <glyph glyph-name="Iacute" unicode="&#xcd;" horiz-adv-x="499" 
d="M350 0h-201v1456h201v-1456zM310 1824h230l-234 -266h-158z" />
    <glyph glyph-name="Icircumflex" unicode="&#xce;" horiz-adv-x="499" 
d="M350 0h-201v1456h201v-1456zM525 1621v-22h-154l-122 155l-120 -155h-153v23l214 232h118z" />
    <glyph glyph-name="Idieresis" unicode="&#xcf;" horiz-adv-x="499" 
d="M350 0h-201v1456h201v-1456zM554 1617h-202v185h202v-185zM146 1617h-201v185h201v-185z" />
    <glyph glyph-name="Ntilde" unicode="&#xd1;" horiz-adv-x="1195" 
d="M1056 0h-200l-515 1074l-3 -1v-1073h-201v1456h201l515 -1072l3 1v1071h200v-1456zM886 1838q0 -94 -47 -156t-122 -62q-58 0 -123.5 49t-107.5 49q-32 0 -53 -33t-21 -83l-108 28q0 93 46.5 156.5t121.5 63.5q46 0 117.5 -49.5t113.5 -49.5q32 0 53.5 33.5t21.5 84.5z
" />
    <glyph glyph-name="Ograve" unicode="&#xd2;" horiz-adv-x="1164" 
d="M1048 527q0 -264 -126 -406t-345 -142q-216 0 -338.5 142t-122.5 406v400q0 263 122.5 406.5t337.5 143.5q219 0 345.5 -143.5t126.5 -406.5v-400zM847 930q0 193 -69 290t-202 97q-128 0 -193.5 -97t-65.5 -290v-403q0 -196 65.5 -293t194.5 -97q133 0 201.5 97
t68.5 293v403zM681 1582h-165l-224 266h230z" />
    <glyph glyph-name="Oacute" unicode="&#xd3;" horiz-adv-x="1164" 
d="M1048 527q0 -264 -126 -406t-345 -142q-216 0 -338.5 142t-122.5 406v400q0 263 122.5 406.5t337.5 143.5q219 0 345.5 -143.5t126.5 -406.5v-400zM847 930q0 193 -69 290t-202 97q-128 0 -193.5 -97t-65.5 -290v-403q0 -196 65.5 -293t194.5 -97q133 0 201.5 97
t68.5 293v403zM645 1845h230l-234 -266h-158z" />
    <glyph glyph-name="Ocircumflex" unicode="&#xd4;" horiz-adv-x="1164" 
d="M1048 527q0 -264 -126 -406t-345 -142q-216 0 -338.5 142t-122.5 406v400q0 263 122.5 406.5t337.5 143.5q219 0 345.5 -143.5t126.5 -406.5v-400zM847 930q0 193 -69 290t-202 97q-128 0 -193.5 -97t-65.5 -290v-403q0 -196 65.5 -293t194.5 -97q133 0 201.5 97
t68.5 293v403zM859 1642v-22h-154l-122 155l-120 -155h-153v23l214 232h118z" />
    <glyph glyph-name="Otilde" unicode="&#xd5;" horiz-adv-x="1164" 
d="M1048 527q0 -264 -126 -406t-345 -142q-216 0 -338.5 142t-122.5 406v400q0 263 122.5 406.5t337.5 143.5q219 0 345.5 -143.5t126.5 -406.5v-400zM847 930q0 193 -69 290t-202 97q-128 0 -193.5 -97t-65.5 -290v-403q0 -196 65.5 -293t194.5 -97q133 0 201.5 97
t68.5 293v403zM874 1859q0 -94 -47 -156t-122 -62q-58 0 -123.5 49t-107.5 49q-32 0 -53 -33t-21 -83l-108 28q0 93 46.5 156.5t121.5 63.5q46 0 117.5 -49.5t113.5 -49.5q32 0 53.5 33.5t21.5 84.5z" />
    <glyph glyph-name="Odieresis" unicode="&#xd6;" horiz-adv-x="1164" 
d="M1048 527q0 -264 -126 -406t-345 -142q-216 0 -338.5 142t-122.5 406v400q0 263 122.5 406.5t337.5 143.5q219 0 345.5 -143.5t126.5 -406.5v-400zM847 930q0 193 -69 290t-202 97q-128 0 -193.5 -97t-65.5 -290v-403q0 -196 65.5 -293t194.5 -97q133 0 201.5 97
t68.5 293v403zM888 1638h-202v185h202v-185zM480 1638h-201v185h201v-185z" />
    <glyph glyph-name="Ugrave" unicode="&#xd9;" horiz-adv-x="1113" 
d="M1002 1456v-1009q0 -231 -122 -349.5t-326 -118.5q-201 0 -320.5 118.5t-119.5 349.5v1009h198v-1009q0 -159 64.5 -236.5t177.5 -77.5q118 0 183 74.5t65 239.5v1009h200zM655 1561h-165l-224 266h230z" />
    <glyph glyph-name="Uacute" unicode="&#xda;" horiz-adv-x="1113" 
d="M1002 1456v-1009q0 -231 -122 -349.5t-326 -118.5q-201 0 -320.5 118.5t-119.5 349.5v1009h198v-1009q0 -159 64.5 -236.5t177.5 -77.5q118 0 183 74.5t65 239.5v1009h200zM619 1824h230l-234 -266h-158z" />
    <glyph glyph-name="Ucircumflex" unicode="&#xdb;" horiz-adv-x="1113" 
d="M1002 1456v-1009q0 -231 -122 -349.5t-326 -118.5q-201 0 -320.5 118.5t-119.5 349.5v1009h198v-1009q0 -159 64.5 -236.5t177.5 -77.5q118 0 183 74.5t65 239.5v1009h200zM833 1621v-22h-154l-122 155l-120 -155h-153v23l214 232h118z" />
    <glyph glyph-name="Udieresis" unicode="&#xdc;" horiz-adv-x="1113" 
d="M1002 1456v-1009q0 -231 -122 -349.5t-326 -118.5q-201 0 -320.5 118.5t-119.5 349.5v1009h198v-1009q0 -159 64.5 -236.5t177.5 -77.5q118 0 183 74.5t65 239.5v1009h200zM862 1617h-202v185h202v-185zM454 1617h-201v185h201v-185z" />
    <glyph glyph-name="Yacute" unicode="&#xdd;" horiz-adv-x="1026" 
d="M513 761l266 695h222l-392 -931v-525h-198v540l-386 916h222zM577 1820h230l-234 -266h-158z" />
    <glyph glyph-name="agrave" unicode="&#xe0;" horiz-adv-x="918" 
d="M635 0q-10 37 -17 70.5t-10 65.5l-2 1q-42 -69 -104 -113t-139 -44q-134 0 -206.5 84.5t-72.5 232.5q0 158 98.5 245t283.5 87h139v111q0 101 -39.5 155.5t-114.5 54.5q-69 0 -108 -48.5t-39 -126.5l-201 1q0 133 99 229.5t262 96.5q155 0 248.5 -92.5t93.5 -271.5v-502
q0 -62 7.5 -119.5t23.5 -116.5h-202zM409 136q66 0 118 39.5t78 101.5v226h-142q-87 0 -133 -59t-46 -146q0 -74 32 -118t93 -44zM551 1239h-165l-224 266h230z" />
    <glyph glyph-name="aacute" unicode="&#xe1;" horiz-adv-x="918" 
d="M635 0q-10 37 -17 70.5t-10 65.5l-2 1q-42 -69 -104 -113t-139 -44q-134 0 -206.5 84.5t-72.5 232.5q0 158 98.5 245t283.5 87h139v111q0 101 -39.5 155.5t-114.5 54.5q-69 0 -108 -48.5t-39 -126.5l-201 1q0 133 99 229.5t262 96.5q155 0 248.5 -92.5t93.5 -271.5v-502
q0 -62 7.5 -119.5t23.5 -116.5h-202zM409 136q66 0 118 39.5t78 101.5v226h-142q-87 0 -133 -59t-46 -146q0 -74 32 -118t93 -44zM515 1502h230l-234 -266h-158z" />
    <glyph glyph-name="acircumflex" unicode="&#xe2;" horiz-adv-x="918" 
d="M635 0q-10 37 -17 70.5t-10 65.5l-2 1q-42 -69 -104 -113t-139 -44q-134 0 -206.5 84.5t-72.5 232.5q0 158 98.5 245t283.5 87h139v111q0 101 -39.5 155.5t-114.5 54.5q-69 0 -108 -48.5t-39 -126.5l-201 1q0 133 99 229.5t262 96.5q155 0 248.5 -92.5t93.5 -271.5v-502
q0 -62 7.5 -119.5t23.5 -116.5h-202zM409 136q66 0 118 39.5t78 101.5v226h-142q-87 0 -133 -59t-46 -146q0 -74 32 -118t93 -44zM729 1299v-22h-154l-122 155l-120 -155h-153v23l214 232h118z" />
    <glyph glyph-name="atilde" unicode="&#xe3;" horiz-adv-x="918" 
d="M635 0q-10 37 -17 70.5t-10 65.5l-2 1q-42 -69 -104 -113t-139 -44q-134 0 -206.5 84.5t-72.5 232.5q0 158 98.5 245t283.5 87h139v111q0 101 -39.5 155.5t-114.5 54.5q-69 0 -108 -48.5t-39 -126.5l-201 1q0 133 99 229.5t262 96.5q155 0 248.5 -92.5t93.5 -271.5v-502
q0 -62 7.5 -119.5t23.5 -116.5h-202zM409 136q66 0 118 39.5t78 101.5v226h-142q-87 0 -133 -59t-46 -146q0 -74 32 -118t93 -44zM744 1516q0 -94 -47 -156t-122 -62q-58 0 -123.5 49t-107.5 49q-32 0 -53 -33t-21 -83l-108 28q0 93 46.5 156.5t121.5 63.5q46 0 117.5 -49.5
t113.5 -49.5q32 0 53.5 33.5t21.5 84.5z" />
    <glyph glyph-name="adieresis" unicode="&#xe4;" horiz-adv-x="918" 
d="M635 0q-10 37 -17 70.5t-10 65.5l-2 1q-42 -69 -104 -113t-139 -44q-134 0 -206.5 84.5t-72.5 232.5q0 158 98.5 245t283.5 87h139v111q0 101 -39.5 155.5t-114.5 54.5q-69 0 -108 -48.5t-39 -126.5l-201 1q0 133 99 229.5t262 96.5q155 0 248.5 -92.5t93.5 -271.5v-502
q0 -62 7.5 -119.5t23.5 -116.5h-202zM409 136q66 0 118 39.5t78 101.5v226h-142q-87 0 -133 -59t-46 -146q0 -74 32 -118t93 -44zM758 1295h-202v185h202v-185zM350 1295h-201v185h201v-185z" />
    <glyph glyph-name="aring" unicode="&#xe5;" horiz-adv-x="918" 
d="M635 0q-10 37 -17 70.5t-10 65.5l-2 1q-42 -69 -104 -113t-139 -44q-134 0 -206.5 84.5t-72.5 232.5q0 158 98.5 245t283.5 87h139v111q0 101 -39.5 155.5t-114.5 54.5q-69 0 -108 -48.5t-39 -126.5l-201 1q0 133 99 229.5t262 96.5q155 0 248.5 -92.5t93.5 -271.5v-502
q0 -62 7.5 -119.5t23.5 -116.5h-202zM409 136q66 0 118 39.5t78 101.5v226h-142q-87 0 -133 -59t-46 -146q0 -74 32 -118t93 -44zM279 1412q0 79 50 131.5t125 52.5q73 0 122 -52.5t49 -131.5q0 -81 -49 -131t-122 -50q-75 0 -125 50t-50 131zM370 1412q0 -42 24 -69t60 -27
t58.5 26.5t22.5 69.5q0 44 -22.5 71.5t-58.5 27.5t-60 -28t-24 -71z" />
    <glyph glyph-name="aringacute" unicode="&#x1fb;" horiz-adv-x="918" 
d="M635 0q-10 37 -17 70.5t-10 65.5l-2 1q-42 -69 -104 -113t-139 -44q-134 0 -206.5 84.5t-72.5 232.5q0 158 98.5 245t283.5 87h139v111q0 101 -39.5 155.5t-114.5 54.5q-69 0 -108 -48.5t-39 -126.5l-201 1q0 133 99 229.5t262 96.5q155 0 248.5 -92.5t93.5 -271.5v-502
q0 -62 7.5 -119.5t23.5 -116.5h-202zM409 136q66 0 118 39.5t78 101.5v226h-142q-87 0 -133 -59t-46 -146q0 -74 32 -118t93 -44zM541 1640h189l-200 -191h-123zM302 1234q0 73 43.5 120.5t109.5 47.5q64 0 106.5 -47.5t42.5 -120.5q0 -72 -42.5 -117.5t-106.5 -45.5
q-66 0 -109.5 45.5t-43.5 117.5zM383 1234q0 -38 20.5 -62t51.5 -24q29 0 48.5 24t19.5 62q0 39 -19.5 64.5t-48.5 25.5q-31 0 -51.5 -25.5t-20.5 -64.5z" />
    <glyph glyph-name="ccedilla" unicode="&#xe7;" horiz-adv-x="891" 
d="M471 133q72 0 123 58t47 159h188q4 -160 -102 -265t-253 -105q-197 0 -297 134.5t-100 350.5v149q0 216 100.5 352t295.5 136q163 0 261 -108.5t95 -293.5h-188q3 112 -43.5 179t-126.5 67q-110 0 -151.5 -91.5t-41.5 -240.5v-149q0 -152 41 -242t152 -90zM529 -4l-9 -58
q52 -10 86.5 -50t34.5 -122q0 -100 -68 -157t-198 -57l-6 113q49 0 78.5 24.5t29.5 76.5q0 51 -26.5 70t-93.5 26l25 134h147z" />
    <glyph glyph-name="egrave" unicode="&#xe8;" horiz-adv-x="894" 
d="M477 -20q-183 0 -290 131.5t-107 344.5v158q0 216 106 352t276 136q180 0 273 -123.5t93 -339.5v-140h-547v-43q0 -144 52 -233.5t157 -89.5q96 0 153.5 27t99.5 77l57 -130q-49 -59 -130.5 -93t-192.5 -34zM462 946q-82 0 -129 -84t-52 -218h349v41q0 117 -41.5 189
t-126.5 72zM552 1240h-165l-224 266h230z" />
    <glyph glyph-name="eacute" unicode="&#xe9;" horiz-adv-x="894" 
d="M477 -20q-183 0 -290 131.5t-107 344.5v158q0 216 106 352t276 136q180 0 273 -123.5t93 -339.5v-140h-547v-43q0 -144 52 -233.5t157 -89.5q96 0 153.5 27t99.5 77l57 -130q-49 -59 -130.5 -93t-192.5 -34zM462 946q-82 0 -129 -84t-52 -218h349v41q0 117 -41.5 189
t-126.5 72zM516 1503h230l-234 -266h-158z" />
    <glyph glyph-name="ecircumflex" unicode="&#xea;" horiz-adv-x="894" 
d="M477 -20q-183 0 -290 131.5t-107 344.5v158q0 216 106 352t276 136q180 0 273 -123.5t93 -339.5v-140h-547v-43q0 -144 52 -233.5t157 -89.5q96 0 153.5 27t99.5 77l57 -130q-49 -59 -130.5 -93t-192.5 -34zM462 946q-82 0 -129 -84t-52 -218h349v41q0 117 -41.5 189
t-126.5 72zM730 1300v-22h-154l-122 155l-120 -155h-153v23l214 232h118z" />
    <glyph glyph-name="edieresis" unicode="&#xeb;" horiz-adv-x="894" 
d="M477 -20q-183 0 -290 131.5t-107 344.5v158q0 216 106 352t276 136q180 0 273 -123.5t93 -339.5v-140h-547v-43q0 -144 52 -233.5t157 -89.5q96 0 153.5 27t99.5 77l57 -130q-49 -59 -130.5 -93t-192.5 -34zM462 946q-82 0 -129 -84t-52 -218h349v41q0 117 -41.5 189
t-126.5 72zM759 1296h-202v185h202v-185zM351 1296h-201v185h201v-185z" />
    <glyph glyph-name="igrave" unicode="&#xec;" horiz-adv-x="459" 
d="M326 0h-200v1082h200v-1082zM326 1218h-165l-224 266h230z" />
    <glyph glyph-name="iacute" unicode="&#xed;" horiz-adv-x="459" 
d="M326 0h-200v1082h200v-1082zM289 1481h230l-234 -266h-158z" />
    <glyph glyph-name="icircumflex" unicode="&#xee;" horiz-adv-x="459" 
d="M326 0h-200v1082h200v-1082zM504 1278v-22h-154l-122 155l-120 -155h-153v23l214 232h118z" />
    <glyph glyph-name="idieresis" unicode="&#xef;" horiz-adv-x="459" 
d="M326 0h-200v1082h200v-1082zM533 1274h-202v185h202v-185zM125 1274h-201v185h201v-185z" />
    <glyph glyph-name="ntilde" unicode="&#xf1;" 
d="M295 1082l11 -146h3q41 79 104.5 122.5t145.5 43.5q138 0 212.5 -101.5t74.5 -324.5v-676h-201v674q0 151 -38.5 210.5t-122.5 59.5q-57 0 -100 -36t-72 -100v-808h-201v1082h184zM767 1516q0 -94 -47 -156t-122 -62q-58 0 -123.5 49t-107.5 49q-32 0 -53 -33t-21 -83
l-108 28q0 93 46.5 156.5t121.5 63.5q46 0 117.5 -49.5t113.5 -49.5q32 0 53.5 33.5t21.5 84.5z" />
    <glyph glyph-name="ograve" unicode="&#xf2;" 
d="M77 609q0 220 105 356.5t295 136.5q191 0 296 -136.5t105 -356.5v-138q0 -222 -104.5 -356.5t-294.5 -134.5q-192 0 -297 135t-105 356v138zM278 471q0 -152 48 -245t153 -93q102 0 150.5 93.5t48.5 244.5v138q0 150 -49 243.5t-152 93.5q-104 0 -151.5 -93.5
t-47.5 -243.5v-138zM576 1239h-165l-224 266h230z" />
    <glyph glyph-name="oacute" unicode="&#xf3;" 
d="M77 609q0 220 105 356.5t295 136.5q191 0 296 -136.5t105 -356.5v-138q0 -222 -104.5 -356.5t-294.5 -134.5q-192 0 -297 135t-105 356v138zM278 471q0 -152 48 -245t153 -93q102 0 150.5 93.5t48.5 244.5v138q0 150 -49 243.5t-152 93.5q-104 0 -151.5 -93.5
t-47.5 -243.5v-138zM540 1502h230l-234 -266h-158z" />
    <glyph glyph-name="ocircumflex" unicode="&#xf4;" 
d="M77 609q0 220 105 356.5t295 136.5q191 0 296 -136.5t105 -356.5v-138q0 -222 -104.5 -356.5t-294.5 -134.5q-192 0 -297 135t-105 356v138zM278 471q0 -152 48 -245t153 -93q102 0 150.5 93.5t48.5 244.5v138q0 150 -49 243.5t-152 93.5q-104 0 -151.5 -93.5
t-47.5 -243.5v-138zM754 1299v-22h-154l-122 155l-120 -155h-153v23l214 232h118z" />
    <glyph glyph-name="otilde" unicode="&#xf5;" 
d="M77 609q0 220 105 356.5t295 136.5q191 0 296 -136.5t105 -356.5v-138q0 -222 -104.5 -356.5t-294.5 -134.5q-192 0 -297 135t-105 356v138zM278 471q0 -152 48 -245t153 -93q102 0 150.5 93.5t48.5 244.5v138q0 150 -49 243.5t-152 93.5q-104 0 -151.5 -93.5
t-47.5 -243.5v-138zM769 1516q0 -94 -47 -156t-122 -62q-58 0 -123.5 49t-107.5 49q-32 0 -53 -33t-21 -83l-108 28q0 93 46.5 156.5t121.5 63.5q46 0 117.5 -49.5t113.5 -49.5q32 0 53.5 33.5t21.5 84.5z" />
    <glyph glyph-name="odieresis" unicode="&#xf6;" 
d="M77 609q0 220 105 356.5t295 136.5q191 0 296 -136.5t105 -356.5v-138q0 -222 -104.5 -356.5t-294.5 -134.5q-192 0 -297 135t-105 356v138zM278 471q0 -152 48 -245t153 -93q102 0 150.5 93.5t48.5 244.5v138q0 150 -49 243.5t-152 93.5q-104 0 -151.5 -93.5
t-47.5 -243.5v-138zM783 1295h-202v185h202v-185zM375 1295h-201v185h201v-185z" />
    <glyph glyph-name="ugrave" unicode="&#xf9;" 
d="M654 138h-2q-41 -77 -103 -117.5t-144 -40.5q-142 0 -219 110.5t-77 352.5v639h200v-641q0 -170 35 -237t110 -67q70 0 116 33.5t74 97.5v814h200v-1082h-177zM574 1218h-165l-224 266h230z" />
    <glyph glyph-name="uacute" unicode="&#xfa;" 
d="M654 138h-2q-41 -77 -103 -117.5t-144 -40.5q-142 0 -219 110.5t-77 352.5v639h200v-641q0 -170 35 -237t110 -67q70 0 116 33.5t74 97.5v814h200v-1082h-177zM538 1481h230l-234 -266h-158z" />
    <glyph glyph-name="ucircumflex" unicode="&#xfb;" 
d="M654 138h-2q-41 -77 -103 -117.5t-144 -40.5q-142 0 -219 110.5t-77 352.5v639h200v-641q0 -170 35 -237t110 -67q70 0 116 33.5t74 97.5v814h200v-1082h-177zM752 1278v-22h-154l-122 155l-120 -155h-153v23l214 232h118z" />
    <glyph glyph-name="udieresis" unicode="&#xfc;" 
d="M654 138h-2q-41 -77 -103 -117.5t-144 -40.5q-142 0 -219 110.5t-77 352.5v639h200v-641q0 -170 35 -237t110 -67q70 0 116 33.5t74 97.5v814h200v-1082h-177zM781 1274h-202v185h202v-185zM373 1274h-201v185h201v-185z" />
    <glyph glyph-name="yacute" unicode="&#xfd;" horiz-adv-x="860" 
d="M405 373l14 -65h3l193 774h220l-360 -1250q-34 -111 -95.5 -190t-181.5 -79q-26 0 -51.5 5t-55.5 13l22 150q11 -2 28.5 -4t27.5 -2q57 0 83 37.5t55 132.5l33 110l-316 1077h218zM490 1481h230l-234 -266h-158z" />
    <glyph glyph-name="ydieresis" unicode="&#xff;" horiz-adv-x="860" 
d="M405 373l14 -65h3l193 774h220l-360 -1250q-34 -111 -95.5 -190t-181.5 -79q-26 0 -51.5 5t-55.5 13l22 150q11 -2 28.5 -4t27.5 -2q57 0 83 37.5t55 132.5l33 110l-316 1077h218zM734 1274h-202v185h202v-185zM326 1274h-201v185h201v-185z" />
    <glyph glyph-name="Amacron" unicode="&#x100;" horiz-adv-x="1103" 
d="M769 374h-435l-99 -374h-204l426 1456h194l420 -1456h-203zM376 529h352l-174 657h-4zM856 1652h-607v132h607v-132z" />
    <glyph glyph-name="amacron" unicode="&#x101;" horiz-adv-x="918" 
d="M635 0q-10 37 -17 70.5t-10 65.5l-2 1q-42 -69 -104 -113t-139 -44q-134 0 -206.5 84.5t-72.5 232.5q0 158 98.5 245t283.5 87h139v111q0 101 -39.5 155.5t-114.5 54.5q-69 0 -108 -48.5t-39 -126.5l-201 1q0 133 99 229.5t262 96.5q155 0 248.5 -92.5t93.5 -271.5v-502
q0 -62 7.5 -119.5t23.5 -116.5h-202zM409 136q66 0 118 39.5t78 101.5v226h-142q-87 0 -133 -59t-46 -146q0 -74 32 -118t93 -44zM759 1330h-607v132h607v-132z" />
    <glyph glyph-name="Abreve" unicode="&#x102;" horiz-adv-x="1103" 
d="M769 374h-435l-99 -374h-204l426 1456h194l420 -1456h-203zM376 529h352l-174 657h-4zM824 1872q0 -125 -73 -198.5t-200 -73.5t-199.5 73.5t-72.5 198.5h151q0 -70 28.5 -112t92.5 -42q63 0 92 42.5t29 111.5h152z" />
    <glyph glyph-name="abreve" unicode="&#x103;" horiz-adv-x="918" 
d="M635 0q-10 37 -17 70.5t-10 65.5l-2 1q-42 -69 -104 -113t-139 -44q-134 0 -206.5 84.5t-72.5 232.5q0 158 98.5 245t283.5 87h139v111q0 101 -39.5 155.5t-114.5 54.5q-69 0 -108 -48.5t-39 -126.5l-201 1q0 133 99 229.5t262 96.5q155 0 248.5 -92.5t93.5 -271.5v-502
q0 -62 7.5 -119.5t23.5 -116.5h-202zM409 136q66 0 118 39.5t78 101.5v226h-142q-87 0 -133 -59t-46 -146q0 -74 32 -118t93 -44zM727 1550q0 -125 -73 -198.5t-200 -73.5t-199.5 73.5t-72.5 198.5h151q0 -70 28.5 -112t92.5 -42q63 0 92 42.5t29 111.5h152z" />
    <glyph glyph-name="Aogonek" unicode="&#x104;" horiz-adv-x="1103" 
d="M651 1456l420 -1456h-58q-64 -52 -96 -102t-32 -111q0 -36 12.5 -56t43.5 -20q21 0 37.5 8t32.5 20l19 -117q-26 -19 -57.5 -31.5t-75.5 -12.5q-77 0 -124 48.5t-47 139.5q0 68 33.5 129.5t105.5 113.5l-96 365h-435l-99 -374h-204l426 1456h194zM376 529h352l-174 657
h-4z" />
    <glyph glyph-name="aogonek" unicode="&#x105;" horiz-adv-x="918" 
d="M635 0q-10 37 -17 70.5t-10 65.5l-2 1q-42 -69 -104 -113t-139 -44q-134 0 -206.5 84.5t-72.5 232.5q0 158 98.5 245t283.5 87h139v111q0 101 -39.5 155.5t-114.5 54.5q-69 0 -108 -48.5t-39 -126.5l-201 1q0 133 99 229.5t262 96.5q155 0 248.5 -92.5t93.5 -271.5v-502
q0 -62 7.5 -119.5t23.5 -116.5h-30q-64 -52 -96 -102t-32 -111q0 -36 12.5 -56t43.5 -20q21 0 37.5 8t32.5 20l19 -117q-26 -19 -57.5 -31.5t-75.5 -12.5q-77 0 -124 48.5t-47 139.5q0 65 30 124t93 107l-1 3h-7zM409 136q66 0 118 39.5t78 101.5v226h-142q-87 0 -133 -59
t-46 -146q0 -74 32 -118t93 -44z" />
    <glyph glyph-name="Cacute" unicode="&#x106;" horiz-adv-x="1053" 
d="M986 435q-4 -224 -116 -340t-318 -116q-209 0 -325 140.5t-116 405.5v404q0 264 117 406t324 142q210 0 319 -114.5t116 -346.5h-201q-2 160 -56.5 232.5t-177.5 72.5q-119 0 -180 -98t-61 -291v-407q0 -196 59.5 -294t181.5 -98q121 0 176 69.5t58 232.5h200zM624 1845
h230l-234 -266h-158z" />
    <glyph glyph-name="cacute" unicode="&#x107;" horiz-adv-x="891" 
d="M471 133q72 0 123 58t47 159h188q4 -160 -102 -265t-253 -105q-197 0 -297 134.5t-100 350.5v149q0 216 100.5 352t295.5 136q163 0 261 -108.5t95 -293.5h-188q3 112 -43.5 179t-126.5 67q-110 0 -151.5 -91.5t-41.5 -240.5v-149q0 -152 41 -242t152 -90zM504 1502h230
l-234 -266h-158z" />
    <glyph glyph-name="Ccircumflex" unicode="&#x108;" horiz-adv-x="1053" 
d="M986 435q-4 -224 -116 -340t-318 -116q-209 0 -325 140.5t-116 405.5v404q0 264 117 406t324 142q210 0 319 -114.5t116 -346.5h-201q-2 160 -56.5 232.5t-177.5 72.5q-119 0 -180 -98t-61 -291v-407q0 -196 59.5 -294t181.5 -98q121 0 176 69.5t58 232.5h200zM838 1642
v-22h-154l-122 155l-120 -155h-153v23l214 232h118z" />
    <glyph glyph-name="ccircumflex" unicode="&#x109;" horiz-adv-x="891" 
d="M471 133q72 0 123 58t47 159h188q4 -160 -102 -265t-253 -105q-197 0 -297 134.5t-100 350.5v149q0 216 100.5 352t295.5 136q163 0 261 -108.5t95 -293.5h-188q3 112 -43.5 179t-126.5 67q-110 0 -151.5 -91.5t-41.5 -240.5v-149q0 -152 41 -242t152 -90zM718 1299v-22
h-154l-122 155l-120 -155h-153v23l214 232h118z" />
    <glyph glyph-name="uni010A" unicode="&#x10a;" horiz-adv-x="1053" 
d="M986 435q-4 -224 -116 -340t-318 -116q-209 0 -325 140.5t-116 405.5v404q0 264 117 406t324 142q210 0 319 -114.5t116 -346.5h-201q-2 160 -56.5 232.5t-177.5 72.5q-119 0 -180 -98t-61 -291v-407q0 -196 59.5 -294t181.5 -98q121 0 176 69.5t58 232.5h200zM668 1637
h-213v200h213v-200z" />
    <glyph glyph-name="uni010B" unicode="&#x10b;" horiz-adv-x="891" 
d="M471 133q72 0 123 58t47 159h188q4 -160 -102 -265t-253 -105q-197 0 -297 134.5t-100 350.5v149q0 216 100.5 352t295.5 136q163 0 261 -108.5t95 -293.5h-188q3 112 -43.5 179t-126.5 67q-110 0 -151.5 -91.5t-41.5 -240.5v-149q0 -152 41 -242t152 -90zM548 1294h-213
v200h213v-200z" />
    <glyph glyph-name="Ccaron" unicode="&#x10c;" horiz-adv-x="1053" 
d="M986 435q-4 -224 -116 -340t-318 -116q-209 0 -325 140.5t-116 405.5v404q0 264 117 406t324 142q210 0 319 -114.5t116 -346.5h-201q-2 160 -56.5 232.5t-177.5 72.5q-119 0 -180 -98t-61 -291v-407q0 -196 59.5 -294t181.5 -98q121 0 176 69.5t58 232.5h200zM562 1726
l111 154h172v-17l-217 -240h-131l-216 239v18h169z" />
    <glyph glyph-name="ccaron" unicode="&#x10d;" horiz-adv-x="891" 
d="M471 133q72 0 123 58t47 159h188q4 -160 -102 -265t-253 -105q-197 0 -297 134.5t-100 350.5v149q0 216 100.5 352t295.5 136q163 0 261 -108.5t95 -293.5h-188q3 112 -43.5 179t-126.5 67q-110 0 -151.5 -91.5t-41.5 -240.5v-149q0 -152 41 -242t152 -90zM442 1383
l111 154h172v-17l-217 -240h-131l-216 239v18h169z" />
    <glyph glyph-name="Dcaron" unicode="&#x10e;" horiz-adv-x="1130" 
d="M137 0v1456h347q260 0 395 -148t135 -451v-260q0 -305 -136 -451t-403 -146h-338zM338 1300v-1146h130q190 0 268 105.5t78 337.5v262q0 233 -77 337t-259 104h-140zM498 1705l111 154h172v-17l-217 -240h-131l-216 239v18h169z" />
    <glyph glyph-name="dcaron" unicode="&#x10f;" horiz-adv-x="1107" 
d="M77 528q0 265 88 419.5t253 154.5q71 0 124.5 -31t93.5 -90l3 1v578h201v-1560h-175l-14 115l-3 1q-41 -67 -98 -101.5t-134 -34.5q-164 0 -251.5 141.5t-87.5 385.5v21zM277 507q0 -174 44.5 -272t144.5 -98q61 0 103 33.5t70 96.5v538q-28 66 -70 102.5t-101 36.5
q-100 0 -145.5 -113t-45.5 -303v-21zM1113 1454q0 -89 -31.5 -177t-86.5 -149l-104 67q30 62 45 120t15 133v111h162v-105z" />
    <glyph glyph-name="Emacron" unicode="&#x112;" horiz-adv-x="977" 
d="M846 676h-508v-522h590v-154h-791v1456h786v-156h-585v-469h508v-155zM812 1652h-607v132h607v-132z" />
    <glyph glyph-name="emacron" unicode="&#x113;" horiz-adv-x="894" 
d="M477 -20q-183 0 -290 131.5t-107 344.5v158q0 216 106 352t276 136q180 0 273 -123.5t93 -339.5v-140h-547v-43q0 -144 52 -233.5t157 -89.5q96 0 153.5 27t99.5 77l57 -130q-49 -59 -130.5 -93t-192.5 -34zM462 946q-82 0 -129 -84t-52 -218h349v41q0 117 -41.5 189
t-126.5 72zM760 1331h-607v132h607v-132z" />
    <glyph glyph-name="Ebreve" unicode="&#x114;" horiz-adv-x="977" 
d="M846 676h-508v-522h590v-154h-791v1456h786v-156h-585v-469h508v-155zM780 1872q0 -125 -73 -198.5t-200 -73.5t-199.5 73.5t-72.5 198.5h151q0 -70 28.5 -112t92.5 -42q63 0 92 42.5t29 111.5h152z" />
    <glyph glyph-name="ebreve" unicode="&#x115;" horiz-adv-x="894" 
d="M477 -20q-183 0 -290 131.5t-107 344.5v158q0 216 106 352t276 136q180 0 273 -123.5t93 -339.5v-140h-547v-43q0 -144 52 -233.5t157 -89.5q96 0 153.5 27t99.5 77l57 -130q-49 -59 -130.5 -93t-192.5 -34zM462 946q-82 0 -129 -84t-52 -218h349v41q0 117 -41.5 189
t-126.5 72zM728 1551q0 -125 -73 -198.5t-200 -73.5t-199.5 73.5t-72.5 198.5h151q0 -70 28.5 -112t92.5 -42q63 0 92 42.5t29 111.5h152z" />
    <glyph glyph-name="Edotaccent" unicode="&#x116;" horiz-adv-x="977" 
d="M846 676h-508v-522h590v-154h-791v1456h786v-156h-585v-469h508v-155zM612 1616h-213v200h213v-200z" />
    <glyph glyph-name="edotaccent" unicode="&#x117;" horiz-adv-x="894" 
d="M477 -20q-183 0 -290 131.5t-107 344.5v158q0 216 106 352t276 136q180 0 273 -123.5t93 -339.5v-140h-547v-43q0 -144 52 -233.5t157 -89.5q96 0 153.5 27t99.5 77l57 -130q-49 -59 -130.5 -93t-192.5 -34zM462 946q-82 0 -129 -84t-52 -218h349v41q0 117 -41.5 189
t-126.5 72zM560 1295h-213v200h213v-200z" />
    <glyph glyph-name="Eogonek" unicode="&#x118;" horiz-adv-x="977" 
d="M846 676h-508v-522h590v-154h-52q-64 -52 -96 -102t-32 -111q0 -36 12.5 -56t43.5 -20q21 0 37.5 8t32.5 20l19 -117q-26 -19 -57.5 -31.5t-75.5 -12.5q-77 0 -124 48.5t-47 139.5q0 65 30 124t93 107l-1 3h-574v1456h786v-156h-585v-469h508v-155z" />
    <glyph glyph-name="eogonek" unicode="&#x119;" horiz-adv-x="894" 
d="M800 107q-26 -32 -61.5 -56t-80.5 -41q-56 -47 -84 -94.5t-28 -104.5q0 -36 12.5 -56t43.5 -20q21 0 37.5 8t32.5 20l19 -117q-26 -19 -57.5 -31.5t-75.5 -12.5q-77 0 -124 48.5t-47 139.5q0 52 19 99.5t60 91.5q-178 5 -282 135.5t-104 339.5v158q0 216 106 352t276 136
q180 0 273 -123.5t93 -339.5v-140h-547v-43q0 -144 52 -233.5t157 -89.5q96 0 153.5 27t99.5 77zM462 946q-82 0 -129 -84t-52 -218h349v41q0 117 -41.5 189t-126.5 72z" />
    <glyph glyph-name="Ecaron" unicode="&#x11a;" horiz-adv-x="977" 
d="M846 676h-508v-522h590v-154h-791v1456h786v-156h-585v-469h508v-155zM506 1705l111 154h172v-17l-217 -240h-131l-216 239v18h169z" />
    <glyph glyph-name="ecaron" unicode="&#x11b;" horiz-adv-x="894" 
d="M477 -20q-183 0 -290 131.5t-107 344.5v158q0 216 106 352t276 136q180 0 273 -123.5t93 -339.5v-140h-547v-43q0 -144 52 -233.5t157 -89.5q96 0 153.5 27t99.5 77l57 -130q-49 -59 -130.5 -93t-192.5 -34zM462 946q-82 0 -129 -84t-52 -218h349v41q0 117 -41.5 189
t-126.5 72zM454 1384l111 154h172v-17l-217 -240h-131l-216 239v18h169z" />
    <glyph glyph-name="Gcircumflex" unicode="&#x11c;" horiz-adv-x="1125" 
d="M1004 203q-50 -89 -152.5 -156.5t-272.5 -67.5q-222 0 -351 136.5t-129 398.5v432q0 259 123 395t336 136q216 0 324 -110.5t121 -323.5h-197q-5 139 -63 208.5t-182 69.5q-126 0 -194 -93.5t-68 -279.5v-434q0 -191 73 -286t207 -95q98 0 147.5 34.5t76.5 91.5v331h-225
v147h426v-534zM832 1642v-22h-154l-122 155l-120 -155h-153v23l214 232h118z" />
    <glyph glyph-name="gcircumflex" unicode="&#x11d;" horiz-adv-x="956" 
d="M78 584q0 238 88.5 378t254.5 140q78 0 135 -36.5t97 -104.5l3 1l14 120h173v-1077q0 -212 -103 -326.5t-294 -114.5q-69 0 -142.5 21.5t-137.5 60.5l42 141q54 -32 111 -51t118 -19q106 0 155.5 73.5t49.5 215.5v88l-3 1q-40 -57 -93.5 -86t-126.5 -29
q-164 0 -252.5 127t-88.5 344v133zM279 451q0 -146 45 -230t146 -84q62 0 103.5 32t68.5 94v546q-27 64 -69 99.5t-101 35.5q-101 0 -147 -98t-46 -262v-133zM738 1299v-22h-154l-122 155l-120 -155h-153v23l214 232h118z" />
    <glyph glyph-name="Gbreve" unicode="&#x11e;" horiz-adv-x="1125" 
d="M1004 203q-50 -89 -152.5 -156.5t-272.5 -67.5q-222 0 -351 136.5t-129 398.5v432q0 259 123 395t336 136q216 0 324 -110.5t121 -323.5h-197q-5 139 -63 208.5t-182 69.5q-126 0 -194 -93.5t-68 -279.5v-434q0 -191 73 -286t207 -95q98 0 147.5 34.5t76.5 91.5v331h-225
v147h426v-534zM830 1893q0 -125 -73 -198.5t-200 -73.5t-199.5 73.5t-72.5 198.5h151q0 -70 28.5 -112t92.5 -42q63 0 92 42.5t29 111.5h152z" />
    <glyph glyph-name="gbreve" unicode="&#x11f;" horiz-adv-x="956" 
d="M78 584q0 238 88.5 378t254.5 140q78 0 135 -36.5t97 -104.5l3 1l14 120h173v-1077q0 -212 -103 -326.5t-294 -114.5q-69 0 -142.5 21.5t-137.5 60.5l42 141q54 -32 111 -51t118 -19q106 0 155.5 73.5t49.5 215.5v88l-3 1q-40 -57 -93.5 -86t-126.5 -29
q-164 0 -252.5 127t-88.5 344v133zM279 451q0 -146 45 -230t146 -84q62 0 103.5 32t68.5 94v546q-27 64 -69 99.5t-101 35.5q-101 0 -147 -98t-46 -262v-133zM736 1550q0 -125 -73 -198.5t-200 -73.5t-199.5 73.5t-72.5 198.5h151q0 -70 28.5 -112t92.5 -42q63 0 92 42.5
t29 111.5h152z" />
    <glyph glyph-name="uni0120" unicode="&#x120;" horiz-adv-x="1125" 
d="M1004 203q-50 -89 -152.5 -156.5t-272.5 -67.5q-222 0 -351 136.5t-129 398.5v432q0 259 123 395t336 136q216 0 324 -110.5t121 -323.5h-197q-5 139 -63 208.5t-182 69.5q-126 0 -194 -93.5t-68 -279.5v-434q0 -191 73 -286t207 -95q98 0 147.5 34.5t76.5 91.5v331h-225
v147h426v-534zM662 1637h-213v200h213v-200z" />
    <glyph glyph-name="uni0121" unicode="&#x121;" horiz-adv-x="956" 
d="M78 584q0 238 88.5 378t254.5 140q78 0 135 -36.5t97 -104.5l3 1l14 120h173v-1077q0 -212 -103 -326.5t-294 -114.5q-69 0 -142.5 21.5t-137.5 60.5l42 141q54 -32 111 -51t118 -19q106 0 155.5 73.5t49.5 215.5v88l-3 1q-40 -57 -93.5 -86t-126.5 -29
q-164 0 -252.5 127t-88.5 344v133zM279 451q0 -146 45 -230t146 -84q62 0 103.5 32t68.5 94v546q-27 64 -69 99.5t-101 35.5q-101 0 -147 -98t-46 -262v-133zM568 1294h-213v200h213v-200z" />
    <glyph glyph-name="Gcommaaccent" unicode="&#x122;" horiz-adv-x="1125" 
d="M1004 203q-50 -89 -152.5 -156.5t-272.5 -67.5q-222 0 -351 136.5t-129 398.5v432q0 259 123 395t336 136q216 0 324 -110.5t121 -323.5h-197q-5 139 -63 208.5t-182 69.5q-126 0 -194 -93.5t-68 -279.5v-434q0 -191 73 -286t207 -95q98 0 147.5 34.5t76.5 91.5v331h-225
v147h426v-534zM642 -202q0 -89 -31.5 -177t-86.5 -149l-104 67q30 62 45 120t15 133v111h162v-105z" />
    <glyph glyph-name="gcommaaccent" unicode="&#x123;" horiz-adv-x="956" 
d="M78 584q0 238 88.5 378t254.5 140q78 0 135 -36.5t97 -104.5l3 1l14 120h173v-1077q0 -212 -103 -326.5t-294 -114.5q-69 0 -142.5 21.5t-137.5 60.5l42 141q54 -32 111 -51t118 -19q106 0 155.5 73.5t49.5 215.5v88l-3 1q-40 -57 -93.5 -86t-126.5 -29
q-164 0 -252.5 127t-88.5 344v133zM279 451q0 -146 45 -230t146 -84q62 0 103.5 32t68.5 94v546q-27 64 -69 99.5t-101 35.5q-101 0 -147 -98t-46 -262v-133zM369 1411l94 238h105l-23 -244v-146h-176v152z" />
    <glyph glyph-name="Hcircumflex" unicode="&#x124;" horiz-adv-x="1194" 
d="M1056 0h-201v642h-517v-642h-201v1456h201v-659h517v659h201v-1456zM868 1621v-22h-154l-122 155l-120 -155h-153v23l214 232h118z" />
    <glyph glyph-name="hcircumflex" unicode="&#x125;" 
d="M311 954l3 -1q42 70 102.5 109.5t136.5 39.5q141 0 217 -105.5t76 -334.5v-662h-200v664q0 153 -39.5 216.5t-122.5 63.5q-56 0 -99.5 -33.5t-73.5 -93.5v-817h-201v1560h201v-606zM704 1636v-22h-154l-122 155l-120 -155h-153v23l214 232h118z" />
    <glyph glyph-name="Itilde" unicode="&#x128;" horiz-adv-x="499" 
d="M350 0h-201v1456h201v-1456zM540 1838q0 -94 -47 -156t-122 -62q-58 0 -123.5 49t-107.5 49q-32 0 -53 -33t-21 -83l-108 28q0 93 46.5 156.5t121.5 63.5q46 0 117.5 -49.5t113.5 -49.5q32 0 53.5 33.5t21.5 84.5z" />
    <glyph glyph-name="itilde" unicode="&#x129;" horiz-adv-x="459" 
d="M326 0h-200v1082h200v-1082zM519 1495q0 -94 -47 -156t-122 -62q-58 0 -123.5 49t-107.5 49q-32 0 -53 -33t-21 -83l-108 28q0 93 46.5 156.5t121.5 63.5q46 0 117.5 -49.5t113.5 -49.5q32 0 53.5 33.5t21.5 84.5z" />
    <glyph glyph-name="Imacron" unicode="&#x12a;" horiz-adv-x="499" 
d="M350 0h-201v1456h201v-1456zM555 1652h-607v132h607v-132z" />
    <glyph glyph-name="imacron" unicode="&#x12b;" horiz-adv-x="459" 
d="M326 0h-200v1082h200v-1082zM534 1310h-607v132h607v-132z" />
    <glyph glyph-name="Ibreve" unicode="&#x12c;" horiz-adv-x="499" 
d="M350 0h-201v1456h201v-1456zM523 1872q0 -125 -73 -198.5t-200 -73.5t-199.5 73.5t-72.5 198.5h151q0 -70 28.5 -112t92.5 -42q63 0 92 42.5t29 111.5h152z" />
    <glyph glyph-name="ibreve" unicode="&#x12d;" horiz-adv-x="459" 
d="M326 0h-200v1082h200v-1082zM502 1529q0 -125 -73 -198.5t-200 -73.5t-199.5 73.5t-72.5 198.5h151q0 -70 28.5 -112t92.5 -42q63 0 92 42.5t29 111.5h152z" />
    <glyph glyph-name="Iogonek" unicode="&#x12e;" horiz-adv-x="499" 
d="M350 0h-201v1456h201v-1456zM321 6q-64 -52 -96 -102t-32 -111q0 -36 12.5 -56t43.5 -20q21 0 37.5 8t32.5 20l19 -117q-26 -19 -57.5 -31.5t-75.5 -12.5q-77 0 -124 48.5t-47 139.5q0 82 49 154.5t154 128.5z" />
    <glyph glyph-name="iogonek" unicode="&#x12f;" horiz-adv-x="453" 
d="M326 0h-200v1082h200v-1082zM326 1366h-200v194h200v-194zM296 0q-64 -52 -96 -102t-32 -111q0 -36 12.5 -56t43.5 -20q21 0 37.5 8t32.5 20l19 -117q-26 -19 -57.5 -31.5t-75.5 -12.5q-77 0 -124 48.5t-47 139.5q0 82 49 154.5t154 128.5z" />
    <glyph glyph-name="Idotaccent" unicode="&#x130;" horiz-adv-x="499" 
d="M350 0h-201v1456h201v-1456zM354 1616h-213v200h213v-200z" />
    <glyph glyph-name="IJ" unicode="&#x132;" horiz-adv-x="1449" 
d="M350 0h-201v1456h201v-1456zM1118 1456h200v-1039q0 -205 -104 -321.5t-271 -116.5q-181 0 -283 106.5t-102 322.5h200q0 -142 46.5 -208.5t138.5 -66.5q81 0 128 74.5t47 209.5v1039z" />
    <glyph glyph-name="ij" unicode="&#x133;" horiz-adv-x="909" 
d="M326 0h-200v1082h200v-1082zM326 1366h-200v194h200v-194zM787 1082v-1156q0 -177 -74 -270t-211 -93q-30 0 -52.5 4.5t-50.5 13.5l11 155q16 -6 35 -10t37 -4q49 0 77 49.5t28 154.5v1156h200zM782 1369h-200v191h200v-191z" />
    <glyph glyph-name="Jcircumflex" unicode="&#x134;" horiz-adv-x="950" 
d="M619 1456h200v-1039q0 -205 -104 -321.5t-271 -116.5q-181 0 -283 106.5t-102 322.5h200q0 -142 46.5 -208.5t138.5 -66.5q81 0 128 74.5t47 209.5v1039zM984 1607v-22h-154l-122 155l-120 -155h-153v23l214 232h118z" />
    <glyph glyph-name="jcircumflex" unicode="&#x135;" horiz-adv-x="469" 
d="M340 1082v-1156q0 -177 -74.5 -270t-211.5 -93q-30 0 -52.5 4.5t-49.5 13.5l11 151q15 -5 37 -9t40 -4q48 0 74 53.5t26 153.5v1156h200zM508 1263v-22h-154l-122 155l-120 -155h-153v23l214 232h118z" />
    <glyph glyph-name="Kcommaaccent" unicode="&#x136;" horiz-adv-x="1086" 
d="M466 653h-128v-653h-201v1456h201v-640h111l359 640h239l-430 -693l462 -763h-245zM607 -190q0 -89 -31.5 -177t-86.5 -149l-104 67q30 62 45 120t15 133v111h162v-105z" />
    <glyph glyph-name="kcommaaccent" unicode="&#x137;" horiz-adv-x="889" 
d="M396 496h-82v-496h-200v1560h200v-909h81l215 431h234l-291 -488l328 -594h-233zM535 -188q0 -89 -31.5 -177t-86.5 -149l-104 67q30 62 45 120t15 133v111h162v-105z" />
    <glyph glyph-name="Lacute" unicode="&#x139;" horiz-adv-x="928" 
d="M338 154h535v-154h-736v1456h201v-1302zM299 1773h230l-234 -266h-158z" />
    <glyph glyph-name="lacute" unicode="&#x13a;" horiz-adv-x="453" 
d="M326 0h-200v1560h200v-1560zM288 1885h230l-234 -266h-158z" />
    <glyph glyph-name="Lcommaaccent" unicode="&#x13b;" horiz-adv-x="928" 
d="M338 154h535v-154h-736v1456h201v-1302zM588 -188q0 -89 -31.5 -177t-86.5 -149l-104 67q30 62 45 120t15 133v111h162v-105z" />
    <glyph glyph-name="lcommaaccent" unicode="&#x13c;" horiz-adv-x="453" 
d="M326 0h-200v1560h200v-1560zM306 -188q0 -89 -31.5 -177t-86.5 -149l-104 67q30 62 45 120t15 133v111h162v-105z" />
    <glyph glyph-name="Lcaron" unicode="&#x13d;" horiz-adv-x="928" 
d="M338 154h535v-154h-736v1456h201v-1302zM707 1351q0 -89 -31.5 -177t-86.5 -149l-104 67q30 62 45 120t15 133v111h162v-105z" />
    <glyph glyph-name="lcaron" unicode="&#x13e;" horiz-adv-x="603" 
d="M326 0h-200v1560h200v-1560zM613 1454q0 -89 -31.5 -177t-86.5 -149l-104 67q30 62 45 120t15 133v111h162v-105z" />
    <glyph glyph-name="Ldot" unicode="&#x13f;" horiz-adv-x="928" 
d="M338 154h535v-154h-736v1456h201v-1302zM703 684h-213v200h213v-200z" />
    <glyph glyph-name="ldot" unicode="&#x140;" horiz-adv-x="673" 
d="M326 0h-200v1560h200v-1560zM629 668h-213v200h213v-200z" />
    <glyph glyph-name="Nacute" unicode="&#x143;" horiz-adv-x="1195" 
d="M1056 0h-200l-515 1074l-3 -1v-1073h-201v1456h201l515 -1072l3 1v1071h200v-1456zM657 1824h230l-234 -266h-158z" />
    <glyph glyph-name="nacute" unicode="&#x144;" 
d="M295 1082l11 -146h3q41 79 104.5 122.5t145.5 43.5q138 0 212.5 -101.5t74.5 -324.5v-676h-201v674q0 151 -38.5 210.5t-122.5 59.5q-57 0 -100 -36t-72 -100v-808h-201v1082h184zM538 1502h230l-234 -266h-158z" />
    <glyph glyph-name="Ncommaaccent" unicode="&#x145;" horiz-adv-x="1195" 
d="M1056 0h-200l-515 1074l-3 -1v-1073h-201v1456h201l515 -1072l3 1v1071h200v-1456zM675 -188q0 -89 -31.5 -177t-86.5 -149l-104 67q30 62 45 120t15 133v111h162v-105z" />
    <glyph glyph-name="ncommaaccent" unicode="&#x146;" 
d="M295 1082l11 -146h3q41 79 104.5 122.5t145.5 43.5q138 0 212.5 -101.5t74.5 -324.5v-676h-201v674q0 151 -38.5 210.5t-122.5 59.5q-57 0 -100 -36t-72 -100v-808h-201v1082h184zM556 -188q0 -89 -31.5 -177t-86.5 -149l-104 67q30 62 45 120t15 133v111h162v-105z" />
    <glyph glyph-name="Ncaron" unicode="&#x147;" horiz-adv-x="1195" 
d="M1056 0h-200l-515 1074l-3 -1v-1073h-201v1456h201l515 -1072l3 1v1071h200v-1456zM595 1705l111 154h172v-17l-217 -240h-131l-216 239v18h169z" />
    <glyph glyph-name="ncaron" unicode="&#x148;" 
d="M295 1082l11 -146h3q41 79 104.5 122.5t145.5 43.5q138 0 212.5 -101.5t74.5 -324.5v-676h-201v674q0 151 -38.5 210.5t-122.5 59.5q-57 0 -100 -36t-72 -100v-808h-201v1082h184zM476 1383l111 154h172v-17l-217 -240h-131l-216 239v18h169z" />
    <glyph glyph-name="napostrophe" unicode="&#x149;" 
d="M295 1082l11 -146h3q41 79 104.5 122.5t145.5 43.5q138 0 212.5 -101.5t74.5 -324.5v-676h-201v674q0 151 -38.5 210.5t-122.5 59.5q-57 0 -100 -36t-72 -100v-808h-201v1082h184zM201 1453q0 -89 -31.5 -177t-86.5 -149l-104 67q30 62 45 120t15 133v111h162v-105z" />
    <glyph glyph-name="Omacron" unicode="&#x14c;" horiz-adv-x="1164" 
d="M1048 527q0 -264 -126 -406t-345 -142q-216 0 -338.5 142t-122.5 406v400q0 263 122.5 406.5t337.5 143.5q219 0 345.5 -143.5t126.5 -406.5v-400zM847 930q0 193 -69 290t-202 97q-128 0 -193.5 -97t-65.5 -290v-403q0 -196 65.5 -293t194.5 -97q133 0 201.5 97
t68.5 293v403zM889 1673h-607v132h607v-132z" />
    <glyph glyph-name="omacron" unicode="&#x14d;" 
d="M77 609q0 220 105 356.5t295 136.5q191 0 296 -136.5t105 -356.5v-138q0 -222 -104.5 -356.5t-294.5 -134.5q-192 0 -297 135t-105 356v138zM278 471q0 -152 48 -245t153 -93q102 0 150.5 93.5t48.5 244.5v138q0 150 -49 243.5t-152 93.5q-104 0 -151.5 -93.5
t-47.5 -243.5v-138zM784 1330h-607v132h607v-132z" />
    <glyph glyph-name="Obreve" unicode="&#x14e;" horiz-adv-x="1164" 
d="M1048 527q0 -264 -126 -406t-345 -142q-216 0 -338.5 142t-122.5 406v400q0 263 122.5 406.5t337.5 143.5q219 0 345.5 -143.5t126.5 -406.5v-400zM847 930q0 193 -69 290t-202 97q-128 0 -193.5 -97t-65.5 -290v-403q0 -196 65.5 -293t194.5 -97q133 0 201.5 97
t68.5 293v403zM857 1893q0 -125 -73 -198.5t-200 -73.5t-199.5 73.5t-72.5 198.5h151q0 -70 28.5 -112t92.5 -42q63 0 92 42.5t29 111.5h152z" />
    <glyph glyph-name="obreve" unicode="&#x14f;" 
d="M77 609q0 220 105 356.5t295 136.5q191 0 296 -136.5t105 -356.5v-138q0 -222 -104.5 -356.5t-294.5 -134.5q-192 0 -297 135t-105 356v138zM278 471q0 -152 48 -245t153 -93q102 0 150.5 93.5t48.5 244.5v138q0 150 -49 243.5t-152 93.5q-104 0 -151.5 -93.5
t-47.5 -243.5v-138zM752 1550q0 -125 -73 -198.5t-200 -73.5t-199.5 73.5t-72.5 198.5h151q0 -70 28.5 -112t92.5 -42q63 0 92 42.5t29 111.5h152z" />
    <glyph glyph-name="Ohungarumlaut" unicode="&#x150;" horiz-adv-x="1164" 
d="M1048 527q0 -264 -126 -406t-345 -142q-216 0 -338.5 142t-122.5 406v400q0 263 122.5 406.5t337.5 143.5q219 0 345.5 -143.5t126.5 -406.5v-400zM847 930q0 193 -69 290t-202 97q-128 0 -193.5 -97t-65.5 -290v-403q0 -196 65.5 -293t194.5 -97q133 0 201.5 97
t68.5 293v403zM808 1888h206l-239 -266h-165zM518 1888h198l-197 -266h-155z" />
    <glyph glyph-name="ohungarumlaut" unicode="&#x151;" 
d="M77 609q0 220 105 356.5t295 136.5q191 0 296 -136.5t105 -356.5v-138q0 -222 -104.5 -356.5t-294.5 -134.5q-192 0 -297 135t-105 356v138zM278 471q0 -152 48 -245t153 -93q102 0 150.5 93.5t48.5 244.5v138q0 150 -49 243.5t-152 93.5q-104 0 -151.5 -93.5
t-47.5 -243.5v-138zM703 1545h206l-239 -266h-165zM413 1545h198l-197 -266h-155z" />
    <glyph glyph-name="Racute" unicode="&#x154;" horiz-adv-x="1107" 
d="M338 627v-627h-201v1455h443q200 0 302 -104t102 -309q0 -118 -53 -201.5t-153 -131.5q106 -38 150.5 -124t44.5 -220v-127q0 -68 12.5 -123.5t43.5 -89.5v-25h-206q-33 34 -42 99.5t-9 140.5v123q0 125 -48.5 194.5t-139.5 69.5h-246zM338 782h223q116 0 169 65.5
t53 189.5q0 128 -50 195.5t-159 67.5h-236v-518zM577 1824h230l-234 -266h-158z" />
    <glyph glyph-name="racute" unicode="&#x155;" horiz-adv-x="613" 
d="M559 911l-93 5q-57 0 -94 -35.5t-58 -102.5v-778h-201v1082h184l13 -151h3q32 81 81.5 126t117.5 45q19 0 38.5 -3.5t32.5 -8.5zM405 1502h230l-234 -266h-158z" />
    <glyph glyph-name="Rcommaaccent" unicode="&#x156;" horiz-adv-x="1107" 
d="M338 627v-627h-201v1455h443q200 0 302 -104t102 -309q0 -118 -53 -201.5t-153 -131.5q106 -38 150.5 -124t44.5 -220v-127q0 -68 12.5 -123.5t43.5 -89.5v-25h-206q-33 34 -42 99.5t-9 140.5v123q0 125 -48.5 194.5t-139.5 69.5h-246zM338 782h223q116 0 169 65.5
t53 189.5q0 128 -50 195.5t-159 67.5h-236v-518zM595 -188q0 -89 -31.5 -177t-86.5 -149l-104 67q30 62 45 120t15 133v111h162v-105z" />
    <glyph glyph-name="rcommaaccent" unicode="&#x157;" horiz-adv-x="613" 
d="M559 911l-93 5q-57 0 -94 -35.5t-58 -102.5v-778h-201v1082h184l13 -151h3q32 81 81.5 126t117.5 45q19 0 38.5 -3.5t32.5 -8.5zM304 -187q0 -89 -31.5 -177t-86.5 -149l-104 67q30 62 45 120t15 133v111h162v-105z" />
    <glyph glyph-name="Rcaron" unicode="&#x158;" horiz-adv-x="1107" 
d="M338 627v-627h-201v1455h443q200 0 302 -104t102 -309q0 -118 -53 -201.5t-153 -131.5q106 -38 150.5 -124t44.5 -220v-127q0 -68 12.5 -123.5t43.5 -89.5v-25h-206q-33 34 -42 99.5t-9 140.5v123q0 125 -48.5 194.5t-139.5 69.5h-246zM338 782h223q116 0 169 65.5
t53 189.5q0 128 -50 195.5t-159 67.5h-236v-518zM515 1705l111 154h172v-17l-217 -240h-131l-216 239v18h169z" />
    <glyph glyph-name="rcaron" unicode="&#x159;" horiz-adv-x="613" 
d="M559 911l-93 5q-57 0 -94 -35.5t-58 -102.5v-778h-201v1082h184l13 -151h3q32 81 81.5 126t117.5 45q19 0 38.5 -3.5t32.5 -8.5zM344 1383l111 154h172v-17l-217 -240h-131l-216 239v18h169z" />
    <glyph glyph-name="Sacute" unicode="&#x15a;" horiz-adv-x="1044" 
d="M766 366q0 105 -52.5 169.5t-189.5 115.5q-202 64 -306 163.5t-104 269.5q0 176 116 284.5t306 108.5q196 0 313 -126t117 -315h-201q0 130 -59 208t-172 78q-107 0 -163 -65.5t-56 -170.5q0 -95 60.5 -157t204.5 -115q194 -63 290 -167.5t96 -278.5q0 -183 -115 -286
t-310 -103q-190 0 -327 114.5t-137 332.5h201q0 -154 71 -224t192 -70q109 0 167 62t58 172zM577 1845h230l-234 -266h-158z" />
    <glyph glyph-name="sacute" unicode="&#x15b;" horiz-adv-x="859" 
d="M590 271q0 64 -37.5 106.5t-146.5 95.5q-162 66 -237.5 137.5t-75.5 191.5q0 127 93 213.5t249 86.5q162 0 256 -94t94 -242h-200q0 79 -39 133.5t-111 54.5q-71 0 -109 -42.5t-38 -101.5q0 -63 32.5 -98t146.5 -94q165 -62 242 -137.5t77 -199.5q0 -137 -95.5 -219
t-257.5 -82q-175 0 -272 100.5t-97 243.5h194q3 -107 52.5 -152.5t125.5 -45.5q74 0 114 40t40 105zM497 1502h230l-234 -266h-158z" />
    <glyph glyph-name="Scircumflex" unicode="&#x15c;" horiz-adv-x="1044" 
d="M766 366q0 105 -52.5 169.5t-189.5 115.5q-202 64 -306 163.5t-104 269.5q0 176 116 284.5t306 108.5q196 0 313 -126t117 -315h-201q0 130 -59 208t-172 78q-107 0 -163 -65.5t-56 -170.5q0 -95 60.5 -157t204.5 -115q194 -63 290 -167.5t96 -278.5q0 -183 -115 -286
t-310 -103q-190 0 -327 114.5t-137 332.5h201q0 -154 71 -224t192 -70q109 0 167 62t58 172zM791 1642v-22h-154l-122 155l-120 -155h-153v23l214 232h118z" />
    <glyph glyph-name="scircumflex" unicode="&#x15d;" horiz-adv-x="859" 
d="M590 271q0 64 -37.5 106.5t-146.5 95.5q-162 66 -237.5 137.5t-75.5 191.5q0 127 93 213.5t249 86.5q162 0 256 -94t94 -242h-200q0 79 -39 133.5t-111 54.5q-71 0 -109 -42.5t-38 -101.5q0 -63 32.5 -98t146.5 -94q165 -62 242 -137.5t77 -199.5q0 -137 -95.5 -219
t-257.5 -82q-175 0 -272 100.5t-97 243.5h194q3 -107 52.5 -152.5t125.5 -45.5q74 0 114 40t40 105zM711 1299v-22h-154l-122 155l-120 -155h-153v23l214 232h118z" />
    <glyph glyph-name="Scedilla" unicode="&#x15e;" horiz-adv-x="1044" 
d="M766 366q0 105 -52.5 169.5t-189.5 115.5q-202 64 -306 163.5t-104 269.5q0 176 116 284.5t306 108.5q196 0 313 -126t117 -315h-201q0 130 -59 208t-172 78q-107 0 -163 -65.5t-56 -170.5q0 -95 60.5 -157t204.5 -115q194 -63 290 -167.5t96 -278.5q0 -183 -115 -286
t-310 -103q-190 0 -327 114.5t-137 332.5h201q0 -154 71 -224t192 -70q109 0 167 62t58 172zM600 -7l-9 -58q52 -10 86.5 -50t34.5 -122q0 -100 -68 -157t-198 -57l-6 113q49 0 78.5 24.5t29.5 76.5q0 51 -26.5 70t-93.5 26l25 134h147z" />
    <glyph glyph-name="scedilla" unicode="&#x15f;" horiz-adv-x="859" 
d="M590 271q0 64 -37.5 106.5t-146.5 95.5q-162 66 -237.5 137.5t-75.5 191.5q0 127 93 213.5t249 86.5q162 0 256 -94t94 -242h-200q0 79 -39 133.5t-111 54.5q-71 0 -109 -42.5t-38 -101.5q0 -63 32.5 -98t146.5 -94q165 -62 242 -137.5t77 -199.5q0 -137 -95.5 -219
t-257.5 -82q-175 0 -272 100.5t-97 243.5h194q3 -107 52.5 -152.5t125.5 -45.5q74 0 114 40t40 105zM513 -5l-9 -58q52 -10 86.5 -50t34.5 -122q0 -100 -68 -157t-198 -57l-6 113q49 0 78.5 24.5t29.5 76.5q0 51 -26.5 70t-93.5 26l25 134h147z" />
    <glyph glyph-name="uni0218" unicode="&#x218;" horiz-adv-x="1044" 
d="M766 366q0 105 -52.5 169.5t-189.5 115.5q-202 64 -306 163.5t-104 269.5q0 176 116 284.5t306 108.5q196 0 313 -126t117 -315h-201q0 130 -59 208t-172 78q-107 0 -163 -65.5t-56 -170.5q0 -95 60.5 -157t204.5 -115q194 -63 290 -167.5t96 -278.5q0 -183 -115 -286
t-310 -103q-190 0 -327 114.5t-137 332.5h201q0 -154 71 -224t192 -70q109 0 167 62t58 172zM602 -208q0 -89 -31.5 -177t-86.5 -149l-104 67q30 62 45 120t15 133v111h162v-105z" />
    <glyph glyph-name="uni0219" unicode="&#x219;" horiz-adv-x="859" 
d="M590 271q0 64 -37.5 106.5t-146.5 95.5q-162 66 -237.5 137.5t-75.5 191.5q0 127 93 213.5t249 86.5q162 0 256 -94t94 -242h-200q0 79 -39 133.5t-111 54.5q-71 0 -109 -42.5t-38 -101.5q0 -63 32.5 -98t146.5 -94q165 -62 242 -137.5t77 -199.5q0 -137 -95.5 -219
t-257.5 -82q-175 0 -272 100.5t-97 243.5h194q3 -107 52.5 -152.5t125.5 -45.5q74 0 114 40t40 105zM515 -206q0 -89 -31.5 -177t-86.5 -149l-104 67q30 62 45 120t15 133v111h162v-105z" />
    <glyph glyph-name="Scaron" unicode="&#x160;" horiz-adv-x="1044" 
d="M766 366q0 105 -52.5 169.5t-189.5 115.5q-202 64 -306 163.5t-104 269.5q0 176 116 284.5t306 108.5q196 0 313 -126t117 -315h-201q0 130 -59 208t-172 78q-107 0 -163 -65.5t-56 -170.5q0 -95 60.5 -157t204.5 -115q194 -63 290 -167.5t96 -278.5q0 -183 -115 -286
t-310 -103q-190 0 -327 114.5t-137 332.5h201q0 -154 71 -224t192 -70q109 0 167 62t58 172zM515 1726l111 154h172v-17l-217 -240h-131l-216 239v18h169z" />
    <glyph glyph-name="scaron" unicode="&#x161;" horiz-adv-x="859" 
d="M590 271q0 64 -37.5 106.5t-146.5 95.5q-162 66 -237.5 137.5t-75.5 191.5q0 127 93 213.5t249 86.5q162 0 256 -94t94 -242h-200q0 79 -39 133.5t-111 54.5q-71 0 -109 -42.5t-38 -101.5q0 -63 32.5 -98t146.5 -94q165 -62 242 -137.5t77 -199.5q0 -137 -95.5 -219
t-257.5 -82q-175 0 -272 100.5t-97 243.5h194q3 -107 52.5 -152.5t125.5 -45.5q74 0 114 40t40 105zM435 1383l111 154h172v-17l-217 -240h-131l-216 239v18h169z" />
    <glyph glyph-name="uni021A" unicode="&#x21a;" horiz-adv-x="1010" 
d="M958 1300h-354v-1300h-199v1300h-353v156h906v-156zM586 -192q0 -89 -31.5 -177t-86.5 -149l-104 67q30 62 45 120t15 133v111h162v-105z" />
    <glyph glyph-name="uni021B" unicode="&#x21b;" horiz-adv-x="564" 
d="M352 1351v-269h156v-145h-156v-644q0 -86 20 -120t54 -34q20 0 37 3t34 8l21 -139q-27 -14 -64.5 -22.5t-77.5 -8.5q-109 0 -167 73.5t-58 239.5v644h-119v145h119v269h201zM439 -198q0 -89 -31.5 -177t-86.5 -149l-104 67q30 62 45 120t15 133v111h162v-105z" />
    <glyph glyph-name="uni0162" unicode="&#x162;" horiz-adv-x="1010" 
d="M958 1300h-354v-1300h-199v1300h-353v156h906v-156zM584 8l-9 -58q52 -10 86.5 -50t34.5 -122q0 -100 -68 -157t-198 -57l-6 113q49 0 78.5 24.5t29.5 76.5q0 51 -26.5 70t-93.5 26l25 134h147z" />
    <glyph glyph-name="uni0163" unicode="&#x163;" horiz-adv-x="564" 
d="M352 1351v-269h156v-145h-156v-644q0 -86 20 -120t54 -34q20 0 37 3t34 8l21 -139q-27 -14 -64.5 -22.5t-77.5 -8.5q-109 0 -167 73.5t-58 239.5v644h-119v145h119v269h201zM437 2l-9 -58q52 -10 86.5 -50t34.5 -122q0 -100 -68 -157t-198 -57l-6 113q49 0 78.5 24.5
t29.5 76.5q0 51 -26.5 70t-93.5 26l25 134h147z" />
    <glyph glyph-name="Tcaron" unicode="&#x164;" horiz-adv-x="1010" 
d="M958 1300h-354v-1300h-199v1300h-353v156h906v-156zM507 1702l111 154h172v-17l-217 -240h-131l-216 239v18h169z" />
    <glyph glyph-name="tcaron" unicode="&#x165;" horiz-adv-x="604" 
d="M352 1351v-269h156v-145h-156v-644q0 -86 20 -120t54 -34q20 0 37 3t34 8l21 -139q-27 -14 -64.5 -22.5t-77.5 -8.5q-109 0 -167 73.5t-58 239.5v644h-119v145h119v269h201zM671 1472q0 -89 -31.5 -177t-86.5 -149l-104 67q30 62 45 120t15 133v111h162v-105z" />
    <glyph glyph-name="Utilde" unicode="&#x168;" horiz-adv-x="1113" 
d="M1002 1456v-1009q0 -231 -122 -349.5t-326 -118.5q-201 0 -320.5 118.5t-119.5 349.5v1009h198v-1009q0 -159 64.5 -236.5t177.5 -77.5q118 0 183 74.5t65 239.5v1009h200zM848 1838q0 -94 -47 -156t-122 -62q-58 0 -123.5 49t-107.5 49q-32 0 -53 -33t-21 -83l-108 28
q0 93 46.5 156.5t121.5 63.5q46 0 117.5 -49.5t113.5 -49.5q32 0 53.5 33.5t21.5 84.5z" />
    <glyph glyph-name="utilde" unicode="&#x169;" 
d="M654 138h-2q-41 -77 -103 -117.5t-144 -40.5q-142 0 -219 110.5t-77 352.5v639h200v-641q0 -170 35 -237t110 -67q70 0 116 33.5t74 97.5v814h200v-1082h-177zM767 1495q0 -94 -47 -156t-122 -62q-58 0 -123.5 49t-107.5 49q-32 0 -53 -33t-21 -83l-108 28
q0 93 46.5 156.5t121.5 63.5q46 0 117.5 -49.5t113.5 -49.5q32 0 53.5 33.5t21.5 84.5z" />
    <glyph glyph-name="Umacron" unicode="&#x16a;" horiz-adv-x="1113" 
d="M1002 1456v-1009q0 -231 -122 -349.5t-326 -118.5q-201 0 -320.5 118.5t-119.5 349.5v1009h198v-1009q0 -159 64.5 -236.5t177.5 -77.5q118 0 183 74.5t65 239.5v1009h200zM863 1652h-607v132h607v-132z" />
    <glyph glyph-name="umacron" unicode="&#x16b;" 
d="M654 138h-2q-41 -77 -103 -117.5t-144 -40.5q-142 0 -219 110.5t-77 352.5v639h200v-641q0 -170 35 -237t110 -67q70 0 116 33.5t74 97.5v814h200v-1082h-177zM782 1310h-607v132h607v-132z" />
    <glyph glyph-name="Ubreve" unicode="&#x16c;" horiz-adv-x="1113" 
d="M1002 1456v-1009q0 -231 -122 -349.5t-326 -118.5q-201 0 -320.5 118.5t-119.5 349.5v1009h198v-1009q0 -159 64.5 -236.5t177.5 -77.5q118 0 183 74.5t65 239.5v1009h200zM831 1872q0 -125 -73 -198.5t-200 -73.5t-199.5 73.5t-72.5 198.5h151q0 -70 28.5 -112t92.5 -42
q63 0 92 42.5t29 111.5h152z" />
    <glyph glyph-name="ubreve" unicode="&#x16d;" 
d="M654 138h-2q-41 -77 -103 -117.5t-144 -40.5q-142 0 -219 110.5t-77 352.5v639h200v-641q0 -170 35 -237t110 -67q70 0 116 33.5t74 97.5v814h200v-1082h-177zM750 1529q0 -125 -73 -198.5t-200 -73.5t-199.5 73.5t-72.5 198.5h151q0 -70 28.5 -112t92.5 -42
q63 0 92 42.5t29 111.5h152z" />
    <glyph glyph-name="Uring" unicode="&#x16e;" horiz-adv-x="1113" 
d="M1002 1456v-1009q0 -231 -122 -349.5t-326 -118.5q-201 0 -320.5 118.5t-119.5 349.5v1009h198v-1009q0 -159 64.5 -236.5t177.5 -77.5q118 0 183 74.5t65 239.5v1009h200zM383 1734q0 79 50 131.5t125 52.5q73 0 122 -52.5t49 -131.5q0 -81 -49 -131t-122 -50
q-75 0 -125 50t-50 131zM474 1734q0 -42 24 -69t60 -27t58.5 26.5t22.5 69.5q0 44 -22.5 71.5t-58.5 27.5t-60 -28t-24 -71z" />
    <glyph glyph-name="uring" unicode="&#x16f;" 
d="M654 138h-2q-41 -77 -103 -117.5t-144 -40.5q-142 0 -219 110.5t-77 352.5v639h200v-641q0 -170 35 -237t110 -67q70 0 116 33.5t74 97.5v814h200v-1082h-177zM302 1391q0 79 50 131.5t125 52.5q73 0 122 -52.5t49 -131.5q0 -81 -49 -131t-122 -50q-75 0 -125 50t-50 131
zM393 1391q0 -42 24 -69t60 -27t58.5 26.5t22.5 69.5q0 44 -22.5 71.5t-58.5 27.5t-60 -28t-24 -71z" />
    <glyph glyph-name="Uhungarumlaut" unicode="&#x170;" horiz-adv-x="1113" 
d="M1002 1456v-1009q0 -231 -122 -349.5t-326 -118.5q-201 0 -320.5 118.5t-119.5 349.5v1009h198v-1009q0 -159 64.5 -236.5t177.5 -77.5q118 0 183 74.5t65 239.5v1009h200zM782 1867h206l-239 -266h-165zM492 1867h198l-197 -266h-155z" />
    <glyph glyph-name="uhungarumlaut" unicode="&#x171;" 
d="M654 138h-2q-41 -77 -103 -117.5t-144 -40.5q-142 0 -219 110.5t-77 352.5v639h200v-641q0 -170 35 -237t110 -67q70 0 116 33.5t74 97.5v814h200v-1082h-177zM701 1524h206l-239 -266h-165zM411 1524h198l-197 -266h-155z" />
    <glyph glyph-name="Uogonek" unicode="&#x172;" horiz-adv-x="1113" 
d="M1002 1456v-1009q0 -152 -55.5 -254.5t-156.5 -158.5l3 -1q-64 -52 -96 -102t-32 -111q0 -36 12.5 -56t43.5 -20q21 0 37.5 8t32.5 20l19 -117q-26 -19 -57.5 -31.5t-75.5 -12.5q-77 0 -124 48.5t-47 139.5q0 49 17 94t54 87q-6 0 -11 -0.5t-12 -0.5q-201 0 -320.5 118.5
t-119.5 349.5v1009h198v-1009q0 -159 64.5 -236.5t177.5 -77.5q118 0 183 74.5t65 239.5v1009h200z" />
    <glyph glyph-name="uogonek" unicode="&#x173;" 
d="M654 138h-2q-41 -77 -103 -117.5t-144 -40.5q-142 0 -219 110.5t-77 352.5v639h200v-641q0 -170 35 -237t110 -67q70 0 116 33.5t74 97.5v814h200v-1082h-14q-64 -52 -96 -102t-32 -111q0 -36 12.5 -56t43.5 -20q21 0 37.5 8t32.5 20l19 -117q-26 -19 -57.5 -31.5
t-75.5 -12.5q-77 0 -124 48.5t-47 139.5q0 65 30.5 124.5t96.5 109.5h-3z" />
    <glyph glyph-name="Wcircumflex" unicode="&#x174;" horiz-adv-x="1419" 
d="M1000 433h3l155 1023h194l-248 -1456h-180l-214 1021h-3l-214 -1021h-180l-248 1456h194l157 -1026h3l212 1026h155zM984 1621v-22h-154l-122 155l-120 -155h-153v23l214 232h118z" />
    <glyph glyph-name="wcircumflex" unicode="&#x175;" horiz-adv-x="1252" 
d="M364 363l6 -52h3l7 51l172 720h143l172 -719l9 -69h3l10 73l125 715h192l-234 -1082h-166l-167 699l-14 79h-4l-14 -79l-165 -699h-166l-235 1082h191zM899 1278v-22h-154l-122 155l-120 -155h-153v23l214 232h118z" />
    <glyph glyph-name="Ycircumflex" unicode="&#x176;" horiz-adv-x="1026" 
d="M513 761l266 695h222l-392 -931v-525h-198v540l-386 916h222zM791 1617v-22h-154l-122 155l-120 -155h-153v23l214 232h118z" />
    <glyph glyph-name="ycircumflex" unicode="&#x177;" horiz-adv-x="860" 
d="M405 373l14 -65h3l193 774h220l-360 -1250q-34 -111 -95.5 -190t-181.5 -79q-26 0 -51.5 5t-55.5 13l22 150q11 -2 28.5 -4t27.5 -2q57 0 83 37.5t55 132.5l33 110l-316 1077h218zM704 1278v-22h-154l-122 155l-120 -155h-153v23l214 232h118z" />
    <glyph glyph-name="Ydieresis" unicode="&#x178;" horiz-adv-x="1026" 
d="M513 761l266 695h222l-392 -931v-525h-198v540l-386 916h222zM820 1613h-202v185h202v-185zM412 1613h-201v185h201v-185z" />
    <glyph glyph-name="Zacute" unicode="&#x179;" horiz-adv-x="970" 
d="M290 154h608v-154h-819v125l587 1176h-583v155h796v-121zM544 1824h230l-234 -266h-158z" />
    <glyph glyph-name="zacute" unicode="&#x17a;" horiz-adv-x="835" 
d="M294 154h470v-154h-686v128l448 797h-440v157h660v-126zM482 1481h230l-234 -266h-158z" />
    <glyph glyph-name="Zdotaccent" unicode="&#x17b;" horiz-adv-x="970" 
d="M290 154h608v-154h-819v125l587 1176h-583v155h796v-121zM588 1616h-213v200h213v-200z" />
    <glyph glyph-name="zdotaccent" unicode="&#x17c;" horiz-adv-x="835" 
d="M294 154h470v-154h-686v128l448 797h-440v157h660v-126zM526 1273h-213v200h213v-200z" />
    <glyph glyph-name="Zcaron" unicode="&#x17d;" horiz-adv-x="970" 
d="M290 154h608v-154h-819v125l587 1176h-583v155h796v-121zM482 1705l111 154h172v-17l-217 -240h-131l-216 239v18h169z" />
    <glyph glyph-name="zcaron" unicode="&#x17e;" horiz-adv-x="835" 
d="M294 154h470v-154h-686v128l448 797h-440v157h660v-126zM420 1362l111 154h172v-17l-217 -240h-131l-216 239v18h169z" />
    <glyph glyph-name="AEacute" unicode="&#x1fc;" horiz-adv-x="1571" 
d="M1520 0h-720l-12 361h-389l-155 -361h-239l666 1456h800v-157h-516l16 -467h434v-155h-429l17 -522h527v-155zM472 531h310l-23 661l-3 1zM826 1824h230l-234 -266h-158z" />
    <glyph glyph-name="aeacute" unicode="&#x1fd;" horiz-adv-x="1415" 
d="M1019 -21q-109 0 -189.5 43.5t-135.5 128.5q-49 -76 -132 -124t-203 -48q-149 0 -227.5 85.5t-78.5 239.5q0 161 96.5 247.5t286.5 86.5h163v78q0 111 -36 170.5t-106 59.5q-75 0 -116.5 -53.5t-41.5 -135.5l-200 17q0 146 97 237t262 91q88 0 155.5 -31.5t113.5 -94.5
q52 62 117.5 94t147.5 32q175 0 268.5 -126t93.5 -353v-124h-551q1 -169 56 -267.5t174 -98.5q81 0 132.5 26t111.5 77l59 -132q-47 -49 -127.5 -87t-189.5 -38zM398 127q54 0 111 38t90 90v246h-162q-88 0 -135.5 -57.5t-47.5 -143.5q0 -81 35 -127t109 -46zM992 946
q-86 0 -132 -82.5t-55 -224.5h351v30q0 126 -39.5 201.5t-124.5 75.5zM765 1503h230l-234 -266h-158z" />
    <glyph glyph-name="Oslashacute" unicode="&#x1fe;" horiz-adv-x="1152" 
d="M1040 527q0 -264 -126 -406t-345 -142q-71 0 -130.5 15.5t-112.5 48.5l-63 -133h-118l97 204q-67 72 -100.5 174.5t-33.5 238.5v400q0 263 122.5 406.5t337.5 143.5q83 0 152.5 -22t128.5 -66l58 123h118l-96 -202q55 -73 83 -167.5t28 -215.5v-400zM309 527
q0 -64 7 -116.5t22 -95.5l430 904q-36 49 -85.5 73.5t-114.5 24.5q-128 0 -193.5 -97t-65.5 -290v-403zM839 930q0 45 -4 83.5t-11 70.5h-3l-419 -881q32 -34 73 -50t94 -16q133 0 201.5 97t68.5 293v403zM641 1886h230l-234 -266h-158z" />
    <glyph glyph-name="oslashacute" unicode="&#x1ff;" horiz-adv-x="958" 
d="M77 609q0 220 105 356.5t295 136.5q43 0 82 -8.5t76 -23.5l57 143h118l-81 -205q73 -67 111 -169t38 -230v-138q0 -222 -104.5 -356.5t-294.5 -134.5q-41 0 -76.5 6.5t-68.5 19.5l-57 -145h-118l79 201q-80 66 -120.5 170t-40.5 239v138zM278 471q0 -64 8.5 -118.5
t27.5 -97.5l260 660q-21 15 -45 23t-52 8q-104 0 -151.5 -93.5t-47.5 -243.5v-138zM678 609q0 56 -7.5 105t-21.5 91l-256 -649q18 -12 39 -17.5t47 -5.5q102 0 150.5 93.5t48.5 244.5v138zM508 1500h230l-234 -266h-158z" />
    <glyph glyph-name="Dcroat.smcp" horiz-adv-x="989" 
d="M124 0v1165h356q178 0 294 -132t116 -346v-210q0 -214 -116 -345.5t-294 -131.5h-356zM324 1011v-859h156q92 0 150.5 90.5t58.5 234.5v211q0 141 -58.5 232t-150.5 91h-156zM520 523h-529v141h529v-141z" />
    <glyph glyph-name="Eth.smcp" horiz-adv-x="989" 
d="M124 0v1165h356q178 0 294 -132t116 -346v-210q0 -214 -116 -345.5t-294 -131.5h-356zM324 1011v-859h156q92 0 150.5 90.5t58.5 234.5v211q0 141 -58.5 232t-150.5 91h-156zM520 523h-529v141h529v-141z" />
    <glyph glyph-name="Tbar.smcp" horiz-adv-x="887" 
d="M820 1011h-282v-1011h-201v1011h-278v154h761v-154zM698 631h-529v141h529v-141z" />
    <glyph glyph-name="Agrave.smcp" horiz-adv-x="1010" 
d="M689 263h-368l-78 -263h-209l368 1165h207l368 -1165h-209zM367 417h275l-136 455h-3zM599 1238h-165l-224 266h230z" />
    <glyph glyph-name="Aacute.smcp" horiz-adv-x="1010" 
d="M689 263h-368l-78 -263h-209l368 1165h207l368 -1165h-209zM367 417h275l-136 455h-3zM563 1501h230l-234 -266h-158z" />
    <glyph glyph-name="Acircumflex.smcp" horiz-adv-x="1010" 
d="M689 263h-368l-78 -263h-209l368 1165h207l368 -1165h-209zM367 417h275l-136 455h-3zM777 1298v-22h-154l-122 155l-120 -155h-153v23l214 232h118z" />
    <glyph glyph-name="Atilde.smcp" horiz-adv-x="1010" 
d="M689 263h-368l-78 -263h-209l368 1165h207l368 -1165h-209zM367 417h275l-136 455h-3zM792 1515q0 -94 -47 -156t-122 -62q-58 0 -123.5 49t-107.5 49q-32 0 -53 -33t-21 -83l-108 28q0 93 46.5 156.5t121.5 63.5q46 0 117.5 -49.5t113.5 -49.5q32 0 53.5 33.5t21.5 84.5
z" />
    <glyph glyph-name="Adieresis.smcp" horiz-adv-x="1010" 
d="M689 263h-368l-78 -263h-209l368 1165h207l368 -1165h-209zM367 417h275l-136 455h-3zM806 1294h-202v185h202v-185zM398 1294h-201v185h201v-185z" />
    <glyph glyph-name="Aring.smcp" horiz-adv-x="1010" 
d="M689 263h-368l-78 -263h-209l368 1165h207l368 -1165h-209zM367 417h275l-136 455h-3zM327 1411q0 79 50 131.5t125 52.5q73 0 122 -52.5t49 -131.5q0 -81 -49 -131t-122 -50q-75 0 -125 50t-50 131zM418 1411q0 -42 24 -69t60 -27t58.5 26.5t22.5 69.5q0 44 -22.5 71.5
t-58.5 27.5t-60 -28t-24 -71z" />
    <glyph glyph-name="Aringacute.smcp" horiz-adv-x="1010" 
d="M689 263h-368l-78 -263h-209l368 1165h207l368 -1165h-209zM367 417h275l-136 455h-3zM589 1639h189l-200 -191h-123zM350 1233q0 73 43.5 120.5t109.5 47.5q64 0 106.5 -47.5t42.5 -120.5q0 -72 -42.5 -117.5t-106.5 -45.5q-66 0 -109.5 45.5t-43.5 117.5zM431 1233
q0 -38 20.5 -62t51.5 -24q29 0 48.5 24t19.5 62q0 39 -19.5 64.5t-48.5 25.5q-31 0 -51.5 -25.5t-20.5 -64.5z" />
    <glyph glyph-name="Ccedilla.smcp" horiz-adv-x="967" 
d="M875 392q-13 -206 -112 -307.5t-272 -101.5q-177 0 -286.5 136.5t-109.5 362.5v199q0 225 109.5 362.5t286.5 137.5q176 0 274.5 -102t111.5 -307h-201q-13 133 -55.5 194t-129.5 61q-91 0 -143.5 -95.5t-52.5 -249.5v-200q0 -155 52.5 -250.5t143.5 -95.5
q90 0 130.5 58.5t53.5 197.5h200zM555 -2l-9 -58q52 -10 86.5 -50t34.5 -122q0 -100 -68 -157t-198 -57l-6 113q49 0 78.5 24.5t29.5 76.5q0 51 -26.5 70t-93.5 26l25 134h147z" />
    <glyph glyph-name="Egrave.smcp" horiz-adv-x="904" 
d="M726 528h-402v-376h473v-152h-673v1165h673v-154h-473v-329h402v-154zM547 1238h-165l-224 266h230z" />
    <glyph glyph-name="Eacute.smcp" horiz-adv-x="904" 
d="M726 528h-402v-376h473v-152h-673v1165h673v-154h-473v-329h402v-154zM511 1501h230l-234 -266h-158z" />
    <glyph glyph-name="Ecircumflex.smcp" horiz-adv-x="904" 
d="M726 528h-402v-376h473v-152h-673v1165h673v-154h-473v-329h402v-154zM725 1298v-22h-154l-122 155l-120 -155h-153v23l214 232h118z" />
    <glyph glyph-name="Edieresis.smcp" horiz-adv-x="904" 
d="M726 528h-402v-376h473v-152h-673v1165h673v-154h-473v-329h402v-154zM755 1294h-202v185h202v-185zM347 1294h-201v185h201v-185z" />
    <glyph glyph-name="Igrave.smcp" horiz-adv-x="455" 
d="M325 0h-201v1165h201v-1165zM322 1238h-165l-224 266h230z" />
    <glyph glyph-name="Iacute.smcp" horiz-adv-x="455" 
d="M325 0h-201v1165h201v-1165zM285 1501h230l-234 -266h-158z" />
    <glyph glyph-name="Icircumflex.smcp" horiz-adv-x="455" 
d="M325 0h-201v1165h201v-1165zM500 1298v-22h-154l-122 155l-120 -155h-153v23l214 232h118z" />
    <glyph glyph-name="Idieresis.smcp" horiz-adv-x="455" 
d="M325 0h-201v1165h201v-1165zM529 1294h-202v185h202v-185zM121 1294h-201v185h201v-185z" />
    <glyph glyph-name="Ntilde.smcp" horiz-adv-x="1080" 
d="M944 0h-200l-417 798h-3v-798h-200v1165h200l417 -797h3v797h200v-1165zM811 1515q0 -94 -47 -156t-122 -62q-58 0 -123.5 49t-107.5 49q-32 0 -53 -33t-21 -83l-108 28q0 93 46.5 156.5t121.5 63.5q46 0 117.5 -49.5t113.5 -49.5q32 0 53.5 33.5t21.5 84.5z" />
    <glyph glyph-name="Ograve.smcp" horiz-adv-x="1010" 
d="M917 482q0 -229 -112.5 -364t-298.5 -135q-188 0 -300.5 135t-112.5 364v199q0 228 112 364t299 136q186 0 299.5 -136t113.5 -364v-199zM717 682q0 164 -56 254.5t-157 90.5q-102 0 -156.5 -90.5t-54.5 -254.5v-200q0 -166 55 -256.5t158 -90.5q100 0 155.5 90.5
t55.5 256.5v200zM590 1255h-165l-224 266h230z" />
    <glyph glyph-name="Oacute.smcp" horiz-adv-x="1010" 
d="M917 482q0 -229 -112.5 -364t-298.5 -135q-188 0 -300.5 135t-112.5 364v199q0 228 112 364t299 136q186 0 299.5 -136t113.5 -364v-199zM717 682q0 164 -56 254.5t-157 90.5q-102 0 -156.5 -90.5t-54.5 -254.5v-200q0 -166 55 -256.5t158 -90.5q100 0 155.5 90.5
t55.5 256.5v200zM554 1518h230l-234 -266h-158z" />
    <glyph glyph-name="Ocircumflex.smcp" horiz-adv-x="1010" 
d="M917 482q0 -229 -112.5 -364t-298.5 -135q-188 0 -300.5 135t-112.5 364v199q0 228 112 364t299 136q186 0 299.5 -136t113.5 -364v-199zM717 682q0 164 -56 254.5t-157 90.5q-102 0 -156.5 -90.5t-54.5 -254.5v-200q0 -166 55 -256.5t158 -90.5q100 0 155.5 90.5
t55.5 256.5v200zM768 1315v-22h-154l-122 155l-120 -155h-153v23l214 232h118z" />
    <glyph glyph-name="Otilde.smcp" horiz-adv-x="1010" 
d="M917 482q0 -229 -112.5 -364t-298.5 -135q-188 0 -300.5 135t-112.5 364v199q0 228 112 364t299 136q186 0 299.5 -136t113.5 -364v-199zM717 682q0 164 -56 254.5t-157 90.5q-102 0 -156.5 -90.5t-54.5 -254.5v-200q0 -166 55 -256.5t158 -90.5q100 0 155.5 90.5
t55.5 256.5v200zM783 1532q0 -94 -47 -156t-122 -62q-58 0 -123.5 49t-107.5 49q-32 0 -53 -33t-21 -83l-108 28q0 93 46.5 156.5t121.5 63.5q46 0 117.5 -49.5t113.5 -49.5q32 0 53.5 33.5t21.5 84.5z" />
    <glyph glyph-name="Odieresis.smcp" horiz-adv-x="1010" 
d="M917 482q0 -229 -112.5 -364t-298.5 -135q-188 0 -300.5 135t-112.5 364v199q0 228 112 364t299 136q186 0 299.5 -136t113.5 -364v-199zM717 682q0 164 -56 254.5t-157 90.5q-102 0 -156.5 -90.5t-54.5 -254.5v-200q0 -166 55 -256.5t158 -90.5q100 0 155.5 90.5
t55.5 256.5v200zM797 1311h-202v185h202v-185zM389 1311h-201v185h201v-185z" />
    <glyph glyph-name="Ugrave.smcp" horiz-adv-x="1053" 
d="M935 1165v-764q0 -201 -111.5 -309.5t-299.5 -108.5q-189 0 -300.5 108.5t-111.5 309.5v764h200v-764q0 -128 56 -197t156 -69t155.5 68.5t55.5 197.5v764h200zM611 1239h-165l-224 266h230z" />
    <glyph glyph-name="Uacute.smcp" horiz-adv-x="1053" 
d="M935 1165v-764q0 -201 -111.5 -309.5t-299.5 -108.5q-189 0 -300.5 108.5t-111.5 309.5v764h200v-764q0 -128 56 -197t156 -69t155.5 68.5t55.5 197.5v764h200zM575 1502h230l-234 -266h-158z" />
    <glyph glyph-name="Ucircumflex.smcp" horiz-adv-x="1053" 
d="M935 1165v-764q0 -201 -111.5 -309.5t-299.5 -108.5q-189 0 -300.5 108.5t-111.5 309.5v764h200v-764q0 -128 56 -197t156 -69t155.5 68.5t55.5 197.5v764h200zM789 1299v-22h-154l-122 155l-120 -155h-153v23l214 232h118z" />
    <glyph glyph-name="Udieresis.smcp" horiz-adv-x="1053" 
d="M935 1165v-764q0 -201 -111.5 -309.5t-299.5 -108.5q-189 0 -300.5 108.5t-111.5 309.5v764h200v-764q0 -128 56 -197t156 -69t155.5 68.5t55.5 197.5v764h200zM818 1295h-202v185h202v-185zM410 1295h-201v185h201v-185z" />
    <glyph glyph-name="Yacute.smcp" horiz-adv-x="914" 
d="M455 627l210 538h220l-332 -747v-418h-200v429l-327 736h220zM516 1498h230l-234 -266h-158z" />
    <glyph glyph-name="Amacron.smcp" horiz-adv-x="1010" 
d="M689 263h-368l-78 -263h-209l368 1165h207l368 -1165h-209zM367 417h275l-136 455h-3zM807 1329h-607v132h607v-132z" />
    <glyph glyph-name="Abreve.smcp" horiz-adv-x="1010" 
d="M689 263h-368l-78 -263h-209l368 1165h207l368 -1165h-209zM367 417h275l-136 455h-3zM775 1549q0 -125 -73 -198.5t-200 -73.5t-199.5 73.5t-72.5 198.5h151q0 -70 28.5 -112t92.5 -42q63 0 92 42.5t29 111.5h152z" />
    <glyph glyph-name="Aogonek.smcp" horiz-adv-x="1010" 
d="M402 1165h207l368 -1165h-66q-64 -52 -96 -102t-32 -111q0 -36 12.5 -56t43.5 -20q21 0 37.5 8t32.5 20l19 -117q-26 -19 -57.5 -31.5t-75.5 -12.5q-77 0 -124 48.5t-47 139.5q0 69 34 130.5t107 113.5l-76 253h-368l-78 -263h-209zM367 417h275l-136 455h-3z" />
    <glyph glyph-name="Cacute.smcp" horiz-adv-x="967" 
d="M875 392q-13 -206 -112 -307.5t-272 -101.5q-177 0 -286.5 136.5t-109.5 362.5v199q0 225 109.5 362.5t286.5 137.5q176 0 274.5 -102t111.5 -307h-201q-13 133 -55.5 194t-129.5 61q-91 0 -143.5 -95.5t-52.5 -249.5v-200q0 -155 52.5 -250.5t143.5 -95.5
q90 0 130.5 58.5t53.5 197.5h200zM543 1517h230l-234 -266h-158z" />
    <glyph glyph-name="Ccircumflex.smcp" horiz-adv-x="967" 
d="M875 392q-13 -206 -112 -307.5t-272 -101.5q-177 0 -286.5 136.5t-109.5 362.5v199q0 225 109.5 362.5t286.5 137.5q176 0 274.5 -102t111.5 -307h-201q-13 133 -55.5 194t-129.5 61q-91 0 -143.5 -95.5t-52.5 -249.5v-200q0 -155 52.5 -250.5t143.5 -95.5
q90 0 130.5 58.5t53.5 197.5h200zM757 1314v-22h-154l-122 155l-120 -155h-153v23l214 232h118z" />
    <glyph glyph-name="uni010A.smcp" horiz-adv-x="967" 
d="M875 392q-13 -206 -112 -307.5t-272 -101.5q-177 0 -286.5 136.5t-109.5 362.5v199q0 225 109.5 362.5t286.5 137.5q176 0 274.5 -102t111.5 -307h-201q-13 133 -55.5 194t-129.5 61q-91 0 -143.5 -95.5t-52.5 -249.5v-200q0 -155 52.5 -250.5t143.5 -95.5
q90 0 130.5 58.5t53.5 197.5h200zM587 1309h-213v200h213v-200z" />
    <glyph glyph-name="Ccaron.smcp" horiz-adv-x="967" 
d="M875 392q-13 -206 -112 -307.5t-272 -101.5q-177 0 -286.5 136.5t-109.5 362.5v199q0 225 109.5 362.5t286.5 137.5q176 0 274.5 -102t111.5 -307h-201q-13 133 -55.5 194t-129.5 61q-91 0 -143.5 -95.5t-52.5 -249.5v-200q0 -155 52.5 -250.5t143.5 -95.5
q90 0 130.5 58.5t53.5 197.5h200zM481 1398l111 154h172v-17l-217 -240h-131l-216 239v18h169z" />
    </font>
</defs>
</svg>
