<?xml version="1.0" encoding="UTF-8"?>
<!DOCTYPE svg PUBLIC "-//W3C//DTD SVG 1.1//EN" "http://www.w3.org/Graphics/SVG/1.1/DTD/svg11.dtd">
<!-- Creator: CorelDRAW X7 -->
<svg xmlns="http://www.w3.org/2000/svg" xml:space="preserve" width="2.6in" height="0.546667in" version="1.1" style="shape-rendering:geometricPrecision; text-rendering:geometricPrecision; image-rendering:optimizeQuality; fill-rule:evenodd; clip-rule:evenodd"
viewBox="0 0 2627 553"
 xmlns:xlink="http://www.w3.org/1999/xlink">
 <defs>
  <style type="text/css">
   <![CDATA[
    .fil0 {fill:white;fill-rule:nonzero}
   ]]>
  </style>
 </defs>
 <g id="Capa_x0020_1">
  <metadata id="CorelCorpID_0Corel-Layer"/>
  <g id="_1391131788224">
   <g>
    <path class="fil0" d="M82 41l0 97c9,-15 22,-28 39,-37 15,-8 33,-13 54,-13 38,0 69,16 93,48 24,31 36,72 36,122 0,50 -12,91 -36,123 -12,15 -29,26 -49,33 -21,7 -41,10 -61,10 -39,0 -75,-10 -108,-30 -33,-20 -50,-59 -50,-116l0 -278 41 0c12,0 21,4 29,12 8,8 12,18 12,29zm139 214l0 0c0,-30 -6,-52 -19,-68 -12,-17 -28,-26 -49,-26 -23,0 -40,8 -52,24 -13,17 -19,40 -19,70 0,33 6,58 17,74 13,16 29,25 51,25 23,0 40,-9 52,-25 13,-17 19,-42 19,-74z"/>
   </g>
  </g>
  <g id="_1391131788384">
   <g>
    <path class="fil0" d="M319 418l0 -156c0,-32 4,-58 14,-80 9,-21 22,-38 38,-51 15,-12 33,-21 54,-27 20,-5 42,-8 64,-8 1,0 3,0 6,0 2,0 4,0 6,0l0 86 -28 0c-24,0 -41,5 -52,17 -12,11 -17,29 -17,53l0 166 -85 0z"/>
   </g>
  </g>
  <g id="_1391131789184">
   <g>
    <path class="fil0" d="M549 389c-17,-14 -29,-34 -36,-59 -8,-24 -11,-50 -11,-77 0,-21 3,-43 9,-65 6,-22 15,-40 28,-55 21,-24 49,-38 82,-43 33,-4 63,-2 89,8 31,12 54,33 68,63 14,27 21,58 21,94 0,25 -3,48 -9,66 -5,19 -13,35 -21,48 -20,26 -45,43 -74,49 -27,7 -54,8 -81,2 -27,-6 -49,-16 -65,-31zm58 -213l0 0c-17,18 -24,46 -23,83 2,37 9,62 21,77 5,6 13,12 25,16 12,5 25,5 37,1 13,-3 24,-12 34,-27 9,-14 15,-38 15,-70 0,-29 -4,-51 -14,-66 -9,-14 -20,-24 -32,-28 -12,-4 -24,-4 -36,0 -12,3 -21,8 -27,14z"/>
   </g>
  </g>
  <g id="_1391131790496">
   <g>
    <path class="fil0" d="M1026 0l41 0c11,0 21,4 29,13 8,8 12,18 12,28l0 237c0,57 -17,96 -50,116 -33,20 -69,30 -108,30 -21,0 -41,-3 -61,-10 -21,-7 -37,-18 -49,-33 -23,-30 -35,-71 -35,-123 0,-51 12,-92 35,-122 24,-32 55,-48 93,-48 21,0 38,5 54,13 16,9 29,22 39,37l0 -138zm-139 255l0 0c0,32 6,57 19,74 12,16 29,25 52,25 21,0 38,-9 51,-25 11,-17 17,-42 17,-74 0,-30 -7,-53 -19,-70 -13,-16 -30,-24 -52,-24 -21,0 -37,9 -49,26 -13,16 -19,38 -19,68z"/>
   </g>
  </g>
  <g id="_1391131788768">
   <g>
    <path class="fil0" d="M1347 319l60 0c-9,34 -26,60 -51,77 -25,19 -56,28 -94,28 -46,0 -82,-15 -108,-45 -26,-29 -39,-70 -39,-124 0,-52 13,-93 38,-122 26,-30 62,-45 108,-45 48,0 86,15 112,44 26,30 39,72 39,125 0,3 0,6 0,8 0,3 0,5 0,5 0,4 0,7 -1,9l-210 0c1,25 7,43 18,56 11,13 27,19 48,19 13,0 25,-3 35,-9 2,0 5,-2 7,-4 2,-2 4,-4 6,-6 1,-3 4,-6 9,-10 6,-4 13,-6 23,-6zm-146 -95l0 0 124 0c-2,-22 -7,-38 -17,-48 -11,-12 -25,-17 -45,-17 -18,0 -32,5 -44,17 -11,11 -17,27 -18,48z"/>
   </g>
  </g>
  <g id="_1391131789792">
   <g>
    <path class="fil0" d="M1426 418l0 -156c0,-32 4,-58 13,-80 10,-21 22,-38 39,-51 15,-12 33,-21 54,-27 20,-5 41,-8 63,-8 2,0 4,0 6,0 3,0 5,0 6,0l0 86 -28 0c-23,0 -40,5 -52,17 -11,11 -17,29 -17,53l0 166 -84 0z"/>
   </g>
  </g>
  <g id="_1391131789984">
   <g>
    <path class="fil0" d="M1588 553l0 -71 16 0c7,0 12,-2 14,-6 3,-2 5,-7 5,-15l0 -43 0 -243 0 -79 44 0c11,0 21,4 29,12 8,8 12,18 12,29l0 281 0 56c0,27 -8,48 -24,61 -16,12 -43,18 -80,18l-16 0zm35 -552l0 0 44 0c11,0 21,4 29,12 8,8 12,18 12,29l0 26 -85 0 0 -67z"/>
   </g>
  </g>
  <g id="_1391131792384">
   <g>
    <path class="fil0" d="M1766 389c-17,-14 -29,-34 -36,-59 -7,-24 -11,-50 -11,-77 0,-21 3,-43 9,-65 6,-22 16,-40 28,-55 21,-24 49,-38 82,-43 33,-4 63,-2 89,8 31,12 54,33 68,63 14,27 21,58 21,94 0,25 -3,48 -9,66 -5,19 -13,35 -21,48 -20,26 -44,43 -74,49 -27,7 -54,8 -81,2 -27,-6 -49,-16 -65,-31zm58 -213l0 0c-17,18 -24,46 -23,83 2,37 9,62 21,77 5,6 13,12 25,16 13,5 25,5 37,1 13,-3 24,-12 34,-27 9,-14 15,-38 15,-70 0,-29 -4,-51 -13,-66 -10,-14 -20,-24 -33,-28 -12,-4 -24,-4 -36,0 -12,3 -21,8 -27,14z"/>
   </g>
  </g>
  <g id="_1391131790592">
   <g>
    <path class="fil0" d="M2112 41l0 97c9,-15 21,-28 38,-37 15,-8 33,-13 54,-13 38,0 69,16 93,48 24,31 36,72 36,122 0,50 -12,91 -36,123 -12,15 -28,26 -49,33 -21,7 -41,10 -61,10 -39,0 -75,-10 -108,-30 -33,-20 -50,-59 -50,-116l0 -278 41 0c12,0 21,4 30,12 8,8 12,18 12,29zm138 214l0 0c0,-30 -6,-52 -18,-68 -12,-17 -29,-26 -50,-26 -23,0 -40,8 -52,24 -12,17 -18,40 -18,70 0,33 5,58 17,74 12,16 29,25 51,25 22,0 40,-9 52,-25 12,-17 18,-42 18,-74z"/>
   </g>
  </g>
  <g id="_1391131790752">
   <g>
    <path class="fil0" d="M2341 312l82 0c1,16 7,28 18,36 12,8 29,12 49,12 14,0 27,-3 37,-8 10,-6 15,-14 15,-23 0,-15 -17,-26 -51,-33 -14,-3 -25,-5 -33,-8 -43,-10 -71,-23 -86,-37 -16,-15 -24,-34 -24,-58 0,-31 12,-56 35,-77 24,-18 56,-28 95,-28 42,0 75,10 100,28 24,21 36,47 38,79l-52 0c-16,0 -27,-7 -35,-20 -4,-4 -7,-7 -10,-10 -10,-7 -23,-11 -40,-11 -16,0 -28,2 -36,7 -8,5 -11,12 -11,22 0,13 21,24 63,33 5,1 9,3 12,3 4,1 7,2 11,2 41,10 70,22 86,36 15,15 23,34 23,58 0,36 -13,63 -39,83 -24,17 -61,26 -109,26 -46,0 -80,-9 -103,-28 -24,-18 -35,-45 -35,-81l0 -3z"/>
   </g>
  </g>
 </g>
</svg>
