<?xml version="1.0" encoding="UTF-8"?>
<!DOCTYPE svg PUBLIC "-//W3C//DTD SVG 1.1//EN" "http://www.w3.org/Graphics/SVG/1.1/DTD/svg11.dtd">
<!-- Creator: CorelDRAW X7 -->
<svg xmlns="http://www.w3.org/2000/svg" xml:space="preserve" width="2.60078in" height="0.54728in" version="1.1" style="shape-rendering:geometricPrecision; text-rendering:geometricPrecision; image-rendering:optimizeQuality; fill-rule:evenodd; clip-rule:evenodd"
viewBox="0 0 2628 553"
 xmlns:xlink="http://www.w3.org/1999/xlink">
 <defs>
  <style type="text/css">
   <![CDATA[
    .fil0 {fill:#FB4100;fill-rule:nonzero}
   ]]>
  </style>
 </defs>
 <g id="Capa_x0020_1">
  <metadata id="CorelCorpID_0Corel-Layer"/>
  <g id="_1391131828128">
   <g>
    <path class="fil0" d="M82 41l0 97c9,-15 22,-28 39,-37 15,-8 33,-12 54,-12 38,0 69,15 93,47 24,31 36,72 36,122 0,50 -12,91 -36,123 -12,15 -29,26 -49,33 -21,7 -41,10 -61,10 -39,0 -75,-10 -108,-30 -33,-20 -50,-59 -50,-116l0 -278 41 0c12,0 21,4 29,12 8,8 12,18 12,29zm139 214l0 0c0,-29 -6,-52 -18,-68 -13,-17 -29,-26 -50,-26 -23,0 -40,8 -52,25 -12,16 -19,40 -19,69 0,34 6,58 17,74 13,17 30,25 51,25 23,0 40,-8 53,-25 12,-17 18,-42 18,-74z"/>
   </g>
  </g>
  <g id="_1391131829888">
   <g>
    <path class="fil0" d="M319 418l0 -156c0,-32 5,-58 14,-80 9,-21 22,-38 38,-51 15,-12 33,-21 54,-27 21,-5 42,-8 64,-8 1,0 3,0 6,0 2,0 4,0 6,0l0 86 -28 0c-24,0 -41,6 -52,17 -12,11 -17,29 -17,53l0 166 -85 0z"/>
   </g>
  </g>
  <g id="_1391131830752">
   <g>
    <path class="fil0" d="M549 389c-17,-14 -29,-34 -36,-59 -7,-24 -11,-50 -11,-77 0,-21 3,-43 9,-65 6,-22 16,-40 29,-55 21,-24 48,-38 81,-43 33,-4 63,-1 90,8 30,12 53,33 67,63 14,27 21,58 21,94 0,26 -3,48 -8,66 -6,19 -13,35 -22,48 -20,26 -44,43 -74,49 -27,8 -54,8 -81,2 -27,-6 -49,-16 -65,-31zm58 -213l0 0c-16,18 -24,46 -23,83 2,37 9,62 21,77 5,6 13,12 26,16 12,5 24,5 37,1 12,-3 23,-12 33,-27 10,-14 15,-38 16,-70 0,-29 -5,-51 -14,-66 -10,-14 -20,-23 -32,-28 -13,-4 -25,-4 -37,0 -12,4 -21,8 -27,14z"/>
   </g>
  </g>
  <g id="_1391131829760">
   <g>
    <path class="fil0" d="M1026 0l41 0c11,0 21,4 29,13 8,8 12,18 12,28l0 237c0,57 -16,96 -49,116 -34,20 -70,30 -108,30 -21,0 -42,-3 -62,-10 -20,-7 -37,-18 -49,-33 -23,-30 -35,-71 -35,-123 0,-51 12,-91 35,-122 25,-32 56,-47 94,-47 20,0 38,4 53,12 16,9 29,22 39,37l0 -138zm-138 255l0 0c0,32 6,57 18,74 12,17 29,25 52,25 22,0 39,-8 51,-25 11,-17 17,-42 17,-74 0,-29 -6,-53 -18,-69 -13,-17 -31,-25 -52,-25 -22,0 -38,9 -50,26 -12,16 -18,39 -18,68z"/>
   </g>
  </g>
  <g id="_1391131829504">
   <g>
    <path class="fil0" d="M1347 319l61 0c-9,34 -26,60 -51,78 -25,18 -57,27 -95,27 -46,0 -82,-15 -108,-44 -26,-30 -38,-71 -38,-125 0,-52 12,-93 37,-122 26,-30 62,-44 108,-44 49,0 86,14 113,43 26,30 39,72 39,125 0,3 0,6 0,9 0,2 0,4 0,4 0,4 -1,7 -2,9l-209 0c0,25 7,44 18,56 10,13 26,19 47,19 14,0 26,-3 35,-8 3,-1 5,-3 7,-5 2,-2 4,-4 7,-6 0,-3 3,-6 9,-10 5,-4 12,-6 22,-6zm-145 -95l0 0 123 0c-1,-22 -7,-38 -17,-48 -10,-11 -25,-17 -45,-17 -17,0 -32,6 -43,17 -11,11 -18,27 -18,48z"/>
   </g>
  </g>
  <g id="_1391131831168">
   <g>
    <path class="fil0" d="M1426 418l0 -156c0,-32 5,-58 14,-80 9,-21 22,-38 38,-51 15,-12 33,-21 54,-27 21,-5 42,-8 64,-8 1,0 3,0 6,0 2,0 4,0 6,0l0 86 -28 0c-23,0 -41,6 -52,17 -12,11 -17,29 -17,53l0 166 -85 0z"/>
   </g>
  </g>
  <g id="_1391131831904">
   <g>
    <path class="fil0" d="M1588 553l0 -70 16 0c7,0 12,-2 15,-6 3,-3 5,-8 5,-16l0 -43 0 -243 0 -79 43 0c12,0 21,4 29,12 8,8 12,18 12,29l0 281 0 56c0,28 -8,48 -24,61 -16,12 -43,18 -80,18l-16 0zm36 -552l0 0 43 0c12,0 21,4 29,12 8,8 12,18 12,29l0 26 -84 0 0 -67z"/>
   </g>
  </g>
  <g id="_1391131832256">
   <g>
    <path class="fil0" d="M1767 389c-17,-14 -29,-34 -37,-59 -7,-24 -11,-50 -11,-77 0,-21 3,-43 10,-65 6,-22 15,-40 28,-55 21,-24 48,-38 81,-43 33,-4 63,-1 90,8 31,12 53,33 68,63 14,27 20,58 20,94 0,26 -2,48 -8,66 -6,19 -13,35 -22,48 -19,26 -44,43 -74,49 -26,8 -53,8 -80,2 -28,-6 -49,-16 -65,-31zm58 -213l0 0c-17,18 -25,46 -23,83 1,37 8,62 20,77 5,6 14,12 26,16 12,5 24,5 37,1 12,-3 24,-12 33,-27 10,-14 15,-38 16,-70 0,-29 -5,-51 -14,-66 -9,-14 -20,-23 -32,-28 -12,-4 -24,-4 -36,0 -13,4 -21,8 -27,14z"/>
   </g>
  </g>
  <g id="_1391131833344">
   <g>
    <path class="fil0" d="M2112 41l0 97c9,-15 22,-28 39,-37 15,-8 32,-12 53,-12 38,0 70,15 94,47 24,31 36,72 36,122 0,50 -12,91 -36,123 -12,15 -29,26 -49,33 -21,7 -41,10 -62,10 -38,0 -74,-10 -107,-30 -34,-20 -50,-59 -50,-116l0 -278 41 0c11,0 21,4 29,12 8,8 12,18 12,29zm139 214l0 0c0,-29 -7,-52 -19,-68 -12,-17 -28,-26 -49,-26 -23,0 -40,8 -53,25 -12,16 -18,40 -18,69 0,34 6,58 17,74 12,17 29,25 51,25 23,0 40,-8 52,-25 12,-17 19,-42 19,-74z"/>
   </g>
  </g>
  <g id="_1391131832032">
   <g>
    <path class="fil0" d="M2341 312l83 0c1,16 7,28 18,36 12,8 28,12 49,12 14,0 27,-3 37,-8 10,-6 15,-14 15,-23 0,-15 -17,-26 -51,-33 -15,-3 -26,-5 -33,-7 -43,-11 -71,-23 -86,-38 -16,-15 -24,-34 -24,-58 0,-31 11,-56 35,-77 24,-18 56,-27 94,-27 42,0 76,9 101,27 24,21 36,47 38,79l-52 0c-16,0 -28,-7 -36,-20 -3,-4 -6,-7 -9,-10 -10,-7 -23,-11 -40,-11 -16,0 -29,2 -37,7 -7,5 -11,12 -11,22 0,13 21,24 63,33 5,1 10,3 13,3 4,1 7,2 10,2 42,10 70,22 87,36 15,15 23,34 23,58 0,36 -13,63 -39,83 -24,18 -61,26 -109,26 -46,0 -81,-9 -103,-27 -24,-19 -36,-46 -36,-82l0 -3z"/>
   </g>
  </g>
 </g>
</svg>
